<svg xmlns="http://www.w3.org/2000/svg" xmlns:xlink="http://www.w3.org/1999/xlink" width="100" zoomAndPan="magnify" viewBox="0 0 75 74.999997" height="100" preserveAspectRatio="xMidYMid meet" version="1.0"><defs><clipPath id="4baa0500be"><path d="M 0 11.25 L 75 11.25 L 75 48 L 0 48 Z M 0 11.25 " clip-rule="nonzero"/></clipPath><clipPath id="1f8e8b7179"><path d="M 13 37 L 61 37 L 61 63.75 L 13 63.75 Z M 13 37 " clip-rule="nonzero"/></clipPath><clipPath id="ea03501bc6"><path d="M 57 30 L 75 30 L 75 63.75 L 57 63.75 Z M 57 30 " clip-rule="nonzero"/></clipPath><clipPath id="34a75ef7c4"><path d="M 58 32 L 75 32 L 75 63.75 L 58 63.75 Z M 58 32 " clip-rule="nonzero"/></clipPath></defs><rect x="-7.5" width="90" fill="#ffffff" y="-7.5" height="89.999996" fill-opacity="1"/><rect x="-7.5" width="90" fill="#ffffff" y="-7.5" height="89.999996" fill-opacity="1"/><g clip-path="url(#4baa0500be)"><path fill="#221c35" d="M 56.304688 20.285156 L 37.585938 11.226562 L 18.871094 20.285156 L 0.152344 29.339844 L 18.871094 38.394531 L 37.585938 47.453125 L 56.304688 38.394531 L 75.019531 29.339844 Z M 56.304688 20.285156 " fill-opacity="1" fill-rule="nonzero"/></g><g clip-path="url(#1f8e8b7179)"><path fill="#221c35" d="M 60.410156 38.300781 L 55.765625 40.96875 L 37.585938 51.410156 L 19.40625 40.96875 L 13.261719 37.4375 L 13.261719 53.585938 C 13.261719 59.242188 23.820312 63.828125 36.84375 63.828125 C 49.871094 63.828125 60.429688 59.242188 60.429688 53.585938 C 60.429688 53.523438 60.410156 53.464844 60.40625 53.40625 L 60.40625 38.300781 Z M 60.410156 38.300781 " fill-opacity="1" fill-rule="nonzero"/></g><path stroke-linecap="butt" transform="matrix(1.027908, 0, 0, 1.027908, -14.212829, -9.410958)" fill="none" stroke-linejoin="miter" d="M 86.038215 39.701399 C 86.038215 39.967413 85.985012 40.225826 85.886207 40.469038 C 85.783602 40.716051 85.639195 40.932662 85.449185 41.118871 C 85.262976 41.308881 85.046365 41.453288 84.799352 41.555894 C 84.55614 41.654699 84.297727 41.707901 84.031713 41.707901 C 83.7657 41.707901 83.511087 41.654699 83.267874 41.555894 C 83.020862 41.453288 82.804251 41.308881 82.614241 41.118871 C 82.428031 40.932662 82.283624 40.716051 82.181019 40.469038 C 82.078414 40.225826 82.029011 39.967413 82.029011 39.701399 C 82.029011 39.435386 82.078414 39.180773 82.181019 38.93756 C 82.283624 38.690548 82.428031 38.473937 82.614241 38.287727 C 82.804251 38.097718 83.020862 37.95331 83.267874 37.850705 C 83.511087 37.7481 83.7657 37.698697 84.031713 37.698697 C 84.297727 37.698697 84.55614 37.7481 84.799352 37.850705 C 85.046365 37.95331 85.262976 38.097718 85.449185 38.287727 C 85.639195 38.473937 85.783602 38.690548 85.886207 38.93756 C 85.985012 39.180773 86.038215 39.435386 86.038215 39.701399 Z M 86.038215 39.701399 " stroke="#000000" stroke-width="1" stroke-opacity="1" stroke-miterlimit="10"/><path stroke-linecap="butt" transform="matrix(1.027908, 0, 0, 1.027908, -14.212829, -9.410958)" fill="none" stroke-linejoin="miter" d="M 84.031713 41.707901 L 82.029011 45.576498 " stroke="#000000" stroke-width="1" stroke-opacity="1" stroke-miterlimit="10"/><path stroke-linecap="butt" transform="matrix(1.027908, 0, 0, 1.027908, -14.212829, -9.410958)" fill="none" stroke-linejoin="miter" d="M 84.673946 42.293131 L 86.171222 45.576498 " stroke="#000000" stroke-width="1" stroke-opacity="1" stroke-miterlimit="10"/><path stroke-linecap="butt" transform="matrix(1.027908, 0, 0, 1.027908, -14.212829, -9.410958)" fill="none" stroke-linejoin="miter" d="M 84.533339 41.707901 L 83.530088 48.065625 " stroke="#000000" stroke-width="1" stroke-opacity="1" stroke-miterlimit="10"/><path stroke-linecap="butt" transform="matrix(1.027908, 0, 0, 1.027908, -14.212829, -9.410958)" fill="none" stroke-linejoin="miter" d="M 84.518138 44.280632 L 86.32703 50.782763 " stroke="#000000" stroke-width="1" stroke-opacity="1" stroke-miterlimit="10"/><path stroke-linecap="butt" transform="matrix(1.027908, 0, 0, 1.027908, -14.212829, -9.410958)" fill="none" stroke-linejoin="miter" d="M 85.034964 47.529797 L 83.028462 51.569403 " stroke="#000000" stroke-width="1" stroke-opacity="1" stroke-miterlimit="10"/><path stroke-linecap="butt" transform="matrix(1.027908, 0, 0, 1.027908, -14.212829, -9.410958)" fill="none" stroke-linejoin="miter" d="M 84.328128 49.35389 L 85.905208 54.85277 " stroke="#000000" stroke-width="1" stroke-opacity="1" stroke-miterlimit="10"/><path stroke-linecap="butt" transform="matrix(1.027908, 0, 0, 1.027908, -14.212829, -9.410958)" fill="none" stroke-linejoin="miter" d="M 84.282526 52.10523 L 82.781449 55.605208 " stroke="#000000" stroke-width="1" stroke-opacity="1" stroke-miterlimit="10"/><g clip-path="url(#ea03501bc6)"><path stroke-linecap="butt" transform="matrix(1.027908, 0, 0, 1.027908, -14.212829, -9.410958)" fill="none" stroke-linejoin="miter" d="M 84.841154 52.819666 L 84.191321 59.067184 " stroke="#000000" stroke-width="1" stroke-opacity="1" stroke-miterlimit="10"/></g><g clip-path="url(#34a75ef7c4)"><path stroke-linecap="butt" transform="matrix(1.027908, 0, 0, 1.027908, -14.212829, -9.410958)" fill="none" stroke-linejoin="miter" d="M 85.202173 55.320194 L 86.015414 58.626362 " stroke="#000000" stroke-width="1" stroke-opacity="1" stroke-miterlimit="10"/></g></svg>