<svg xmlns="http://www.w3.org/2000/svg" xmlns:xlink="http://www.w3.org/1999/xlink" width="100" zoomAndPan="magnify" viewBox="0 0 75 74.999997" height="100" preserveAspectRatio="xMidYMid meet" version="1.0"><defs><clipPath id="aebcf01027"><path d="M 0 2.8125 L 75 2.8125 L 75 72.5625 L 0 72.5625 Z M 0 2.8125 " clip-rule="nonzero"/></clipPath></defs><g clip-path="url(#aebcf01027)"><path fill="#221c35" d="M 54.851562 22.902344 C 54.851562 22.386719 55.269531 21.96875 55.785156 21.96875 L 68.808594 21.96875 C 69.324219 21.96875 69.742188 22.386719 69.742188 22.902344 C 69.742188 23.417969 69.324219 23.835938 68.808594 23.835938 L 55.785156 23.835938 C 55.269531 23.835938 54.851562 23.417969 54.851562 22.902344 Z M 54.851562 18.59375 C 54.851562 18.078125 55.269531 17.660156 55.785156 17.660156 L 68.808594 17.660156 C 69.324219 17.660156 69.742188 18.078125 69.742188 18.59375 C 69.742188 19.109375 69.324219 19.527344 68.808594 19.527344 L 55.785156 19.527344 C 55.269531 19.527344 54.851562 19.109375 54.851562 18.59375 Z M 54.851562 14.289062 C 54.851562 13.773438 55.269531 13.355469 55.785156 13.355469 L 68.808594 13.355469 C 69.324219 13.355469 69.742188 13.773438 69.742188 14.289062 C 69.742188 14.804688 69.324219 15.222656 68.808594 15.222656 L 55.785156 15.222656 C 55.269531 15.222656 54.851562 14.804688 54.851562 14.289062 Z M 54.851562 9.984375 C 54.851562 9.46875 55.269531 9.050781 55.785156 9.050781 L 68.808594 9.050781 C 69.324219 9.050781 69.742188 9.46875 69.742188 9.984375 C 69.742188 10.5 69.324219 10.917969 68.808594 10.917969 L 55.785156 10.917969 C 55.269531 10.917969 54.851562 10.5 54.851562 9.984375 Z M 59.9375 32.050781 L 63.167969 33.808594 L 59.9375 35.566406 Z M 58.527344 37.9375 C 58.675781 38.027344 58.835938 38.070312 59.003906 38.070312 C 59.15625 38.070312 59.3125 38.03125 59.449219 37.957031 L 65.566406 34.628906 C 65.867188 34.464844 66.054688 34.148438 66.054688 33.808594 C 66.054688 33.464844 65.867188 33.152344 65.566406 32.988281 L 59.449219 29.65625 C 59.160156 29.5 58.808594 29.507812 58.527344 29.675781 C 58.242188 29.84375 58.070312 30.148438 58.070312 30.476562 L 58.070312 37.136719 C 58.070312 37.464844 58.242188 37.769531 58.527344 37.9375 Z M 61.484375 27.417969 C 57.960938 27.417969 55.09375 30.28125 55.09375 33.808594 C 55.09375 37.332031 57.960938 40.199219 61.484375 40.199219 C 65.011719 40.199219 67.875 37.332031 67.875 33.808594 C 67.875 30.28125 65.007812 27.417969 61.484375 27.417969 Z M 61.484375 42.066406 C 66.039062 42.066406 69.742188 38.363281 69.742188 33.808594 C 69.742188 29.253906 66.039062 25.550781 61.484375 25.550781 C 56.933594 25.550781 53.226562 29.253906 53.226562 33.808594 C 53.226562 38.363281 56.933594 42.066406 61.484375 42.066406 Z M 44.195312 27.730469 C 44.070312 28.230469 43.5625 28.539062 43.0625 28.414062 C 39.90625 27.632812 36.460938 27.75 32.527344 28.78125 C 32.445312 28.800781 32.367188 28.8125 32.289062 28.8125 C 31.875 28.8125 31.496094 28.535156 31.386719 28.113281 C 31.253906 27.613281 31.554688 27.105469 32.054688 26.972656 C 36.296875 25.863281 40.046875 25.738281 43.515625 26.601562 C 44.015625 26.722656 44.320312 27.230469 44.195312 27.730469 Z M 31.386719 23.835938 C 31.253906 23.335938 31.554688 22.828125 32.050781 22.695312 C 36.296875 21.585938 40.042969 21.464844 43.511719 22.320312 C 44.011719 22.445312 44.320312 22.953125 44.195312 23.453125 C 44.070312 23.953125 43.5625 24.257812 43.0625 24.132812 C 39.90625 23.351562 36.460938 23.472656 32.527344 24.503906 C 32.445312 24.523438 32.367188 24.535156 32.289062 24.535156 C 31.875 24.535156 31.496094 24.253906 31.386719 23.835938 Z M 31.386719 19.554688 C 31.253906 19.054688 31.554688 18.546875 32.050781 18.417969 C 36.296875 17.308594 40.042969 17.183594 43.511719 18.042969 C 44.011719 18.167969 44.320312 18.671875 44.195312 19.171875 C 44.070312 19.671875 43.5625 19.976562 43.0625 19.855469 C 39.90625 19.074219 36.460938 19.195312 32.527344 20.222656 C 32.445312 20.242188 32.367188 20.253906 32.289062 20.253906 C 31.875 20.253906 31.496094 19.976562 31.386719 19.558594 Z M 31.386719 15.277344 C 31.253906 14.777344 31.554688 14.265625 32.050781 14.136719 C 36.296875 13.027344 40.042969 12.902344 43.511719 13.761719 C 44.011719 13.886719 44.320312 14.390625 44.195312 14.890625 C 44.070312 15.390625 43.5625 15.695312 43.0625 15.574219 C 39.90625 14.792969 36.460938 14.914062 32.527344 15.941406 C 32.445312 15.964844 32.367188 15.972656 32.289062 15.972656 C 31.875 15.972656 31.496094 15.695312 31.386719 15.277344 Z M 12.578125 27.730469 C 12.453125 27.230469 12.761719 26.722656 13.261719 26.601562 C 16.730469 25.742188 20.480469 25.867188 24.722656 26.976562 C 25.222656 27.105469 25.519531 27.617188 25.390625 28.117188 C 25.277344 28.535156 24.902344 28.8125 24.488281 28.8125 C 24.40625 28.8125 24.328125 28.804688 24.25 28.78125 C 20.316406 27.753906 16.867188 27.632812 13.710938 28.414062 C 13.210938 28.539062 12.703125 28.234375 12.582031 27.734375 Z M 12.578125 23.453125 C 12.453125 22.953125 12.761719 22.445312 13.261719 22.320312 C 16.730469 21.460938 20.480469 21.585938 24.722656 22.695312 C 25.222656 22.828125 25.519531 23.335938 25.390625 23.835938 C 25.277344 24.253906 24.902344 24.535156 24.488281 24.535156 C 24.40625 24.535156 24.328125 24.523438 24.25 24.503906 C 20.316406 23.472656 16.867188 23.351562 13.710938 24.132812 C 13.210938 24.257812 12.703125 23.953125 12.582031 23.453125 Z M 12.578125 19.171875 C 12.453125 18.671875 12.761719 18.164062 13.261719 18.042969 C 16.730469 17.183594 20.480469 17.308594 24.722656 18.417969 C 25.222656 18.546875 25.519531 19.058594 25.390625 19.554688 C 25.277344 19.976562 24.902344 20.253906 24.488281 20.253906 C 24.40625 20.253906 24.328125 20.242188 24.25 20.222656 C 20.316406 19.195312 16.867188 19.070312 13.710938 19.851562 C 13.210938 19.976562 12.703125 19.671875 12.582031 19.171875 Z M 12.578125 14.894531 C 12.453125 14.390625 12.761719 13.886719 13.261719 13.761719 C 16.730469 12.902344 20.480469 13.027344 24.722656 14.136719 C 25.222656 14.265625 25.519531 14.777344 25.390625 15.277344 C 25.277344 15.695312 24.902344 15.972656 24.488281 15.972656 C 24.40625 15.972656 24.328125 15.964844 24.25 15.941406 C 20.316406 14.914062 16.867188 14.792969 13.710938 15.574219 C 13.210938 15.699219 12.703125 15.390625 12.582031 14.890625 Z M 7.109375 15.078125 L 7.109375 34.335938 C 7.109375 35.488281 7.917969 36.878906 9.078125 37.722656 C 9.855469 38.285156 10.644531 38.496094 11.246094 38.300781 C 17.035156 36.40625 20.960938 36.5625 27.394531 38.945312 C 28.070312 39.195312 28.699219 39.195312 29.375 38.945312 C 35.8125 36.5625 39.734375 36.40625 45.527344 38.300781 C 46.125 38.496094 46.914062 38.285156 47.691406 37.722656 C 48.851562 36.878906 49.664062 35.488281 49.664062 34.335938 L 49.664062 15.078125 C 49.664062 14.0625 49.132812 12.597656 47.738281 12.03125 C 47.757812 12.199219 47.769531 12.367188 47.769531 12.535156 L 47.769531 33.039062 C 47.769531 34.070312 47.328125 34.984375 46.5625 35.539062 C 45.710938 36.152344 44.558594 36.285156 43.390625 35.902344 C 38.703125 34.363281 33.523438 34.84375 28.8125 37.25 C 28.675781 37.320312 28.53125 37.351562 28.386719 37.351562 C 28.238281 37.351562 28.09375 37.316406 27.960938 37.25 C 23.25 34.84375 18.070312 34.363281 13.382812 35.902344 C 12.214844 36.285156 11.058594 36.152344 10.210938 35.539062 C 9.445312 34.984375 9.003906 34.070312 9.003906 33.039062 L 9.003906 12.535156 C 9.003906 12.363281 9.015625 12.199219 9.03125 12.03125 C 7.636719 12.601562 7.109375 14.070312 7.109375 15.078125 Z M 10.871094 12.535156 L 10.871094 33.039062 C 10.871094 33.34375 10.945312 33.765625 11.308594 34.027344 C 11.664062 34.285156 12.207031 34.320312 12.800781 34.125 C 14.792969 33.472656 16.867188 33.148438 18.953125 33.148438 C 21.804688 33.148438 24.6875 33.757812 27.453125 34.949219 L 27.453125 10.75 C 21.824219 7.996094 16.738281 7.78125 12.324219 10.121094 C 11.402344 10.609375 10.871094 11.488281 10.871094 12.535156 Z M 44.449219 10.117188 C 40.039062 7.78125 34.953125 7.996094 29.320312 10.75 L 29.320312 34.945312 C 34.109375 32.878906 39.257812 32.578125 43.972656 34.125 C 44.5625 34.320312 45.109375 34.285156 45.464844 34.023438 C 45.828125 33.761719 45.902344 33.34375 45.902344 33.039062 L 45.902344 12.535156 C 45.902344 11.488281 45.371094 10.605469 44.449219 10.117188 Z M 7.984375 39.234375 C 9.253906 40.152344 10.652344 40.457031 11.824219 40.074219 C 17.148438 38.332031 20.773438 38.484375 26.746094 40.695312 C 27.289062 40.898438 27.835938 40.996094 28.386719 40.996094 C 28.933594 40.996094 29.480469 40.898438 30.023438 40.695312 C 35.996094 38.484375 39.621094 38.332031 44.945312 40.074219 C 46.117188 40.457031 47.519531 40.152344 48.789062 39.230469 C 50.453125 38.023438 51.53125 36.101562 51.53125 34.335938 L 51.53125 15.078125 C 51.53125 12.785156 49.9375 10.226562 46.988281 9.953125 C 46.574219 9.34375 46.011719 8.832031 45.320312 8.46875 C 40.320312 5.820312 34.625 6.039062 28.386719 9.128906 C 22.148438 6.039062 16.449219 5.816406 11.449219 8.46875 C 10.761719 8.835938 10.199219 9.34375 9.785156 9.953125 L 9.777344 9.953125 C 6.800781 10.230469 5.242188 12.742188 5.242188 15.078125 L 5.242188 34.339844 C 5.242188 36.105469 6.316406 38.027344 7.984375 39.234375 Z M 64.863281 53.007812 L 10.125 53.007812 C 5.929688 53.007812 2.457031 49.867188 1.929688 45.8125 L 73.054688 45.8125 C 72.527344 49.867188 69.054688 53.007812 64.863281 53.007812 Z M 46.535156 64.5 L 28.453125 64.5 L 30.878906 54.875 L 44.105469 54.875 L 46.53125 64.5 Z M 54.019531 68.308594 L 54.019531 70.246094 L 20.964844 70.246094 L 20.964844 68.308594 C 20.964844 67.238281 21.835938 66.367188 22.902344 66.367188 L 52.082031 66.367188 C 53.152344 66.367188 54.023438 67.238281 54.023438 68.308594 Z M 10.125 4.761719 C 5.566406 4.761719 1.859375 8.46875 1.859375 13.027344 L 1.859375 43.945312 L 73.125 43.945312 L 73.125 13.027344 C 73.125 8.46875 69.417969 4.761719 64.863281 4.761719 Z M 64.863281 2.894531 L 10.125 2.894531 C 4.539062 2.894531 -0.0078125 7.4375 -0.0078125 13.027344 L -0.0078125 44.746094 C -0.0078125 50.332031 4.539062 54.875 10.125 54.875 L 28.953125 54.875 L 26.527344 64.5 L 22.902344 64.5 C 20.804688 64.5 19.097656 66.207031 19.097656 68.308594 L 19.097656 71.179688 C 19.097656 71.695312 19.515625 72.113281 20.03125 72.113281 L 54.957031 72.113281 C 55.46875 72.113281 55.890625 71.695312 55.890625 71.179688 L 55.890625 68.308594 C 55.890625 66.207031 54.183594 64.5 52.082031 64.5 L 48.460938 64.5 L 46.03125 54.875 L 64.863281 54.875 C 70.449219 54.875 74.992188 50.332031 74.992188 44.746094 L 74.992188 13.027344 C 74.992188 7.4375 70.449219 2.894531 64.863281 2.894531 Z M 64.863281 2.894531 " fill-opacity="1" fill-rule="evenodd"/></g></svg>