<svg xmlns="http://www.w3.org/2000/svg" xmlns:xlink="http://www.w3.org/1999/xlink" width="100" zoomAndPan="magnify" viewBox="0 0 75 74.999997" height="100" preserveAspectRatio="xMidYMid meet" version="1.0"><path fill="#221c35" d="M 71.371094 0 L 3.628906 0 C 1.628906 0 0 1.628906 0 3.628906 L 0 58.75 C 0 60.75 1.628906 62.375 3.628906 62.375 L 25.933594 62.375 L 23.101562 68.03125 L 18.628906 68.03125 C 16.707031 68.03125 15.144531 69.597656 15.144531 71.515625 C 15.144531 73.4375 16.707031 75 18.628906 75 L 56.375 75 C 58.296875 75 59.859375 73.4375 59.859375 71.515625 C 59.859375 69.597656 58.292969 68.03125 56.375 68.03125 L 51.898438 68.03125 L 49.070312 62.375 L 71.375 62.375 C 73.375 62.375 75 60.75 75 58.75 L 75 3.628906 C 75 1.628906 73.375 0 71.375 0 Z M 73.132812 3.628906 L 73.132812 26.175781 L 68.910156 26.175781 L 68.910156 24.695312 C 68.910156 21.300781 66.152344 18.539062 62.757812 18.539062 L 58.789062 18.539062 C 55.394531 18.539062 52.636719 21.300781 52.636719 24.695312 L 52.636719 26.175781 L 48.414062 26.175781 L 48.414062 1.867188 L 71.371094 1.867188 C 72.34375 1.867188 73.132812 2.65625 73.132812 3.628906 Z M 68.910156 52.355469 L 68.910156 50.871094 C 68.910156 47.476562 66.152344 44.71875 62.757812 44.71875 L 58.789062 44.71875 C 55.394531 44.71875 52.636719 47.476562 52.636719 50.871094 L 52.636719 52.355469 L 48.414062 52.355469 L 48.414062 28.042969 L 73.132812 28.042969 L 73.132812 52.355469 Z M 67.042969 52.355469 L 54.5 52.355469 L 54.5 50.871094 C 54.5 48.507812 56.425781 46.585938 58.789062 46.585938 L 62.753906 46.585938 C 65.121094 46.585938 67.042969 48.507812 67.042969 50.871094 Z M 54.503906 26.175781 L 54.503906 24.695312 C 54.503906 22.332031 56.425781 20.40625 58.789062 20.40625 L 62.757812 20.40625 C 65.121094 20.40625 67.042969 22.332031 67.042969 24.695312 L 67.042969 26.175781 C 67.042969 26.175781 54.5 26.175781 54.5 26.175781 Z M 3.628906 1.867188 L 46.546875 1.867188 L 46.546875 52.355469 L 42.945312 52.355469 C 42.5625 44.320312 35.90625 37.898438 27.777344 37.898438 L 20.636719 37.898438 C 12.507812 37.898438 5.851562 44.320312 5.46875 52.355469 L 1.867188 52.355469 L 1.867188 3.628906 C 1.867188 2.65625 2.65625 1.867188 3.628906 1.867188 Z M 41.074219 52.355469 L 7.339844 52.355469 C 7.722656 45.347656 13.539062 39.765625 20.636719 39.765625 L 27.777344 39.765625 C 34.875 39.765625 40.691406 45.347656 41.074219 52.355469 Z M 57.992188 71.515625 C 57.992188 72.40625 57.265625 73.132812 56.375 73.132812 L 18.628906 73.132812 C 17.734375 73.132812 17.011719 72.40625 17.011719 71.515625 C 17.011719 70.625 17.734375 69.898438 18.628906 69.898438 L 56.375 69.898438 C 57.265625 69.898438 57.992188 70.625 57.992188 71.515625 Z M 49.808594 68.03125 L 25.191406 68.03125 L 28.019531 62.375 L 46.980469 62.375 Z M 71.371094 60.507812 L 3.628906 60.507812 C 2.65625 60.507812 1.867188 59.71875 1.867188 58.75 L 1.867188 54.222656 L 73.132812 54.222656 L 73.132812 58.75 C 73.132812 59.71875 72.34375 60.507812 71.371094 60.507812 Z M 9.664062 29.890625 L 12.289062 29.890625 C 12.855469 29.890625 13.371094 29.664062 13.75 29.304688 C 14.96875 31.917969 17.148438 34.03125 19.929688 35.136719 L 19.929688 35.375 C 19.929688 36.570312 20.902344 37.542969 22.09375 37.542969 L 25.351562 37.542969 C 26.449219 37.542969 27.355469 36.722656 27.496094 35.664062 C 36.277344 35.46875 38.289062 32.480469 38.367188 29.890625 L 38.746094 29.890625 C 39.910156 29.890625 40.859375 28.945312 40.859375 27.78125 L 40.859375 22.570312 C 40.859375 21.40625 39.910156 20.460938 38.746094 20.460938 L 38.121094 20.460938 C 36.871094 13.851562 31.078125 9.140625 24.039062 9.140625 C 16.996094 9.140625 11.570312 13.953125 10.304688 20.460938 L 9.664062 20.460938 C 8.503906 20.460938 7.554688 21.40625 7.554688 22.570312 L 7.554688 27.78125 C 7.554688 28.945312 8.503906 29.890625 9.664062 29.890625 Z M 14.535156 24.421875 C 14.535156 19.089844 18.875 14.75 24.207031 14.75 C 29.539062 14.75 33.878906 19.089844 33.878906 24.421875 C 33.878906 28.585938 31.28125 32.1875 27.445312 33.539062 C 27.195312 32.617188 26.351562 31.933594 25.351562 31.933594 L 22.097656 31.933594 C 21.226562 31.933594 20.476562 32.453125 20.128906 33.195312 C 16.746094 31.625 14.539062 28.226562 14.539062 24.421875 Z M 25.652344 35.375 C 25.652344 35.539062 25.515625 35.675781 25.351562 35.675781 L 22.09375 35.675781 C 21.933594 35.675781 21.796875 35.539062 21.796875 35.375 L 21.796875 34.101562 C 21.796875 33.9375 21.933594 33.800781 22.09375 33.800781 L 25.351562 33.800781 C 25.515625 33.800781 25.652344 33.941406 25.652344 34.101562 Z M 31.394531 33.445312 C 32.054688 32.917969 32.660156 32.320312 33.191406 31.660156 C 33.777344 30.933594 34.269531 30.136719 34.660156 29.296875 C 35.039062 29.664062 35.554688 29.890625 36.125 29.890625 L 36.496094 29.890625 C 36.386719 31.984375 34.035156 32.984375 31.394531 33.445312 Z M 38.992188 22.570312 L 38.992188 27.78125 C 38.992188 27.910156 38.878906 28.023438 38.746094 28.023438 L 36.125 28.023438 C 35.992188 28.023438 35.878906 27.910156 35.878906 27.78125 L 35.878906 22.570312 C 35.878906 22.4375 35.992188 22.328125 36.125 22.328125 L 38.746094 22.328125 C 38.878906 22.328125 38.992188 22.4375 38.992188 22.570312 Z M 24.039062 11.007812 C 30.039062 11.007812 34.996094 14.921875 36.214844 20.460938 L 36.125 20.460938 C 35.765625 20.460938 35.425781 20.550781 35.128906 20.710938 C 33.582031 16.164062 29.269531 12.886719 24.207031 12.886719 C 19.144531 12.886719 14.832031 16.164062 13.285156 20.710938 C 12.988281 20.550781 12.648438 20.460938 12.289062 20.460938 L 12.210938 20.460938 C 13.445312 15.003906 18.351562 11.007812 24.039062 11.007812 Z M 9.421875 22.570312 C 9.421875 22.4375 9.535156 22.328125 9.664062 22.328125 L 12.289062 22.328125 C 12.421875 22.328125 12.535156 22.4375 12.535156 22.570312 L 12.535156 27.78125 C 12.535156 27.910156 12.421875 28.023438 12.289062 28.023438 L 9.664062 28.023438 C 9.535156 28.023438 9.421875 27.910156 9.421875 27.78125 Z M 60.773438 17.71875 C 63.34375 17.71875 65.433594 15.628906 65.433594 13.058594 C 65.433594 10.488281 63.34375 8.398438 60.773438 8.398438 C 58.203125 8.398438 56.113281 10.488281 56.113281 13.058594 C 56.113281 15.628906 58.203125 17.71875 60.773438 17.71875 Z M 60.773438 10.265625 C 62.3125 10.265625 63.566406 11.519531 63.566406 13.058594 C 63.566406 14.597656 62.3125 15.847656 60.773438 15.847656 C 59.234375 15.847656 57.980469 14.597656 57.980469 13.058594 C 57.980469 11.519531 59.234375 10.265625 60.773438 10.265625 Z M 60.773438 34.578125 C 58.203125 34.578125 56.113281 36.664062 56.113281 39.234375 C 56.113281 41.804688 58.203125 43.894531 60.773438 43.894531 C 63.34375 43.894531 65.433594 41.804688 65.433594 39.234375 C 65.433594 36.664062 63.34375 34.578125 60.773438 34.578125 Z M 60.773438 42.027344 C 59.234375 42.027344 57.980469 40.777344 57.980469 39.238281 C 57.980469 37.699219 59.234375 36.445312 60.773438 36.445312 C 62.3125 36.445312 63.566406 37.699219 63.566406 39.238281 C 63.566406 40.777344 62.3125 42.027344 60.773438 42.027344 Z M 60.773438 42.027344 " fill-opacity="1" fill-rule="nonzero"/></svg>