<svg xmlns="http://www.w3.org/2000/svg" xmlns:xlink="http://www.w3.org/1999/xlink" width="100" zoomAndPan="magnify" viewBox="0 0 75 74.999997" height="100" preserveAspectRatio="xMidYMid meet" version="1.0"><defs><clipPath id="7c293edf92"><path d="M 26 21 L 74.753906 21 L 74.753906 64 L 26 64 Z M 26 21 " clip-rule="nonzero"/></clipPath><clipPath id="03fde86457"><path d="M 0.503906 5.683594 L 49 5.683594 L 49 48 L 0.503906 48 Z M 0.503906 5.683594 " clip-rule="nonzero"/></clipPath><clipPath id="dcc5a97122"><path d="M 54 56 L 68 56 L 68 69.433594 L 54 69.433594 Z M 54 56 " clip-rule="nonzero"/></clipPath></defs><g clip-path="url(#7c293edf92)"><path fill="#221c35" d="M 74.445312 42.851562 C 74.445312 54.445312 63.800781 63.84375 50.671875 63.84375 C 37.546875 63.84375 26.902344 54.445312 26.902344 42.851562 C 26.902344 31.261719 37.546875 21.863281 50.671875 21.863281 C 63.800781 21.863281 74.445312 31.261719 74.445312 42.851562 " fill-opacity="1" fill-rule="nonzero"/></g><g clip-path="url(#03fde86457)"><path fill="#eb7950" d="M 48.070312 26.683594 C 48.070312 38.277344 37.429688 47.675781 24.300781 47.675781 C 11.171875 47.675781 0.53125 38.277344 0.53125 26.683594 C 0.53125 15.089844 11.171875 5.695312 24.300781 5.695312 C 37.429688 5.695312 48.070312 15.089844 48.070312 26.683594 " fill-opacity="1" fill-rule="nonzero"/></g><path fill="#ffffff" d="M 27.375 36.3125 C 27.375 37.316406 27.121094 38.058594 26.613281 38.535156 C 26.105469 39.011719 25.390625 39.253906 24.472656 39.253906 C 23.527344 39.253906 22.800781 39.011719 22.292969 38.535156 C 21.785156 38.058594 21.535156 37.316406 21.535156 36.3125 C 21.535156 35.300781 21.785156 34.5625 22.292969 34.101562 C 22.800781 33.640625 23.527344 33.410156 24.472656 33.410156 C 25.449219 33.410156 26.179688 33.640625 26.65625 34.101562 C 27.136719 34.5625 27.375 35.300781 27.375 36.3125 Z M 32.542969 21.410156 C 32.542969 22.023438 32.433594 22.582031 32.214844 23.089844 C 31.996094 23.597656 31.71875 24.0625 31.375 24.488281 C 31.03125 24.914062 30.652344 25.304688 30.234375 25.65625 C 29.8125 26.011719 29.40625 26.335938 29.011719 26.628906 C 28.617188 26.925781 28.25 27.199219 27.914062 27.453125 C 27.578125 27.707031 27.328125 27.945312 27.160156 28.171875 C 27.089844 28.265625 27.007812 28.410156 26.914062 28.605469 C 26.820312 28.800781 26.773438 29.019531 26.773438 29.269531 C 26.773438 29.90625 26.574219 30.429688 26.179688 30.84375 C 25.785156 31.257812 25.167969 31.464844 24.332031 31.464844 C 23.824219 31.464844 23.40625 31.382812 23.082031 31.226562 C 22.757812 31.066406 22.496094 30.867188 22.304688 30.632812 C 22.109375 30.394531 21.972656 30.140625 21.894531 29.871094 C 21.820312 29.597656 21.78125 29.351562 21.78125 29.128906 C 21.78125 28.324219 21.917969 27.652344 22.1875 27.109375 C 22.460938 26.566406 22.800781 26.097656 23.214844 25.703125 C 23.628906 25.304688 24.070312 24.960938 24.542969 24.667969 C 25.015625 24.371094 25.457031 24.0625 25.871094 23.746094 C 26.285156 23.425781 26.625 23.070312 26.898438 22.675781 C 27.167969 22.28125 27.304688 21.789062 27.304688 21.195312 C 27.304688 20.582031 27.199219 20.097656 26.992188 19.746094 C 26.789062 19.390625 26.535156 19.128906 26.234375 18.957031 C 25.933594 18.785156 25.621094 18.679688 25.296875 18.640625 C 24.96875 18.597656 24.695312 18.578125 24.472656 18.578125 C 23.882812 18.578125 23.410156 18.664062 23.054688 18.832031 C 22.703125 19.003906 22.433594 19.21875 22.25 19.480469 C 22.066406 19.738281 21.949219 20.027344 21.894531 20.339844 C 21.84375 20.652344 21.816406 20.949219 21.816406 21.230469 C 21.816406 21.691406 21.726562 22.085938 21.550781 22.410156 C 21.375 22.734375 21.152344 22.996094 20.886719 23.195312 C 20.621094 23.398438 20.332031 23.542969 20.019531 23.640625 C 19.707031 23.734375 19.421875 23.78125 19.160156 23.78125 C 18.359375 23.78125 17.710938 23.558594 17.214844 23.117188 C 16.71875 22.675781 16.472656 22.105469 16.472656 21.410156 C 16.472656 21.101562 16.507812 20.707031 16.578125 20.222656 C 16.648438 19.738281 16.78125 19.226562 16.984375 18.683594 C 17.183594 18.140625 17.46875 17.597656 17.832031 17.054688 C 18.199219 16.511719 18.675781 16.023438 19.265625 15.585938 C 19.855469 15.148438 20.578125 14.792969 21.425781 14.523438 C 22.277344 14.25 23.292969 14.117188 24.472656 14.117188 C 25.804688 14.117188 26.976562 14.296875 27.984375 14.65625 C 28.996094 15.015625 29.835938 15.519531 30.507812 16.160156 C 31.179688 16.804688 31.6875 17.570312 32.03125 18.460938 C 32.371094 19.351562 32.542969 20.335938 32.542969 21.410156 " fill-opacity="1" fill-rule="nonzero"/><path fill="#eb7950" d="M 9.40625 43.042969 C 11.164062 45.113281 9.675781 46.875 7.082031 50.769531 C 6.375 51.835938 7.363281 53.207031 8.601562 52.886719 C 12.085938 51.988281 16.472656 47.847656 20 47.332031 C 20 47.332031 18.761719 42.519531 16 41.265625 C 13.109375 39.953125 8.699219 42.207031 9.40625 43.042969 " fill-opacity="1" fill-rule="nonzero"/><g clip-path="url(#dcc5a97122)"><path fill="#221c35" d="M 65.335938 59.152344 C 63.578125 61.222656 65.066406 62.988281 67.65625 66.878906 C 68.367188 67.945312 67.378906 69.316406 66.140625 68.996094 C 62.65625 68.097656 58.269531 63.957031 54.742188 63.441406 C 54.742188 63.441406 55.976562 58.632812 58.742188 57.375 C 61.632812 56.0625 66.042969 58.320312 65.335938 59.152344 " fill-opacity="1" fill-rule="nonzero"/></g><path fill="#ffffff" d="M 42.832031 47.976562 C 42.832031 46.320312 41.355469 44.976562 39.527344 44.976562 C 37.703125 44.976562 36.226562 46.320312 36.226562 47.976562 C 36.226562 49.632812 37.703125 50.976562 39.527344 50.976562 C 41.355469 50.976562 42.832031 49.632812 42.832031 47.976562 " fill-opacity="1" fill-rule="nonzero"/><path fill="#ffffff" d="M 53.4375 47.976562 C 53.4375 46.320312 51.960938 44.976562 50.136719 44.976562 C 48.3125 44.976562 46.832031 46.320312 46.832031 47.976562 C 46.832031 49.632812 48.3125 50.976562 50.136719 50.976562 C 51.960938 50.976562 53.4375 49.632812 53.4375 47.976562 " fill-opacity="1" fill-rule="nonzero"/><path fill="#ffffff" d="M 64.046875 47.976562 C 64.046875 46.320312 62.566406 44.976562 60.742188 44.976562 C 58.917969 44.976562 57.4375 46.320312 57.4375 47.976562 C 57.4375 49.632812 58.917969 50.976562 60.742188 50.976562 C 62.566406 50.976562 64.046875 49.632812 64.046875 47.976562 " fill-opacity="1" fill-rule="nonzero"/></svg>