<svg xmlns="http://www.w3.org/2000/svg" xmlns:xlink="http://www.w3.org/1999/xlink" width="100" zoomAndPan="magnify" viewBox="0 0 75 74.999997" height="100" preserveAspectRatio="xMidYMid meet" version="1.0"><defs><clipPath id="37e5fdf1aa"><path d="M 0 4.21875 L 75 4.21875 L 75 56 L 0 56 Z M 0 4.21875 " clip-rule="nonzero"/></clipPath><clipPath id="f8e3426ac4"><path d="M 14 63 L 61 63 L 61 70.96875 L 14 70.96875 Z M 14 63 " clip-rule="nonzero"/></clipPath></defs><path fill="#f8fafb" d="M 21.152344 17.070312 L 21.152344 15.605469 C 26.648438 12.238281 31.78125 12.234375 36.84375 15.589844 L 36.84375 35.5 C 32.832031 32.597656 27.675781 32.707031 21.152344 35.828125 Z M 19.835938 17.726562 L 17.734375 17.726562 L 18.085938 38.046875 C 18.625 38.148438 19.960938 38.238281 22.710938 37.628906 C 23.015625 37.558594 30.292969 35.984375 33.335938 36.660156 C 33.851562 36.773438 34.132812 36.933594 34.519531 37.152344 C 34.8125 37.320312 35.03125 37.453125 35.203125 37.558594 C 35.847656 37.957031 35.847656 37.957031 37.503906 37.957031 C 39.152344 37.957031 39.152344 37.957031 39.796875 37.558594 C 39.929688 37.480469 40.070312 37.394531 40.25 37.292969 C 41.113281 36.78125 41.523438 36.621094 42.542969 36.53125 C 45.894531 36.242188 52.03125 37.570312 52.296875 37.628906 C 55.039062 38.238281 56.375 38.152344 56.921875 38.046875 L 57.273438 17.726562 L 55.167969 17.726562 L 55.167969 36.886719 C 55.167969 37.113281 55.046875 37.328125 54.851562 37.445312 C 54.660156 37.566406 54.414062 37.574219 54.210938 37.46875 C 47.054688 33.808594 41.886719 33.773438 37.953125 37.367188 C 37.949219 37.367188 37.949219 37.371094 37.945312 37.371094 C 37.894531 37.417969 37.835938 37.457031 37.769531 37.488281 C 37.679688 37.523438 37.59375 37.542969 37.503906 37.542969 C 37.328125 37.542969 37.148438 37.46875 37.019531 37.328125 C 36.773438 37.0625 36.789062 36.644531 37.0625 36.398438 C 37.417969 36.074219 37.78125 35.777344 38.15625 35.503906 L 38.15625 15.59375 C 38.0625 15.65625 37.972656 15.71875 37.878906 15.78125 C 37.578125 15.988281 37.167969 15.914062 36.957031 15.613281 C 36.753906 15.316406 36.828125 14.902344 37.128906 14.699219 C 37.253906 14.613281 37.378906 14.527344 37.503906 14.445312 C 31.96875 10.8125 26.125 10.890625 20.144531 14.683594 C 19.953125 14.808594 19.835938 15.015625 19.835938 15.238281 L 19.835938 16.410156 L 20.496094 16.410156 C 20.859375 16.410156 21.152344 16.707031 21.152344 17.070312 C 21.152344 17.433594 20.859375 17.726562 20.496094 17.726562 Z M 19.835938 17.726562 " fill-opacity="1" fill-rule="evenodd"/><path fill="#221c35" d="M 46.996094 65.300781 L 28.003906 65.300781 C 27.796875 65.300781 27.609375 65.207031 27.484375 65.042969 C 27.355469 64.882812 27.316406 64.671875 27.371094 64.472656 L 30.019531 54.34375 C 30.105469 53.992188 30.46875 53.78125 30.824219 53.875 C 31.175781 53.964844 31.386719 54.328125 31.292969 54.679688 L 28.859375 63.980469 L 46.144531 63.980469 L 43.707031 54.679688 C 43.621094 54.328125 43.832031 53.964844 44.179688 53.875 C 44.53125 53.78125 44.894531 53.992188 44.988281 54.34375 L 47.636719 64.472656 C 47.683594 64.671875 47.644531 64.882812 47.523438 65.042969 C 47.390625 65.207031 47.203125 65.300781 46.996094 65.300781 Z M 46.996094 65.300781 " fill-opacity="1" fill-rule="nonzero"/><g clip-path="url(#37e5fdf1aa)"><path fill="#221c35" d="M 4.300781 5.539062 C 2.667969 5.539062 1.332031 6.867188 1.332031 8.503906 L 1.332031 50.886719 C 1.332031 52.519531 2.667969 53.851562 4.300781 53.851562 L 70.703125 53.851562 C 72.339844 53.851562 73.675781 52.519531 73.675781 50.886719 L 73.675781 6.933594 C 73.675781 6.164062 73.039062 5.539062 72.277344 5.539062 Z M 70.703125 55.171875 L 4.300781 55.171875 C 1.933594 55.171875 0.0117188 53.25 0.0117188 50.886719 L 0.0117188 8.503906 C 0.0117188 6.140625 1.933594 4.21875 4.300781 4.21875 L 72.277344 4.21875 C 73.777344 4.21875 74.988281 5.4375 74.988281 6.933594 L 74.988281 50.886719 C 74.988281 53.25 73.066406 55.171875 70.703125 55.171875 Z M 70.703125 55.171875 " fill-opacity="1" fill-rule="nonzero"/></g><g clip-path="url(#f8e3426ac4)"><path fill="#221c35" d="M 15.519531 69.460938 L 59.480469 69.460938 L 59.480469 67.144531 C 59.480469 66.128906 58.648438 65.300781 57.636719 65.300781 L 17.363281 65.300781 C 16.34375 65.300781 15.519531 66.128906 15.519531 67.144531 Z M 60.136719 70.777344 L 14.859375 70.777344 C 14.496094 70.777344 14.199219 70.484375 14.199219 70.117188 L 14.199219 67.144531 C 14.199219 65.402344 15.621094 63.984375 17.363281 63.984375 L 57.636719 63.984375 C 59.378906 63.984375 60.796875 65.402344 60.796875 67.144531 L 60.796875 70.117188 C 60.796875 70.484375 60.503906 70.777344 60.132812 70.777344 Z M 60.136719 70.777344 " fill-opacity="1" fill-rule="nonzero"/></g><path fill="#221c35" d="M 74.328125 46.988281 L 0.671875 46.988281 C 0.3125 46.988281 0.0195312 46.691406 0.0195312 46.328125 C 0.0195312 45.964844 0.3125 45.671875 0.671875 45.671875 L 74.328125 45.671875 C 74.695312 45.671875 74.988281 45.964844 74.988281 46.328125 C 74.988281 46.691406 74.695312 46.988281 74.328125 46.988281 Z M 74.328125 46.988281 " fill-opacity="1" fill-rule="nonzero"/><path fill="#221c35" d="M 21.152344 15.605469 L 21.152344 35.828125 C 27.675781 32.707031 32.832031 32.597656 36.84375 35.5 L 36.84375 15.589844 C 31.78125 12.234375 26.648438 12.238281 21.152344 15.605469 Z M 37.503906 37.542969 C 37.339844 37.542969 37.183594 37.484375 37.0625 37.371094 C 33.117188 33.773438 27.949219 33.804688 20.796875 37.472656 C 20.59375 37.574219 20.347656 37.566406 20.148438 37.445312 C 19.960938 37.328125 19.835938 37.113281 19.835938 36.886719 L 19.835938 15.238281 C 19.835938 15.015625 19.953125 14.808594 20.144531 14.6875 C 26.257812 10.804688 32.230469 10.8125 37.878906 14.699219 C 38.054688 14.824219 38.15625 15.023438 38.15625 15.238281 L 38.15625 36.886719 C 38.15625 37.148438 38.007812 37.382812 37.769531 37.488281 C 37.679688 37.523438 37.59375 37.542969 37.503906 37.542969 Z M 37.503906 37.542969 " fill-opacity="1" fill-rule="nonzero"/><path fill="#221c35" d="M 37.503906 37.542969 C 37.328125 37.542969 37.148438 37.472656 37.019531 37.328125 C 36.773438 37.0625 36.789062 36.644531 37.0625 36.398438 C 41.214844 32.605469 46.71875 32.414062 53.847656 35.828125 L 53.847656 15.605469 C 48.257812 12.179688 43.027344 12.234375 37.878906 15.78125 C 37.578125 15.988281 37.167969 15.914062 36.957031 15.613281 C 36.753906 15.316406 36.828125 14.902344 37.128906 14.699219 C 42.773438 10.8125 48.742188 10.804688 54.863281 14.6875 C 55.054688 14.808594 55.167969 15.015625 55.167969 15.238281 L 55.167969 36.886719 C 55.167969 37.113281 55.046875 37.328125 54.851562 37.445312 C 54.660156 37.566406 54.414062 37.574219 54.210938 37.472656 C 47.050781 33.804688 41.882812 33.773438 37.945312 37.371094 C 37.816406 37.484375 37.660156 37.542969 37.503906 37.542969 Z M 37.503906 37.542969 " fill-opacity="1" fill-rule="nonzero"/><path fill="#221c35" d="M 24.664062 21.476562 C 24.425781 21.476562 24.195312 21.34375 24.078125 21.117188 C 23.917969 20.792969 24.046875 20.398438 24.371094 20.230469 C 24.570312 20.128906 29.378906 17.738281 33.574219 19.414062 C 33.914062 19.550781 34.078125 19.933594 33.941406 20.269531 C 33.804688 20.605469 33.425781 20.769531 33.082031 20.636719 C 29.453125 19.183594 25.007812 21.382812 24.964844 21.40625 C 24.871094 21.453125 24.769531 21.476562 24.664062 21.476562 Z M 24.664062 21.476562 " fill-opacity="1" fill-rule="nonzero"/><path fill="#221c35" d="M 24.664062 24.941406 C 24.425781 24.941406 24.195312 24.808594 24.078125 24.578125 C 23.917969 24.253906 24.046875 23.859375 24.371094 23.695312 C 24.570312 23.59375 29.378906 21.203125 33.574219 22.878906 C 33.914062 23.011719 34.078125 23.398438 33.941406 23.734375 C 33.804688 24.070312 33.425781 24.234375 33.082031 24.097656 C 29.453125 22.644531 25.007812 24.847656 24.964844 24.871094 C 24.871094 24.917969 24.769531 24.941406 24.664062 24.941406 Z M 24.664062 24.941406 " fill-opacity="1" fill-rule="nonzero"/><path fill="#221c35" d="M 24.664062 28.402344 C 24.425781 28.402344 24.195312 28.269531 24.078125 28.042969 C 23.917969 27.71875 24.046875 27.320312 24.371094 27.160156 C 24.570312 27.058594 29.378906 24.664062 33.574219 26.34375 C 33.914062 26.476562 34.078125 26.859375 33.941406 27.195312 C 33.804688 27.535156 33.425781 27.695312 33.082031 27.5625 C 29.453125 26.109375 25.007812 28.308594 24.964844 28.332031 C 24.871094 28.378906 24.769531 28.402344 24.664062 28.402344 Z M 24.664062 28.402344 " fill-opacity="1" fill-rule="nonzero"/><path fill="#221c35" d="M 50.335938 21.476562 C 50.238281 21.476562 50.136719 21.453125 50.042969 21.40625 C 49.964844 21.371094 45.539062 19.1875 41.917969 20.636719 C 41.582031 20.769531 41.203125 20.605469 41.066406 20.269531 C 40.929688 19.933594 41.09375 19.550781 41.433594 19.414062 C 45.621094 17.738281 50.429688 20.128906 50.632812 20.230469 C 50.960938 20.398438 51.089844 20.792969 50.921875 21.117188 C 50.8125 21.34375 50.578125 21.476562 50.335938 21.476562 Z M 50.335938 21.476562 " fill-opacity="1" fill-rule="nonzero"/><path fill="#221c35" d="M 50.335938 24.941406 C 50.238281 24.941406 50.136719 24.917969 50.042969 24.871094 C 49.964844 24.832031 45.539062 22.648438 41.917969 24.097656 C 41.582031 24.234375 41.203125 24.070312 41.066406 23.734375 C 40.929688 23.398438 41.09375 23.011719 41.433594 22.878906 C 45.621094 21.203125 50.429688 23.59375 50.632812 23.695312 C 50.960938 23.859375 51.089844 24.253906 50.921875 24.578125 C 50.8125 24.808594 50.578125 24.941406 50.335938 24.941406 Z M 50.335938 24.941406 " fill-opacity="1" fill-rule="nonzero"/><path fill="#221c35" d="M 50.335938 28.402344 C 50.238281 28.402344 50.136719 28.378906 50.042969 28.332031 C 49.964844 28.296875 45.539062 26.113281 41.917969 27.5625 C 41.582031 27.695312 41.203125 27.535156 41.066406 27.195312 C 40.929688 26.859375 41.09375 26.476562 41.433594 26.34375 C 45.621094 24.664062 50.429688 27.058594 50.632812 27.160156 C 50.960938 27.320312 51.089844 27.71875 50.921875 28.042969 C 50.8125 28.269531 50.578125 28.402344 50.335938 28.402344 Z M 50.335938 28.402344 " fill-opacity="1" fill-rule="nonzero"/><path fill="#221c35" d="M 55.988281 39.441406 C 55.089844 39.441406 53.808594 39.3125 52.007812 38.914062 C 51.949219 38.898438 45.804688 37.566406 42.660156 37.84375 C 41.855469 37.910156 41.625 38.007812 40.914062 38.425781 C 40.746094 38.523438 40.609375 38.605469 40.488281 38.679688 C 39.546875 39.257812 39.382812 39.273438 37.503906 39.273438 C 37.136719 39.273438 36.84375 38.976562 36.84375 38.613281 C 36.84375 38.25 37.136719 37.957031 37.503906 37.957031 C 39.152344 37.957031 39.152344 37.957031 39.796875 37.558594 C 39.929688 37.480469 40.070312 37.394531 40.246094 37.292969 C 41.113281 36.78125 41.523438 36.621094 42.542969 36.53125 C 45.894531 36.242188 52.03125 37.570312 52.296875 37.628906 C 55.039062 38.238281 56.375 38.148438 56.921875 38.046875 L 57.273438 17.726562 L 54.507812 17.726562 C 54.148438 17.726562 53.847656 17.433594 53.847656 17.070312 C 53.847656 16.707031 54.148438 16.410156 54.507812 16.410156 L 57.941406 16.410156 C 58.117188 16.410156 58.289062 16.480469 58.410156 16.609375 C 58.535156 16.734375 58.601562 16.90625 58.601562 17.082031 L 58.226562 38.535156 C 58.222656 38.746094 58.117188 38.941406 57.949219 39.066406 C 57.769531 39.183594 57.253906 39.441406 55.988281 39.441406 Z M 55.988281 39.441406 " fill-opacity="1" fill-rule="nonzero"/><path fill="#221c35" d="M 19.019531 39.441406 C 17.753906 39.441406 17.234375 39.183594 17.058594 39.066406 C 16.886719 38.941406 16.777344 38.746094 16.777344 38.535156 L 16.40625 17.082031 C 16.40625 16.90625 16.464844 16.734375 16.589844 16.609375 C 16.71875 16.480469 16.882812 16.410156 17.058594 16.410156 L 20.496094 16.410156 C 20.859375 16.410156 21.152344 16.707031 21.152344 17.070312 C 21.152344 17.433594 20.859375 17.726562 20.496094 17.726562 L 17.734375 17.726562 L 18.085938 38.046875 C 18.625 38.148438 19.960938 38.238281 22.710938 37.628906 C 23.015625 37.558594 30.292969 35.984375 33.335938 36.660156 C 33.851562 36.773438 34.132812 36.933594 34.519531 37.152344 C 34.8125 37.320312 35.03125 37.453125 35.203125 37.558594 C 35.847656 37.957031 35.847656 37.957031 37.503906 37.957031 C 37.863281 37.957031 38.15625 38.25 38.15625 38.613281 C 38.15625 38.976562 37.863281 39.273438 37.503906 39.273438 C 35.625 39.273438 35.460938 39.257812 34.511719 38.679688 C 34.351562 38.578125 34.144531 38.453125 33.878906 38.304688 C 33.527344 38.101562 33.371094 38.011719 33.050781 37.941406 C 30.292969 37.332031 23.066406 38.898438 22.992188 38.914062 C 21.191406 39.3125 19.910156 39.441406 19.019531 39.441406 Z M 19.019531 39.441406 " fill-opacity="1" fill-rule="nonzero"/><path fill="#221c35" d="M 37.503906 49.472656 C 36.980469 49.472656 36.554688 49.898438 36.554688 50.421875 C 36.554688 50.941406 36.980469 51.371094 37.503906 51.371094 C 38.027344 51.371094 38.449219 50.941406 38.449219 50.421875 C 38.449219 49.898438 38.027344 49.472656 37.503906 49.472656 Z M 37.503906 52.683594 C 36.257812 52.683594 35.242188 51.667969 35.242188 50.421875 C 35.242188 49.171875 36.257812 48.15625 37.503906 48.15625 C 38.75 48.15625 39.765625 49.171875 39.765625 50.421875 C 39.765625 51.667969 38.75 52.683594 37.503906 52.683594 Z M 37.503906 52.683594 " fill-opacity="1" fill-rule="nonzero"/><path fill="#ebd8d0" d="M 16.777344 38.535156 L 16.40625 17.082031 C 16.40625 16.90625 16.464844 16.734375 16.589844 16.609375 C 16.71875 16.480469 16.882812 16.410156 17.058594 16.410156 L 19.835938 16.410156 L 19.835938 15.238281 C 19.835938 15.015625 19.953125 14.808594 20.144531 14.6875 C 26.125 10.890625 31.96875 10.8125 37.503906 14.445312 C 43.039062 10.8125 48.875 10.890625 54.863281 14.6875 C 55.054688 14.808594 55.167969 15.015625 55.167969 15.238281 L 55.167969 16.410156 L 57.941406 16.410156 C 58.117188 16.410156 58.289062 16.480469 58.410156 16.609375 C 58.535156 16.734375 58.601562 16.90625 58.601562 17.082031 L 58.226562 38.535156 C 58.222656 38.746094 58.117188 38.941406 57.949219 39.066406 C 57.769531 39.183594 57.253906 39.441406 55.988281 39.441406 C 55.089844 39.441406 53.808594 39.3125 52.011719 38.914062 C 51.949219 38.898438 45.804688 37.566406 42.660156 37.84375 C 41.855469 37.910156 41.625 38.007812 40.914062 38.425781 C 40.746094 38.523438 40.609375 38.605469 40.488281 38.679688 C 39.546875 39.257812 39.382812 39.273438 37.503906 39.273438 C 35.625 39.273438 35.460938 39.257812 34.511719 38.679688 C 34.351562 38.582031 34.144531 38.453125 33.878906 38.304688 C 33.527344 38.101562 33.371094 38.011719 33.050781 37.945312 C 30.292969 37.332031 23.066406 38.898438 22.992188 38.914062 C 21.191406 39.3125 19.910156 39.441406 19.019531 39.441406 C 17.753906 39.441406 17.234375 39.183594 17.058594 39.066406 C 16.886719 38.941406 16.777344 38.746094 16.777344 38.535156 Z M 1.332031 45.671875 L 73.671875 45.671875 L 73.671875 6.933594 C 73.671875 6.164062 73.039062 5.539062 72.277344 5.539062 L 4.300781 5.539062 C 2.667969 5.539062 1.332031 6.867188 1.332031 8.503906 Z M 1.332031 45.671875 " fill-opacity="1" fill-rule="evenodd"/><path fill="#f8fafb" d="M 21.152344 17.070312 L 21.152344 35.828125 C 27.675781 32.707031 32.832031 32.597656 36.84375 35.5 L 36.84375 15.589844 C 31.78125 12.234375 26.648438 12.238281 21.152344 15.605469 Z M 24.664062 28.402344 C 24.425781 28.402344 24.195312 28.269531 24.078125 28.042969 C 23.917969 27.71875 24.046875 27.320312 24.371094 27.160156 C 24.570312 27.058594 29.378906 24.664062 33.574219 26.34375 C 33.914062 26.476562 34.078125 26.859375 33.941406 27.195312 C 33.804688 27.535156 33.425781 27.695312 33.082031 27.5625 C 29.453125 26.105469 25.007812 28.308594 24.964844 28.332031 C 24.871094 28.378906 24.769531 28.402344 24.664062 28.402344 Z M 24.664062 24.941406 C 24.425781 24.941406 24.195312 24.808594 24.078125 24.578125 C 23.917969 24.253906 24.046875 23.859375 24.371094 23.695312 C 24.570312 23.59375 29.378906 21.203125 33.574219 22.878906 C 33.914062 23.011719 34.078125 23.398438 33.941406 23.734375 C 33.804688 24.070312 33.425781 24.234375 33.082031 24.097656 C 29.453125 22.644531 25.007812 24.847656 24.964844 24.871094 C 24.871094 24.917969 24.769531 24.941406 24.664062 24.941406 Z M 24.664062 21.476562 C 24.425781 21.476562 24.195312 21.34375 24.078125 21.117188 C 23.917969 20.792969 24.046875 20.398438 24.371094 20.230469 C 24.570312 20.128906 29.378906 17.738281 33.574219 19.414062 C 33.914062 19.550781 34.078125 19.933594 33.941406 20.269531 C 33.804688 20.605469 33.425781 20.769531 33.082031 20.636719 C 29.453125 19.183594 25.007812 21.382812 24.964844 21.40625 C 24.871094 21.453125 24.769531 21.476562 24.664062 21.476562 Z M 24.664062 21.476562 " fill-opacity="1" fill-rule="evenodd"/><path fill="#f8fafb" d="M 38.15625 15.59375 L 38.15625 35.503906 C 42.167969 32.597656 47.328125 32.707031 53.847656 35.828125 L 53.847656 15.605469 C 48.359375 12.238281 43.214844 12.234375 38.15625 15.59375 Z M 50.335938 28.402344 C 50.238281 28.402344 50.136719 28.378906 50.042969 28.332031 C 49.964844 28.292969 45.539062 26.113281 41.917969 27.5625 C 41.582031 27.695312 41.203125 27.535156 41.066406 27.195312 C 40.929688 26.859375 41.09375 26.476562 41.433594 26.34375 C 45.621094 24.664062 50.429688 27.058594 50.632812 27.160156 C 50.960938 27.320312 51.089844 27.71875 50.921875 28.042969 C 50.8125 28.269531 50.578125 28.402344 50.335938 28.402344 Z M 41.917969 24.097656 C 41.582031 24.234375 41.203125 24.070312 41.066406 23.734375 C 40.929688 23.398438 41.09375 23.011719 41.433594 22.878906 C 45.621094 21.203125 50.429688 23.59375 50.632812 23.695312 C 50.960938 23.859375 51.089844 24.253906 50.921875 24.578125 C 50.8125 24.808594 50.578125 24.941406 50.335938 24.941406 C 50.238281 24.941406 50.136719 24.917969 50.042969 24.871094 C 49.964844 24.832031 45.539062 22.648438 41.917969 24.097656 Z M 41.917969 20.636719 C 41.582031 20.769531 41.203125 20.605469 41.066406 20.269531 C 40.929688 19.933594 41.09375 19.550781 41.433594 19.414062 C 45.621094 17.738281 50.429688 20.128906 50.632812 20.230469 C 50.960938 20.398438 51.089844 20.792969 50.921875 21.117188 C 50.8125 21.34375 50.578125 21.476562 50.335938 21.476562 C 50.238281 21.476562 50.136719 21.453125 50.042969 21.40625 C 49.964844 21.371094 45.539062 19.1875 41.917969 20.636719 Z M 41.917969 20.636719 " fill-opacity="1" fill-rule="evenodd"/><path fill="#f8fafb" d="M 73.675781 46.988281 L 1.332031 46.988281 L 1.332031 50.886719 C 1.332031 52.519531 2.667969 53.851562 4.300781 53.851562 L 70.707031 53.851562 C 72.339844 53.851562 73.675781 52.519531 73.675781 50.886719 Z M 35.242188 50.421875 C 35.242188 49.171875 36.257812 48.15625 37.503906 48.15625 C 38.75 48.15625 39.765625 49.171875 39.765625 50.421875 C 39.765625 51.667969 38.75 52.683594 37.503906 52.683594 C 36.257812 52.683594 35.242188 51.667969 35.242188 50.421875 Z M 35.242188 50.421875 " fill-opacity="1" fill-rule="evenodd"/><path fill="#ebd8d0" d="M 46.996094 65.300781 L 17.363281 65.300781 C 16.34375 65.300781 15.519531 66.128906 15.519531 67.144531 L 15.519531 69.460938 L 59.480469 69.460938 L 59.480469 67.144531 C 59.480469 66.128906 58.648438 65.300781 57.636719 65.300781 Z M 46.996094 65.300781 " fill-opacity="1" fill-rule="evenodd"/><path fill="#f8fafb" d="M 28.859375 63.980469 L 46.144531 63.980469 L 43.835938 55.171875 L 31.164062 55.171875 Z M 28.859375 63.980469 " fill-opacity="1" fill-rule="evenodd"/><path fill="#ebd8d0" d="M 37.503906 51.371094 C 38.027344 51.371094 38.449219 50.941406 38.449219 50.421875 C 38.449219 49.898438 38.027344 49.472656 37.503906 49.472656 C 36.980469 49.472656 36.554688 49.898438 36.554688 50.421875 C 36.554688 50.941406 36.980469 51.371094 37.503906 51.371094 Z M 37.503906 51.371094 " fill-opacity="1" fill-rule="evenodd"/></svg>