<svg xmlns="http://www.w3.org/2000/svg" xmlns:xlink="http://www.w3.org/1999/xlink" width="100" zoomAndPan="magnify" viewBox="0 0 75 74.999997" height="100" preserveAspectRatio="xMidYMid meet" version="1.0"><path fill="#221c35" d="M 27.539062 9.960938 C 27.539062 15.46875 31.992188 19.921875 37.5 19.921875 C 43.007812 19.921875 47.460938 15.46875 47.460938 9.960938 C 47.460938 4.453125 43.007812 0 37.5 0 C 31.992188 0 27.539062 4.453125 27.539062 9.960938 Z M 45.117188 9.960938 C 45.117188 14.179688 41.71875 17.578125 37.5 17.578125 C 33.28125 17.578125 29.882812 14.179688 29.882812 9.960938 C 29.882812 5.742188 33.28125 2.34375 37.5 2.34375 C 41.71875 2.34375 45.117188 5.742188 45.117188 9.960938 Z M 45.117188 9.960938 " fill-opacity="1" fill-rule="nonzero"/><path fill="#221c35" d="M 70.3125 35.742188 L 65.625 35.742188 L 65.625 29.824219 L 58.066406 24.785156 C 57.539062 24.433594 56.777344 24.550781 56.425781 25.136719 C 56.074219 25.722656 56.191406 26.425781 56.777344 26.777344 L 63.28125 31.113281 L 63.28125 35.742188 L 55.664062 35.742188 L 55.664062 33.046875 C 55.664062 26.835938 52.03125 21.386719 46.757812 18.75 C 46.171875 19.394531 45.527344 19.980469 44.824219 20.449219 C 49.804688 22.558594 53.320312 27.421875 53.320312 33.046875 L 53.320312 35.742188 L 39.257812 35.742188 L 39.257812 29.882812 C 39.726562 29.414062 39.960938 28.828125 39.785156 28.183594 L 38.90625 24.726562 C 38.671875 23.789062 37.617188 23.203125 36.621094 23.496094 C 35.566406 23.789062 34.921875 24.785156 35.214844 25.722656 L 36.09375 29.179688 C 36.210938 29.648438 36.503906 30.058594 36.972656 30.234375 L 36.972656 35.742188 L 21.679688 35.742188 L 21.679688 33.046875 C 21.679688 27.421875 25.195312 22.558594 30.175781 20.449219 C 29.472656 19.921875 28.828125 19.394531 28.242188 18.75 C 22.96875 21.386719 19.335938 26.777344 19.335938 33.046875 L 19.335938 35.742188 L 11.71875 35.742188 L 11.71875 31.113281 L 18.222656 26.777344 C 18.75 26.425781 18.925781 25.664062 18.574219 25.136719 C 18.222656 24.609375 17.460938 24.433594 16.933594 24.785156 L 9.375 29.824219 L 9.375 35.742188 L 4.6875 35.742188 C 2.109375 35.742188 0 37.851562 0 40.429688 L 0 41.015625 C 0 43.59375 2.109375 45.703125 4.6875 45.703125 L 9.375 45.703125 L 9.375 70.371094 C 9.375 72.949219 11.484375 75 14.003906 75 L 60.9375 75 C 63.515625 75 65.566406 72.949219 65.566406 70.371094 L 65.566406 45.703125 L 70.253906 45.703125 C 72.832031 45.703125 74.941406 43.59375 74.941406 41.015625 L 74.941406 40.429688 C 75 37.851562 72.890625 35.742188 70.3125 35.742188 Z M 63.28125 70.371094 C 63.28125 71.660156 62.226562 72.65625 60.996094 72.65625 L 14.003906 72.65625 C 12.714844 72.65625 11.71875 71.601562 11.71875 70.371094 L 11.71875 45.703125 L 63.28125 45.703125 Z M 72.65625 41.015625 C 72.65625 42.304688 71.601562 43.359375 70.3125 43.359375 L 4.6875 43.359375 C 3.398438 43.359375 2.34375 42.304688 2.34375 41.015625 L 2.34375 40.429688 C 2.34375 39.140625 3.398438 38.085938 4.6875 38.085938 L 70.3125 38.085938 C 71.601562 38.085938 72.65625 39.140625 72.65625 40.429688 Z M 72.65625 41.015625 " fill-opacity="1" fill-rule="nonzero"/><path fill="#221c35" d="M 32.8125 66.210938 C 33.457031 66.210938 33.984375 65.683594 33.984375 65.039062 L 33.984375 52.734375 C 33.984375 52.089844 33.457031 51.5625 32.8125 51.5625 C 32.167969 51.5625 31.640625 52.089844 31.640625 52.734375 L 31.640625 65.039062 C 31.640625 65.683594 32.167969 66.210938 32.8125 66.210938 Z M 32.8125 66.210938 " fill-opacity="1" fill-rule="nonzero"/><path fill="#221c35" d="M 37.5 66.210938 C 38.144531 66.210938 38.671875 65.683594 38.671875 65.039062 L 38.671875 52.734375 C 38.671875 52.089844 38.144531 51.5625 37.5 51.5625 C 36.855469 51.5625 36.328125 52.089844 36.328125 52.734375 L 36.328125 65.039062 C 36.328125 65.683594 36.855469 66.210938 37.5 66.210938 Z M 37.5 66.210938 " fill-opacity="1" fill-rule="nonzero"/><path fill="#221c35" d="M 42.1875 66.210938 C 42.832031 66.210938 43.359375 65.683594 43.359375 65.039062 L 43.359375 52.734375 C 43.359375 52.089844 42.832031 51.5625 42.1875 51.5625 C 41.542969 51.5625 41.015625 52.089844 41.015625 52.734375 L 41.015625 65.039062 C 41.015625 65.683594 41.542969 66.210938 42.1875 66.210938 Z M 42.1875 66.210938 " fill-opacity="1" fill-rule="nonzero"/></svg>