<svg xmlns="http://www.w3.org/2000/svg" xmlns:xlink="http://www.w3.org/1999/xlink" width="100" zoomAndPan="magnify" viewBox="0 0 75 74.999997" height="100" preserveAspectRatio="xMidYMid meet" version="1.0"><defs><clipPath id="b76430b03e"><path d="M 5.855469 8.230469 L 68.855469 8.230469 L 68.855469 66.730469 L 5.855469 66.730469 Z M 5.855469 8.230469 " clip-rule="nonzero"/></clipPath></defs><g clip-path="url(#b76430b03e)"><path fill="#221c35" d="M 52.136719 25.179688 C 52.136719 24.746094 52.492188 24.390625 52.925781 24.390625 L 63.914062 24.390625 C 64.347656 24.390625 64.703125 24.746094 64.703125 25.179688 C 64.703125 25.613281 64.347656 25.96875 63.914062 25.96875 L 52.925781 25.96875 C 52.488281 25.96875 52.136719 25.613281 52.136719 25.179688 Z M 52.136719 21.546875 C 52.136719 21.109375 52.492188 20.757812 52.925781 20.757812 L 63.914062 20.757812 C 64.347656 20.757812 64.703125 21.109375 64.703125 21.546875 C 64.703125 21.980469 64.347656 22.332031 63.914062 22.332031 L 52.925781 22.332031 C 52.488281 22.332031 52.136719 21.980469 52.136719 21.546875 Z M 52.136719 17.914062 C 52.136719 17.476562 52.492188 17.125 52.925781 17.125 L 63.914062 17.125 C 64.347656 17.125 64.703125 17.476562 64.703125 17.914062 C 64.703125 18.347656 64.347656 18.699219 63.914062 18.699219 L 52.925781 18.699219 C 52.488281 18.699219 52.136719 18.347656 52.136719 17.914062 Z M 52.136719 14.28125 C 52.136719 13.84375 52.492188 13.492188 52.925781 13.492188 L 63.914062 13.492188 C 64.347656 13.492188 64.703125 13.84375 64.703125 14.28125 C 64.703125 14.714844 64.347656 15.066406 63.914062 15.066406 L 52.925781 15.066406 C 52.488281 15.066406 52.136719 14.714844 52.136719 14.28125 Z M 56.429688 32.898438 L 59.152344 34.382812 L 56.429688 35.867188 Z M 55.238281 37.867188 C 55.363281 37.941406 55.5 37.980469 55.640625 37.980469 C 55.769531 37.980469 55.898438 37.945312 56.019531 37.882812 L 61.175781 35.074219 C 61.429688 34.9375 61.589844 34.671875 61.589844 34.382812 C 61.589844 34.09375 61.429688 33.828125 61.175781 33.691406 L 56.019531 30.878906 C 55.773438 30.746094 55.476562 30.753906 55.238281 30.894531 C 55 31.035156 54.855469 31.292969 54.855469 31.574219 L 54.855469 37.191406 C 54.855469 37.46875 55 37.726562 55.238281 37.867188 Z M 57.734375 28.988281 C 54.761719 28.988281 52.34375 31.40625 52.34375 34.382812 C 52.34375 37.355469 54.761719 39.773438 57.734375 39.773438 C 60.710938 39.773438 63.128906 37.355469 63.128906 34.382812 C 63.128906 31.40625 60.707031 28.988281 57.734375 28.988281 Z M 57.734375 41.347656 C 61.578125 41.347656 64.703125 38.226562 64.703125 34.382812 C 64.703125 30.539062 61.578125 27.414062 57.734375 27.414062 C 53.894531 27.414062 50.769531 30.539062 50.769531 34.382812 C 50.769531 38.226562 53.894531 41.347656 57.734375 41.347656 Z M 43.144531 29.253906 C 43.039062 29.679688 42.613281 29.933594 42.191406 29.832031 C 39.527344 29.171875 36.617188 29.273438 33.300781 30.140625 C 33.234375 30.160156 33.164062 30.167969 33.101562 30.167969 C 32.75 30.167969 32.429688 29.933594 32.339844 29.578125 C 32.226562 29.15625 32.480469 28.726562 32.902344 28.617188 C 36.480469 27.679688 39.644531 27.574219 42.570312 28.300781 C 42.996094 28.40625 43.25 28.832031 43.148438 29.253906 Z M 32.335938 25.96875 C 32.226562 25.546875 32.480469 25.117188 32.902344 25.007812 C 36.480469 24.070312 39.644531 23.964844 42.570312 24.691406 C 42.992188 24.796875 43.25 25.222656 43.144531 25.644531 C 43.039062 26.066406 42.613281 26.324219 42.191406 26.21875 C 39.527344 25.5625 36.617188 25.660156 33.300781 26.53125 C 33.234375 26.546875 33.164062 26.558594 33.101562 26.558594 C 32.75 26.558594 32.429688 26.320312 32.339844 25.96875 Z M 32.335938 22.355469 C 32.226562 21.9375 32.480469 21.507812 32.902344 21.394531 C 36.480469 20.460938 39.644531 20.355469 42.570312 21.078125 C 42.992188 21.183594 43.25 21.613281 43.144531 22.03125 C 43.039062 22.457031 42.613281 22.714844 42.191406 22.609375 C 39.527344 21.949219 36.617188 22.050781 33.300781 22.921875 C 33.234375 22.9375 33.164062 22.945312 33.101562 22.945312 C 32.75 22.945312 32.429688 22.714844 32.339844 22.359375 Z M 32.335938 18.746094 C 32.226562 18.324219 32.480469 17.894531 32.902344 17.78125 C 36.480469 16.847656 39.644531 16.742188 42.570312 17.46875 C 42.992188 17.574219 43.25 18 43.144531 18.421875 C 43.039062 18.84375 42.613281 19.101562 42.191406 18.996094 C 39.527344 18.339844 36.617188 18.441406 33.300781 19.308594 C 33.234375 19.324219 33.164062 19.335938 33.101562 19.335938 C 32.75 19.335938 32.429688 19.101562 32.339844 18.746094 Z M 16.46875 29.253906 C 16.363281 28.832031 16.625 28.40625 17.046875 28.300781 C 19.972656 27.578125 23.136719 27.679688 26.714844 28.617188 C 27.136719 28.726562 27.390625 29.15625 27.277344 29.578125 C 27.1875 29.933594 26.867188 30.167969 26.515625 30.167969 C 26.449219 30.167969 26.382812 30.160156 26.316406 30.140625 C 23 29.273438 20.089844 29.171875 17.425781 29.832031 C 17.003906 29.9375 16.574219 29.679688 16.472656 29.257812 Z M 16.46875 25.644531 C 16.363281 25.222656 16.625 24.796875 17.046875 24.691406 C 19.972656 23.964844 23.136719 24.070312 26.714844 25.007812 C 27.136719 25.117188 27.390625 25.546875 27.277344 25.96875 C 27.1875 26.320312 26.867188 26.558594 26.515625 26.558594 C 26.449219 26.558594 26.382812 26.546875 26.316406 26.53125 C 22.996094 25.664062 20.089844 25.5625 17.425781 26.21875 C 17.003906 26.324219 16.574219 26.066406 16.472656 25.644531 Z M 16.46875 22.03125 C 16.363281 21.609375 16.625 21.183594 17.046875 21.078125 C 19.972656 20.355469 23.136719 20.460938 26.714844 21.394531 C 27.136719 21.507812 27.390625 21.9375 27.277344 22.355469 C 27.1875 22.710938 26.867188 22.945312 26.515625 22.945312 C 26.449219 22.945312 26.382812 22.9375 26.316406 22.917969 C 23 22.050781 20.089844 21.949219 17.425781 22.609375 C 17.003906 22.714844 16.574219 22.453125 16.472656 22.03125 Z M 16.46875 18.421875 C 16.363281 18 16.625 17.574219 17.046875 17.46875 C 19.972656 16.746094 23.136719 16.847656 26.714844 17.785156 C 27.136719 17.894531 27.390625 18.324219 27.277344 18.746094 C 27.1875 19.101562 26.867188 19.335938 26.515625 19.335938 C 26.449219 19.335938 26.382812 19.324219 26.316406 19.308594 C 23 18.441406 20.089844 18.339844 17.425781 18.996094 C 17.003906 19.101562 16.574219 18.84375 16.472656 18.421875 Z M 11.855469 18.578125 L 11.855469 34.828125 C 11.855469 35.796875 12.539062 36.972656 13.515625 37.683594 C 14.171875 38.160156 14.839844 38.335938 15.34375 38.171875 C 20.230469 36.574219 23.542969 36.707031 28.972656 38.71875 C 29.542969 38.925781 30.074219 38.925781 30.640625 38.71875 C 36.074219 36.707031 39.382812 36.574219 44.269531 38.171875 C 44.773438 38.335938 45.441406 38.160156 46.097656 37.683594 C 47.074219 36.972656 47.761719 35.796875 47.761719 34.828125 L 47.761719 18.578125 C 47.761719 17.722656 47.3125 16.488281 46.136719 16.007812 C 46.152344 16.148438 46.160156 16.289062 46.160156 16.433594 L 46.160156 33.734375 C 46.160156 34.605469 45.789062 35.375 45.140625 35.84375 C 44.425781 36.359375 43.453125 36.472656 42.464844 36.148438 C 38.511719 34.851562 34.144531 35.257812 30.164062 37.289062 C 30.054688 37.34375 29.929688 37.371094 29.808594 37.371094 C 29.683594 37.371094 29.5625 37.34375 29.449219 37.289062 C 25.472656 35.257812 21.101562 34.851562 17.148438 36.148438 C 16.164062 36.472656 15.1875 36.359375 14.472656 35.84375 C 13.824219 35.375 13.453125 34.605469 13.453125 33.734375 L 13.453125 16.433594 C 13.453125 16.289062 13.464844 16.148438 13.476562 16.007812 C 12.300781 16.488281 11.855469 17.726562 11.855469 18.578125 Z M 15.027344 16.433594 L 15.027344 33.734375 C 15.027344 33.992188 15.09375 34.34375 15.398438 34.566406 C 15.699219 34.785156 16.15625 34.816406 16.65625 34.652344 C 18.339844 34.097656 20.085938 33.828125 21.847656 33.828125 C 24.253906 33.828125 26.6875 34.339844 29.019531 35.34375 L 29.019531 14.925781 C 24.269531 12.601562 19.976562 12.421875 16.257812 14.394531 C 15.476562 14.808594 15.03125 15.550781 15.03125 16.433594 Z M 43.359375 14.394531 C 39.636719 12.421875 35.347656 12.601562 30.597656 14.925781 L 30.597656 35.34375 C 34.636719 33.597656 38.980469 33.347656 42.957031 34.648438 C 43.457031 34.8125 43.917969 34.785156 44.21875 34.5625 C 44.523438 34.34375 44.585938 33.992188 44.585938 33.730469 L 44.585938 16.433594 C 44.585938 15.550781 44.140625 14.808594 43.359375 14.394531 Z M 12.59375 38.960938 C 13.664062 39.734375 14.84375 39.992188 15.835938 39.667969 C 20.324219 38.199219 23.382812 38.328125 28.421875 40.195312 C 28.882812 40.363281 29.34375 40.449219 29.804688 40.449219 C 30.269531 40.449219 30.730469 40.363281 31.1875 40.195312 C 36.230469 38.328125 39.289062 38.199219 43.777344 39.667969 C 44.769531 39.992188 45.949219 39.734375 47.019531 38.957031 C 48.425781 37.941406 49.335938 36.320312 49.335938 34.828125 L 49.335938 18.578125 C 49.335938 16.644531 47.992188 14.488281 45.5 14.253906 C 45.152344 13.742188 44.679688 13.308594 44.097656 13.003906 C 39.878906 10.765625 35.070312 10.953125 29.808594 13.558594 C 24.542969 10.953125 19.738281 10.765625 15.519531 13.003906 C 14.9375 13.3125 14.460938 13.742188 14.113281 14.253906 L 14.105469 14.253906 C 11.59375 14.492188 10.277344 16.609375 10.277344 18.578125 L 10.277344 34.828125 C 10.277344 36.320312 11.1875 37.941406 12.59375 38.960938 Z M 60.585938 50.582031 L 14.398438 50.582031 C 10.859375 50.582031 7.929688 47.929688 7.484375 44.511719 L 67.496094 44.511719 C 67.054688 47.929688 64.121094 50.582031 60.585938 50.582031 Z M 45.121094 60.28125 L 29.863281 60.28125 L 31.914062 52.160156 L 43.070312 52.160156 L 45.117188 60.28125 Z M 51.4375 63.492188 L 51.4375 65.128906 L 23.546875 65.128906 L 23.546875 63.492188 C 23.546875 62.589844 24.277344 61.855469 25.179688 61.855469 L 49.800781 61.855469 C 50.703125 61.855469 51.4375 62.589844 51.4375 63.492188 Z M 14.398438 9.875 C 10.554688 9.875 7.425781 13.003906 7.425781 16.847656 L 7.425781 42.933594 L 67.554688 42.933594 L 67.554688 16.847656 C 67.554688 13.003906 64.429688 9.875 60.585938 9.875 Z M 60.585938 8.296875 L 14.398438 8.296875 C 9.683594 8.296875 5.851562 12.132812 5.851562 16.847656 L 5.851562 43.613281 C 5.851562 48.324219 9.683594 52.160156 14.398438 52.160156 L 30.285156 52.160156 L 28.238281 60.28125 L 25.179688 60.28125 C 23.410156 60.28125 21.972656 61.71875 21.972656 63.492188 L 21.972656 65.914062 C 21.972656 66.351562 22.324219 66.703125 22.757812 66.703125 L 52.226562 66.703125 C 52.660156 66.703125 53.011719 66.347656 53.011719 65.914062 L 53.011719 63.492188 C 53.011719 61.71875 51.574219 60.28125 49.800781 60.28125 L 46.746094 60.28125 L 44.695312 52.160156 L 60.585938 52.160156 C 65.296875 52.160156 69.132812 48.324219 69.132812 43.613281 L 69.132812 16.847656 C 69.132812 12.132812 65.296875 8.296875 60.585938 8.296875 Z M 60.585938 8.296875 " fill-opacity="1" fill-rule="evenodd"/></g></svg>