<svg xmlns="http://www.w3.org/2000/svg" xmlns:xlink="http://www.w3.org/1999/xlink" width="100" zoomAndPan="magnify" viewBox="0 0 75 74.999997" height="100" preserveAspectRatio="xMidYMid meet" version="1.0"><defs><clipPath id="d6d4241fec"><path d="M 45 9.1875 L 56 9.1875 L 56 20 L 45 20 Z M 45 9.1875 " clip-rule="nonzero"/></clipPath></defs><path fill="#221c35" d="M 0 57.519531 L 7.386719 41.535156 L 10.957031 40.710938 L 7.503906 33.085938 L 15.078125 32.746094 L 15.148438 34.289062 L 9.855469 34.527344 L 12.539062 40.453125 L 70.902344 30.4375 L 71.292969 31.925781 Z M 8.472656 42.871094 L 2.953125 54.8125 L 62.457031 33.457031 L 11.625 42.179688 L 11.609375 42.148438 Z M 8.472656 42.871094 " fill-opacity="1" fill-rule="nonzero"/><path fill="#221c35" d="M 54.714844 32.515625 L 54.644531 30.972656 L 63.953125 30.554688 L 54.808594 29.144531 L 55.042969 27.617188 L 71.902344 30.214844 L 71.816406 31.75 Z M 54.714844 32.515625 " fill-opacity="1" fill-rule="nonzero"/><path fill="#221c35" d="M 7.675781 21.886719 L 7.914062 20.359375 L 19.640625 22.164062 L 19.402344 23.695312 Z M 7.675781 21.886719 " fill-opacity="1" fill-rule="nonzero"/><path fill="#221c35" d="M 17.976562 65.742188 L 13.46875 52.121094 L 14.9375 51.636719 L 18.824219 63.382812 L 71.375 30.5 L 72.195312 31.808594 Z M 17.976562 65.742188 " fill-opacity="1" fill-rule="nonzero"/><path fill="#221c35" d="M 7.023438 20.359375 L 8.566406 20.296875 L 9.097656 33.066406 L 7.554688 33.128906 Z M 7.023438 20.359375 " fill-opacity="1" fill-rule="nonzero"/><path fill="#221c35" d="M 14.972656 40.410156 L 13.433594 40.28125 C 14.363281 29.242188 17.136719 22.648438 21.679688 20.679688 C 23.574219 19.859375 25.761719 19.886719 28.011719 20.753906 C 29.671875 21.394531 30.789062 22.269531 30.835938 22.304688 L 29.875 23.519531 C 29.867188 23.511719 28.867188 22.734375 27.410156 22.179688 C 25.535156 21.464844 23.808594 21.441406 22.285156 22.101562 C 20.5625 22.851562 19.097656 24.5 17.929688 27 C 16.453125 30.15625 15.457031 34.671875 14.972656 40.410156 Z M 14.972656 40.410156 " fill-opacity="1" fill-rule="nonzero"/><path fill="#221c35" d="M 27.167969 38.695312 L 25.628906 38.550781 C 26.5625 28.636719 29.347656 22.542969 33.910156 20.429688 C 36.0625 19.433594 38.613281 19.371094 41.285156 20.25 C 43.265625 20.90625 44.617188 21.839844 44.671875 21.882812 L 43.789062 23.148438 C 43.777344 23.140625 42.535156 22.285156 40.753906 21.707031 C 38.445312 20.953125 36.355469 21 34.550781 21.839844 C 32.773438 22.664062 31.277344 24.273438 30.09375 26.625 C 28.632812 29.535156 27.648438 33.597656 27.167969 38.695312 Z M 27.167969 38.695312 " fill-opacity="1" fill-rule="nonzero"/><path fill="#221c35" d="M 40.253906 36.019531 C 40.253906 35.835938 40.238281 31.449219 41.761719 26.941406 C 42.675781 24.25 43.949219 22.082031 45.554688 20.496094 C 47.582031 18.484375 50.125 17.417969 53.109375 17.316406 L 71.863281 14.550781 C 72.832031 14.410156 73.796875 14.75 74.441406 15.460938 C 75.035156 16.117188 75.050781 16.742188 74.960938 17.152344 C 74.773438 18.011719 73.929688 18.75 72.390625 19.410156 C 72.316406 19.441406 72.25 19.492188 72.203125 19.554688 C 71.796875 20.074219 70.953125 21.050781 69.878906 21.738281 C 68 22.941406 66.5625 22.546875 65.6875 22.003906 C 65.398438 21.824219 65.039062 21.78125 64.699219 21.886719 L 57.84375 24.015625 L 57.835938 24.019531 C 57.695312 24.0625 55.871094 24.65625 55.761719 27.515625 L 55.761719 27.542969 L 55.277344 34.191406 L 53.734375 34.078125 L 54.21875 27.445312 C 54.300781 25.34375 55.144531 24.128906 55.835938 23.476562 C 56.554688 22.800781 57.265625 22.574219 57.425781 22.527344 L 64.238281 20.410156 C 65.007812 20.171875 65.835938 20.273438 66.503906 20.6875 C 66.773438 20.855469 67.59375 21.363281 69.042969 20.4375 C 69.960938 19.851562 70.707031 18.960938 70.984375 18.601562 C 71.191406 18.335938 71.46875 18.121094 71.785156 17.988281 C 73.296875 17.339844 73.441406 16.871094 73.449219 16.820312 C 73.472656 16.714844 73.359375 16.574219 73.292969 16.496094 C 72.996094 16.167969 72.546875 16.015625 72.089844 16.082031 L 53.246094 18.863281 L 53.203125 18.863281 C 48.472656 19.003906 45.121094 21.878906 43.238281 27.40625 C 41.789062 31.667969 41.800781 35.964844 41.800781 36.007812 Z M 40.253906 36.019531 " fill-opacity="1" fill-rule="nonzero"/><g clip-path="url(#d6d4241fec)"><path fill="#221c35" d="M 50.726562 19.066406 C 48.023438 19.066406 45.820312 16.867188 45.820312 14.164062 C 45.820312 11.457031 48.023438 9.257812 50.726562 9.257812 C 53.429688 9.257812 55.632812 11.457031 55.632812 14.164062 C 55.632812 16.867188 53.429688 19.066406 50.726562 19.066406 Z M 50.726562 10.804688 C 48.875 10.804688 47.367188 12.3125 47.367188 14.164062 C 47.367188 16.015625 48.875 17.523438 50.726562 17.523438 C 52.578125 17.523438 54.085938 16.015625 54.085938 14.164062 C 54.085938 12.3125 52.578125 10.804688 50.726562 10.804688 Z M 50.726562 10.804688 " fill-opacity="1" fill-rule="nonzero"/></g><path fill="#221c35" d="M 37.867188 20.703125 C 35.164062 20.703125 32.960938 18.503906 32.960938 15.796875 C 32.960938 13.09375 35.164062 10.894531 37.867188 10.894531 C 40.570312 10.894531 42.773438 13.09375 42.773438 15.796875 C 42.773438 18.503906 40.570312 20.703125 37.867188 20.703125 Z M 37.867188 12.441406 C 36.015625 12.441406 34.507812 13.945312 34.507812 15.796875 C 34.507812 17.648438 36.015625 19.15625 37.867188 19.15625 C 39.71875 19.15625 41.226562 17.648438 41.226562 15.796875 C 41.226562 13.945312 39.71875 12.441406 37.867188 12.441406 Z M 37.867188 12.441406 " fill-opacity="1" fill-rule="nonzero"/><path fill="#221c35" d="M 24.699219 21.410156 C 21.992188 21.410156 19.792969 19.210938 19.792969 16.503906 C 19.792969 13.800781 21.992188 11.601562 24.699219 11.601562 C 27.402344 11.601562 29.605469 13.800781 29.605469 16.503906 C 29.605469 19.210938 27.402344 21.410156 24.699219 21.410156 Z M 24.699219 13.148438 C 22.847656 13.148438 21.339844 14.652344 21.339844 16.503906 C 21.339844 18.355469 22.847656 19.863281 24.699219 19.863281 C 26.550781 19.863281 28.058594 18.355469 28.058594 16.503906 C 28.058594 14.652344 26.550781 13.148438 24.699219 13.148438 Z M 24.699219 13.148438 " fill-opacity="1" fill-rule="nonzero"/><path fill="#221c35" d="M 72.84375 31.023438 C 72.84375 31.277344 72.753906 31.496094 72.570312 31.679688 C 72.390625 31.859375 72.171875 31.949219 71.914062 31.949219 C 71.660156 31.949219 71.441406 31.859375 71.257812 31.679688 C 71.078125 31.496094 70.988281 31.277344 70.988281 31.023438 C 70.988281 30.765625 71.078125 30.546875 71.257812 30.367188 C 71.441406 30.183594 71.660156 30.09375 71.914062 30.09375 C 72.171875 30.09375 72.390625 30.183594 72.570312 30.367188 C 72.753906 30.546875 72.84375 30.765625 72.84375 31.023438 Z M 72.84375 31.023438 " fill-opacity="1" fill-rule="nonzero"/></svg>