<svg xmlns="http://www.w3.org/2000/svg" xmlns:xlink="http://www.w3.org/1999/xlink" width="100" zoomAndPan="magnify" viewBox="0 0 75 74.999997" height="100" preserveAspectRatio="xMidYMid meet" version="1.0"><defs><clipPath id="443e986d77"><path d="M 42 60 L 53 60 L 53 74.4375 L 42 74.4375 Z M 42 60 " clip-rule="nonzero"/></clipPath><clipPath id="48a620a5ed"><path d="M 21 0.9375 L 32 0.9375 L 32 14 L 21 14 Z M 21 0.9375 " clip-rule="nonzero"/></clipPath></defs><path fill="#221c35" d="M 37.09375 45.300781 C 32.628906 45.300781 28.992188 41.664062 28.992188 37.199219 C 28.992188 32.734375 32.628906 29.09375 37.09375 29.09375 C 41.5625 29.09375 45.199219 32.734375 45.199219 37.199219 C 45.199219 41.664062 41.5625 45.300781 37.09375 45.300781 Z M 37.09375 31.164062 C 33.765625 31.164062 31.058594 33.871094 31.058594 37.199219 C 31.058594 40.527344 33.765625 43.234375 37.09375 43.234375 C 40.421875 43.234375 43.128906 40.527344 43.128906 37.199219 C 43.128906 33.871094 40.421875 31.164062 37.09375 31.164062 Z M 37.09375 31.164062 " fill-opacity="1" fill-rule="nonzero"/><path fill="#221c35" d="M 69.199219 33.234375 C 68.699219 33.234375 68.25 32.871094 68.183594 32.351562 C 65.890625 17.472656 53.285156 6.28125 38.214844 5.75 C 37.648438 5.730469 37.199219 5.25 37.214844 4.679688 C 37.234375 4.109375 37.714844 3.660156 38.285156 3.679688 C 54.335938 4.246094 67.769531 16.179688 70.21875 32.027344 C 70.304688 32.59375 69.925781 33.113281 69.355469 33.199219 C 69.320312 33.234375 69.25 33.234375 69.199219 33.234375 Z M 69.199219 33.234375 " fill-opacity="1" fill-rule="nonzero"/><path fill="#221c35" d="M 4.660156 36.113281 C 4.644531 36.113281 4.609375 36.113281 4.59375 36.113281 C 4.023438 36.078125 3.59375 35.578125 3.628906 35.007812 C 4.09375 27.921875 6.730469 21.265625 11.28125 15.800781 C 15.765625 10.386719 21.714844 6.574219 28.472656 4.78125 C 29.023438 4.628906 29.59375 4.972656 29.730469 5.523438 C 29.886719 6.074219 29.542969 6.644531 28.992188 6.78125 C 15.921875 10.25 6.558594 21.644531 5.679688 35.144531 C 5.644531 35.699219 5.195312 36.113281 4.660156 36.113281 Z M 4.660156 36.113281 " fill-opacity="1" fill-rule="nonzero"/><path fill="#221c35" d="M 34.265625 70.613281 C 34.234375 70.613281 34.214844 70.613281 34.179688 70.613281 C 27.058594 69.992188 20.457031 67.183594 15.058594 62.476562 C 9.714844 57.820312 6.042969 51.714844 4.4375 44.855469 C 4.300781 44.300781 4.660156 43.734375 5.214844 43.613281 C 5.765625 43.472656 6.335938 43.835938 6.453125 44.386719 C 9.558594 57.683594 20.765625 67.390625 34.371094 68.5625 C 34.941406 68.613281 35.351562 69.113281 35.320312 69.683594 C 35.25 70.21875 34.800781 70.613281 34.265625 70.613281 Z M 34.265625 70.613281 " fill-opacity="1" fill-rule="nonzero"/><path fill="#221c35" d="M 45.492188 69.648438 C 45.027344 69.648438 44.613281 69.339844 44.492188 68.871094 C 44.335938 68.320312 44.664062 67.75 45.214844 67.613281 C 57.097656 64.441406 66.078125 54.578125 68.113281 42.457031 C 68.199219 41.886719 68.734375 41.507812 69.304688 41.613281 C 69.871094 41.699219 70.25 42.234375 70.148438 42.800781 C 67.976562 55.714844 58.40625 66.234375 45.75 69.613281 C 45.664062 69.632812 45.578125 69.648438 45.492188 69.648438 Z M 45.492188 69.648438 " fill-opacity="1" fill-rule="nonzero"/><path fill="#221c35" d="M 39.835938 57.027344 L 34.351562 57.027344 C 33.820312 57.027344 33.386719 56.628906 33.320312 56.097656 L 32.800781 51.214844 C 32.058594 50.992188 31.335938 50.699219 30.628906 50.355469 L 26.835938 53.40625 C 26.421875 53.734375 25.835938 53.699219 25.457031 53.335938 L 21.578125 49.457031 C 21.199219 49.078125 21.164062 48.492188 21.507812 48.078125 L 24.386719 44.507812 C 23.9375 43.734375 23.558594 42.921875 23.265625 42.078125 L 18.835938 41.59375 C 18.316406 41.542969 17.902344 41.09375 17.902344 40.558594 L 17.902344 35.09375 C 17.902344 34.558594 18.300781 34.128906 18.835938 34.058594 L 22.886719 33.628906 C 23.144531 32.59375 23.523438 31.59375 23.992188 30.644531 L 21.523438 27.578125 C 21.199219 27.164062 21.230469 26.578125 21.59375 26.199219 L 25.472656 22.316406 C 25.851562 21.9375 26.4375 21.902344 26.851562 22.25 L 29.699219 24.542969 C 30.714844 23.9375 31.820312 23.472656 32.957031 23.128906 L 33.335938 19.558594 C 33.386719 19.042969 33.835938 18.628906 34.371094 18.628906 L 39.855469 18.628906 C 40.386719 18.628906 40.820312 19.023438 40.886719 19.558594 L 41.265625 23.128906 C 42.40625 23.457031 43.492188 23.9375 44.527344 24.542969 L 47.371094 22.25 C 47.785156 21.921875 48.371094 21.957031 48.75 22.316406 L 52.628906 26.199219 C 53.007812 26.578125 53.042969 27.164062 52.699219 27.578125 L 50.234375 30.644531 C 50.714844 31.59375 51.078125 32.59375 51.335938 33.628906 L 55.390625 34.058594 C 55.90625 34.113281 56.320312 34.558594 56.320312 35.09375 L 56.320312 40.578125 C 56.320312 41.113281 55.921875 41.542969 55.390625 41.613281 L 50.957031 42.09375 C 50.664062 42.941406 50.285156 43.75 49.835938 44.527344 L 52.714844 48.09375 C 53.042969 48.507812 53.007812 49.09375 52.648438 49.476562 L 48.714844 53.355469 C 48.335938 53.734375 47.75 53.769531 47.335938 53.421875 L 43.542969 50.371094 C 42.835938 50.714844 42.113281 51.007812 41.371094 51.234375 L 40.855469 56.113281 C 40.800781 56.628906 40.355469 57.027344 39.835938 57.027344 Z M 35.265625 54.957031 L 38.886719 54.957031 L 39.386719 50.300781 C 39.441406 49.871094 39.75 49.507812 40.164062 49.40625 C 41.214844 49.148438 42.214844 48.75 43.164062 48.214844 C 43.527344 48.007812 43.992188 48.042969 44.320312 48.320312 L 47.90625 51.214844 L 50.476562 48.648438 L 47.714844 45.234375 C 47.441406 44.886719 47.40625 44.386719 47.648438 44.027344 C 48.300781 43.027344 48.800781 41.941406 49.128906 40.820312 C 49.25 40.421875 49.59375 40.128906 50.007812 40.09375 L 54.183594 39.648438 L 54.183594 36.027344 L 50.320312 35.613281 C 49.871094 35.558594 49.507812 35.234375 49.421875 34.785156 C 49.164062 33.472656 48.699219 32.214844 48.042969 31.042969 C 47.835938 30.679688 47.871094 30.214844 48.148438 29.886719 L 50.457031 27.023438 L 47.886719 24.457031 L 45.199219 26.628906 C 44.855469 26.90625 44.355469 26.9375 43.972656 26.679688 C 42.765625 25.886719 41.421875 25.300781 40.027344 24.957031 C 39.59375 24.851562 39.285156 24.492188 39.234375 24.058594 L 38.871094 20.714844 L 35.25 20.714844 L 34.921875 24.058594 C 34.871094 24.492188 34.558594 24.851562 34.128906 24.957031 C 32.714844 25.300781 31.386719 25.871094 30.179688 26.679688 C 29.800781 26.921875 29.320312 26.90625 28.957031 26.628906 L 26.265625 24.457031 L 23.699219 27.023438 L 26.007812 29.886719 C 26.265625 30.214844 26.316406 30.679688 26.113281 31.042969 C 25.457031 32.214844 24.992188 33.472656 24.730469 34.785156 C 24.644531 35.234375 24.285156 35.558594 23.835938 35.613281 L 19.972656 36.027344 L 19.972656 39.648438 L 24.144531 40.09375 C 24.558594 40.148438 24.90625 40.421875 25.023438 40.820312 C 25.371094 41.957031 25.871094 43.027344 26.507812 44.027344 C 26.75 44.40625 26.730469 44.886719 26.4375 45.234375 L 23.679688 48.648438 L 26.25 51.214844 L 29.835938 48.320312 C 30.164062 48.0625 30.613281 48.007812 30.992188 48.214844 C 31.9375 48.734375 32.9375 49.148438 33.992188 49.40625 C 34.40625 49.507812 34.714844 49.871094 34.765625 50.300781 Z M 35.265625 54.957031 " fill-opacity="1" fill-rule="nonzero"/><g clip-path="url(#443e986d77)"><path fill="#221c35" d="M 51.371094 74.0625 C 51.199219 74.0625 51.027344 74.027344 50.871094 73.941406 L 43.234375 69.75 C 42.972656 69.613281 42.800781 69.371094 42.734375 69.097656 C 42.664062 68.820312 42.714844 68.511719 42.871094 68.269531 L 47.421875 61.390625 C 47.734375 60.90625 48.386719 60.785156 48.855469 61.097656 C 49.335938 61.40625 49.457031 62.0625 49.148438 62.527344 L 45.214844 68.476562 L 51.855469 72.113281 C 52.355469 72.390625 52.542969 73.011719 52.269531 73.511719 C 52.078125 73.871094 51.734375 74.0625 51.371094 74.0625 Z M 51.371094 74.0625 " fill-opacity="1" fill-rule="nonzero"/></g><path fill="#221c35" d="M 69.957031 35.472656 C 69.75 35.472656 69.5625 35.421875 69.390625 35.300781 L 62.511719 30.75 C 62.027344 30.4375 61.90625 29.785156 62.21875 29.320312 C 62.527344 28.835938 63.183594 28.714844 63.648438 29.023438 L 69.5625 32.9375 L 72.941406 26.179688 C 73.199219 25.664062 73.820312 25.457031 74.320312 25.714844 C 74.839844 25.972656 75.046875 26.59375 74.785156 27.09375 L 70.871094 34.90625 C 70.734375 35.164062 70.492188 35.371094 70.21875 35.441406 C 70.148438 35.457031 70.046875 35.472656 69.957031 35.472656 Z M 69.957031 35.472656 " fill-opacity="1" fill-rule="nonzero"/><g clip-path="url(#48a620a5ed)"><path fill="#221c35" d="M 25.492188 13.058594 C 25.285156 13.058594 25.078125 12.988281 24.886719 12.871094 C 24.421875 12.542969 24.316406 11.886719 24.644531 11.421875 L 28.714844 5.714844 L 22.230469 2.9375 C 21.714844 2.714844 21.457031 2.109375 21.679688 1.574219 C 21.902344 1.058594 22.507812 0.800781 23.042969 1.023438 L 30.714844 4.300781 C 31.007812 4.421875 31.214844 4.660156 31.300781 4.972656 C 31.386719 5.265625 31.335938 5.59375 31.144531 5.851562 L 26.335938 12.609375 C 26.128906 12.902344 25.816406 13.058594 25.492188 13.058594 Z M 25.492188 13.058594 " fill-opacity="1" fill-rule="nonzero"/></g><path fill="#221c35" d="M 1.144531 52.542969 C 1.007812 52.542969 0.867188 52.507812 0.730469 52.457031 C 0.214844 52.234375 -0.0273438 51.613281 0.195312 51.09375 L 3.746094 42.941406 C 3.867188 42.664062 4.09375 42.457031 4.386719 42.371094 C 4.660156 42.285156 4.972656 42.320312 5.230469 42.472656 L 12.972656 47.078125 C 13.457031 47.371094 13.628906 48.007812 13.335938 48.492188 C 13.042969 48.976562 12.402344 49.148438 11.921875 48.855469 L 5.179688 44.855469 L 2.09375 51.941406 C 1.921875 52.300781 1.539062 52.542969 1.144531 52.542969 Z M 1.144531 52.542969 " fill-opacity="1" fill-rule="nonzero"/></svg>