<svg xmlns="http://www.w3.org/2000/svg" xmlns:xlink="http://www.w3.org/1999/xlink" width="40" zoomAndPan="magnify" viewBox="0 0 30 30.000001" height="40" preserveAspectRatio="xMidYMid meet" version="1.0"><defs><clipPath id="bb8ff3e76e"><path d="M 0.484375 0 L 29.515625 0 L 29.515625 29.03125 L 0.484375 29.03125 Z M 0.484375 0 " clip-rule="nonzero"/></clipPath><clipPath id="9f9f318933"><path d="M 0.484375 0 L 29.515625 0 L 29.515625 29.03125 L 0.484375 29.03125 Z M 0.484375 0 " clip-rule="nonzero"/></clipPath><clipPath id="a6bbdc1a7c"><rect x="0" width="30" y="0" height="30"/></clipPath></defs><g clip-path="url(#bb8ff3e76e)"><path fill="#ffffff" d="M 0.484375 0 L 29.515625 0 L 29.515625 29.03125 L 0.484375 29.03125 Z M 0.484375 0 " fill-opacity="1" fill-rule="nonzero"/><path fill="#ffffff" d="M 0.484375 0 L 29.515625 0 L 29.515625 29.03125 L 0.484375 29.03125 Z M 0.484375 0 " fill-opacity="1" fill-rule="nonzero"/><g transform="matrix(1, 0, 0, 1, 0, 0.000000000000005692)"><g clip-path="url(#a6bbdc1a7c)"><g clip-path="url(#9f9f318933)"><path fill="#ffffff" d="M 0.484375 0 L 29.515625 0 L 29.515625 29.03125 L 0.484375 29.03125 Z M 0.484375 0 " fill-opacity="1" fill-rule="nonzero"/></g><path stroke-linecap="butt" transform="matrix(0.784656, 0, 0, 0.784656, 0.48387, 0.00000193548)" fill="none" stroke-linejoin="miter" d="M 2.001919 2.499103 L 9.001407 2.499103 M 10.997705 2.499103 L 11.998343 2.499103 M 15.000257 2.499103 L 16.000895 2.499103 M 18.997831 2.499103 L 24.001021 2.499103 M 25.001659 2.499103 L 26.002297 2.499103 M 27.998594 2.499103 L 34.998082 2.499103 M 2.001919 3.499741 L 2.997579 3.499741 M 8.000769 3.499741 L 9.001407 3.499741 M 10.997705 3.499741 L 13.999619 3.499741 M 15.000257 3.499741 L 18.002171 3.499741 M 18.997831 3.499741 L 19.998469 3.499741 M 21.999745 3.499741 L 23.000383 3.499741 M 24.001021 3.499741 L 25.001659 3.499741 M 26.002297 3.499741 L 26.997956 3.499741 M 27.998594 3.499741 L 28.999232 3.499741 M 34.002423 3.499741 L 34.998082 3.499741 M 2.001919 4.500379 L 2.997579 4.500379 M 3.998217 4.500379 L 7.000131 4.500379 M 8.000769 4.500379 L 9.001407 4.500379 M 10.002045 4.500379 L 10.997705 4.500379 M 11.998343 4.500379 L 13.999619 4.500379 M 15.000257 4.500379 L 16.000895 4.500379 M 17.001533 4.500379 L 18.002171 4.500379 M 18.997831 4.500379 L 23.000383 4.500379 M 24.001021 4.500379 L 26.002297 4.500379 M 27.998594 4.500379 L 28.999232 4.500379 M 29.99987 4.500379 L 33.001785 4.500379 M 34.002423 4.500379 L 34.998082 4.500379 M 2.001919 5.501018 L 2.997579 5.501018 M 3.998217 5.501018 L 7.000131 5.501018 M 8.000769 5.501018 L 9.001407 5.501018 M 10.002045 5.501018 L 10.997705 5.501018 M 12.998981 5.501018 L 15.000257 5.501018 M 16.000895 5.501018 L 18.997831 5.501018 M 20.999107 5.501018 L 26.997956 5.501018 M 27.998594 5.501018 L 28.999232 5.501018 M 29.99987 5.501018 L 33.001785 5.501018 M 34.002423 5.501018 L 34.998082 5.501018 M 2.001919 6.501656 L 2.997579 6.501656 M 3.998217 6.501656 L 7.000131 6.501656 M 8.000769 6.501656 L 9.001407 6.501656 M 10.002045 6.501656 L 10.997705 6.501656 M 11.998343 6.501656 L 13.999619 6.501656 M 15.000257 6.501656 L 16.000895 6.501656 M 17.001533 6.501656 L 18.002171 6.501656 M 18.997831 6.501656 L 20.999107 6.501656 M 23.000383 6.501656 L 24.001021 6.501656 M 26.002297 6.501656 L 26.997956 6.501656 M 27.998594 6.501656 L 28.999232 6.501656 M 29.99987 6.501656 L 33.001785 6.501656 M 34.002423 6.501656 L 34.998082 6.501656 M 2.001919 7.502294 L 2.997579 7.502294 M 8.000769 7.502294 L 9.001407 7.502294 M 10.002045 7.502294 L 10.997705 7.502294 M 11.998343 7.502294 L 18.997831 7.502294 M 21.999745 7.502294 L 24.001021 7.502294 M 25.001659 7.502294 L 26.997956 7.502294 M 27.998594 7.502294 L 28.999232 7.502294 M 34.002423 7.502294 L 34.998082 7.502294 M 2.001919 8.497953 L 9.001407 8.497953 M 10.002045 8.497953 L 10.997705 8.497953 M 11.998343 8.497953 L 12.998981 8.497953 M 13.999619 8.497953 L 15.000257 8.497953 M 16.000895 8.497953 L 17.001533 8.497953 M 18.002171 8.497953 L 18.997831 8.497953 M 19.998469 8.497953 L 20.999107 8.497953 M 21.999745 8.497953 L 23.000383 8.497953 M 24.001021 8.497953 L 25.001659 8.497953 M 26.002297 8.497953 L 26.997956 8.497953 M 27.998594 8.497953 L 34.998082 8.497953 M 10.002045 9.498591 L 11.998343 9.498591 M 16.000895 9.498591 L 18.002171 9.498591 M 23.000383 9.498591 L 26.997956 9.498591 M 2.001919 10.499229 L 2.997579 10.499229 M 3.998217 10.499229 L 9.001407 10.499229 M 10.997705 10.499229 L 11.998343 10.499229 M 12.998981 10.499229 L 13.999619 10.499229 M 15.000257 10.499229 L 20.999107 10.499229 M 24.001021 10.499229 L 26.997956 10.499229 M 27.998594 10.499229 L 33.001785 10.499229 M 2.997579 11.499867 L 3.998217 11.499867 M 7.000131 11.499867 L 8.000769 11.499867 M 9.001407 11.499867 L 10.997705 11.499867 M 13.999619 11.499867 L 15.000257 11.499867 M 18.002171 11.499867 L 18.997831 11.499867 M 19.998469 11.499867 L 23.000383 11.499867 M 24.001021 11.499867 L 26.997956 11.499867 M 27.998594 11.499867 L 29.99987 11.499867 M 31.000508 11.499867 L 33.001785 11.499867 M 34.002423 11.499867 L 34.998082 11.499867 M 2.997579 12.500505 L 4.998855 12.500505 M 5.999493 12.500505 L 7.000131 12.500505 M 8.000769 12.500505 L 9.001407 12.500505 M 11.998343 12.500505 L 13.999619 12.500505 M 17.001533 12.500505 L 18.002171 12.500505 M 19.998469 12.500505 L 20.999107 12.500505 M 21.999745 12.500505 L 23.000383 12.500505 M 29.99987 12.500505 L 31.000508 12.500505 M 32.001147 12.500505 L 34.002423 12.500505 M 4.998855 13.501143 L 5.999493 13.501143 M 16.000895 13.501143 L 18.002171 13.501143 M 20.999107 13.501143 L 21.999745 13.501143 M 25.001659 13.501143 L 26.997956 13.501143 M 27.998594 13.501143 L 28.999232 13.501143 M 29.99987 13.501143 L 34.998082 13.501143 M 4.998855 14.501781 L 5.999493 14.501781 M 7.000131 14.501781 L 10.002045 14.501781 M 10.997705 14.501781 L 11.998343 14.501781 M 12.998981 14.501781 L 15.000257 14.501781 M 17.001533 14.501781 L 18.002171 14.501781 M 19.998469 14.501781 L 20.999107 14.501781 M 24.001021 14.501781 L 25.001659 14.501781 M 26.002297 14.501781 L 26.997956 14.501781 M 28.999232 14.501781 L 32.001147 14.501781 M 34.002423 14.501781 L 34.998082 14.501781 M 2.997579 15.502419 L 5.999493 15.502419 M 7.000131 15.502419 L 8.000769 15.502419 M 10.002045 15.502419 L 13.999619 15.502419 M 15.000257 15.502419 L 19.998469 15.502419 M 21.999745 15.502419 L 24.001021 15.502419 M 25.001659 15.502419 L 26.997956 15.502419 M 27.998594 15.502419 L 28.999232 15.502419 M 31.000508 15.502419 L 34.998082 15.502419 M 2.997579 16.498079 L 3.998217 16.498079 M 5.999493 16.498079 L 9.001407 16.498079 M 10.002045 16.498079 L 10.997705 16.498079 M 12.998981 16.498079 L 16.000895 16.498079 M 18.997831 16.498079 L 19.998469 16.498079 M 20.999107 16.498079 L 21.999745 16.498079 M 23.000383 16.498079 L 24.001021 16.498079 M 26.002297 16.498079 L 28.999232 16.498079 M 31.000508 16.498079 L 34.002423 16.498079 M 2.001919 17.498717 L 3.998217 17.498717 M 4.998855 17.498717 L 7.000131 17.498717 M 12.998981 17.498717 L 13.999619 17.498717 M 15.000257 17.498717 L 17.001533 17.498717 M 18.002171 17.498717 L 18.997831 17.498717 M 20.999107 17.498717 L 24.001021 17.498717 M 26.002297 17.498717 L 28.999232 17.498717 M 31.000508 17.498717 L 33.001785 17.498717 M 2.001919 18.499355 L 4.998855 18.499355 M 7.000131 18.499355 L 10.002045 18.499355 M 10.997705 18.499355 L 12.998981 18.499355 M 13.999619 18.499355 L 16.000895 18.499355 M 18.002171 18.499355 L 19.998469 18.499355 M 20.999107 18.499355 L 21.999745 18.499355 M 24.001021 18.499355 L 25.001659 18.499355 M 26.997956 18.499355 L 27.998594 18.499355 M 28.999232 18.499355 L 32.001147 18.499355 M 34.002423 18.499355 L 34.998082 18.499355 M 3.998217 19.499993 L 4.998855 19.499993 M 5.999493 19.499993 L 8.000769 19.499993 M 10.997705 19.499993 L 13.999619 19.499993 M 16.000895 19.499993 L 17.001533 19.499993 M 18.002171 19.499993 L 26.002297 19.499993 M 27.998594 19.499993 L 29.99987 19.499993 M 31.000508 19.499993 L 33.001785 19.499993 M 34.002423 19.499993 L 34.998082 19.499993 M 2.001919 20.500631 L 2.997579 20.500631 M 3.998217 20.500631 L 5.999493 20.500631 M 8.000769 20.500631 L 9.001407 20.500631 M 10.002045 20.500631 L 11.998343 20.500631 M 12.998981 20.500631 L 19.998469 20.500631 M 23.000383 20.500631 L 25.001659 20.500631 M 26.002297 20.500631 L 31.000508 20.500631 M 32.001147 20.500631 L 34.002423 20.500631 M 2.997579 21.501269 L 5.999493 21.501269 M 9.001407 21.501269 L 12.998981 21.501269 M 17.001533 21.501269 L 18.002171 21.501269 M 18.997831 21.501269 L 25.001659 21.501269 M 26.002297 21.501269 L 34.002423 21.501269 M 2.997579 22.501907 L 5.999493 22.501907 M 8.000769 22.501907 L 11.998343 22.501907 M 13.999619 22.501907 L 16.000895 22.501907 M 17.001533 22.501907 L 18.997831 22.501907 M 20.999107 22.501907 L 23.000383 22.501907 M 26.997956 22.501907 L 27.998594 22.501907 M 29.99987 22.501907 L 32.001147 22.501907 M 33.001785 22.501907 L 34.002423 22.501907 M 2.001919 23.497567 L 2.997579 23.497567 M 4.998855 23.497567 L 7.000131 23.497567 M 10.002045 23.497567 L 11.998343 23.497567 M 12.998981 23.497567 L 18.002171 23.497567 M 19.998469 23.497567 L 20.999107 23.497567 M 23.000383 23.497567 L 24.001021 23.497567 M 26.002297 23.497567 L 26.997956 23.497567 M 27.998594 23.497567 L 28.999232 23.497567 M 32.001147 23.497567 L 33.001785 23.497567 M 34.002423 23.497567 L 34.998082 23.497567 M 2.001919 24.498205 L 2.997579 24.498205 M 3.998217 24.498205 L 5.999493 24.498205 M 7.000131 24.498205 L 9.001407 24.498205 M 13.999619 24.498205 L 15.000257 24.498205 M 16.000895 24.498205 L 19.998469 24.498205 M 21.999745 24.498205 L 24.001021 24.498205 M 26.002297 24.498205 L 26.997956 24.498205 M 28.999232 24.498205 L 29.99987 24.498205 M 31.000508 24.498205 L 32.001147 24.498205 M 33.001785 24.498205 L 34.002423 24.498205 M 2.001919 25.498843 L 2.997579 25.498843 M 3.998217 25.498843 L 4.998855 25.498843 M 5.999493 25.498843 L 7.000131 25.498843 M 9.001407 25.498843 L 10.002045 25.498843 M 10.997705 25.498843 L 12.998981 25.498843 M 15.000257 25.498843 L 18.002171 25.498843 M 23.000383 25.498843 L 24.001021 25.498843 M 26.997956 25.498843 L 27.998594 25.498843 M 28.999232 25.498843 L 31.000508 25.498843 M 32.001147 25.498843 L 33.001785 25.498843 M 34.002423 25.498843 L 34.998082 25.498843 M 2.001919 26.499481 L 2.997579 26.499481 M 3.998217 26.499481 L 4.998855 26.499481 M 7.000131 26.499481 L 10.997705 26.499481 M 13.999619 26.499481 L 18.002171 26.499481 M 18.997831 26.499481 L 19.998469 26.499481 M 24.001021 26.499481 L 25.001659 26.499481 M 26.002297 26.499481 L 31.000508 26.499481 M 34.002423 26.499481 L 34.998082 26.499481 M 10.002045 27.500119 L 15.000257 27.500119 M 18.002171 27.500119 L 18.997831 27.500119 M 19.998469 27.500119 L 21.999745 27.500119 M 23.000383 27.500119 L 24.001021 27.500119 M 25.001659 27.500119 L 26.997956 27.500119 M 29.99987 27.500119 L 31.000508 27.500119 M 32.001147 27.500119 L 34.998082 27.500119 M 2.001919 28.500757 L 9.001407 28.500757 M 11.998343 28.500757 L 12.998981 28.500757 M 13.999619 28.500757 L 16.000895 28.500757 M 17.001533 28.500757 L 18.997831 28.500757 M 19.998469 28.500757 L 20.999107 28.500757 M 21.999745 28.500757 L 24.001021 28.500757 M 25.001659 28.500757 L 26.997956 28.500757 M 27.998594 28.500757 L 28.999232 28.500757 M 29.99987 28.500757 L 31.000508 28.500757 M 32.001147 28.500757 L 34.002423 28.500757 M 2.001919 29.501395 L 2.997579 29.501395 M 8.000769 29.501395 L 9.001407 29.501395 M 10.002045 29.501395 L 12.998981 29.501395 M 16.000895 29.501395 L 17.001533 29.501395 M 18.002171 29.501395 L 18.997831 29.501395 M 21.999745 29.501395 L 26.997956 29.501395 M 29.99987 29.501395 L 33.001785 29.501395 M 2.001919 30.502033 L 2.997579 30.502033 M 3.998217 30.502033 L 7.000131 30.502033 M 8.000769 30.502033 L 9.001407 30.502033 M 10.002045 30.502033 L 11.998343 30.502033 M 12.998981 30.502033 L 15.000257 30.502033 M 19.998469 30.502033 L 20.999107 30.502033 M 23.000383 30.502033 L 24.001021 30.502033 M 26.002297 30.502033 L 32.001147 30.502033 M 33.001785 30.502033 L 34.002423 30.502033 M 2.001919 31.497693 L 2.997579 31.497693 M 3.998217 31.497693 L 7.000131 31.497693 M 8.000769 31.497693 L 9.001407 31.497693 M 10.002045 31.497693 L 10.997705 31.497693 M 13.999619 31.497693 L 18.997831 31.497693 M 21.999745 31.497693 L 23.000383 31.497693 M 26.002297 31.497693 L 27.998594 31.497693 M 29.99987 31.497693 L 32.001147 31.497693 M 34.002423 31.497693 L 34.998082 31.497693 M 2.001919 32.498331 L 2.997579 32.498331 M 3.998217 32.498331 L 7.000131 32.498331 M 8.000769 32.498331 L 9.001407 32.498331 M 10.002045 32.498331 L 10.997705 32.498331 M 12.998981 32.498331 L 13.999619 32.498331 M 15.000257 32.498331 L 17.001533 32.498331 M 18.997831 32.498331 L 21.999745 32.498331 M 23.000383 32.498331 L 25.001659 32.498331 M 26.002297 32.498331 L 29.99987 32.498331 M 31.000508 32.498331 L 33.001785 32.498331 M 2.001919 33.498969 L 2.997579 33.498969 M 8.000769 33.498969 L 9.001407 33.498969 M 10.997705 33.498969 L 11.998343 33.498969 M 12.998981 33.498969 L 13.999619 33.498969 M 16.000895 33.498969 L 17.001533 33.498969 M 18.002171 33.498969 L 18.997831 33.498969 M 19.998469 33.498969 L 24.001021 33.498969 M 27.998594 33.498969 L 28.999232 33.498969 M 29.99987 33.498969 L 33.001785 33.498969 M 2.001919 34.499607 L 9.001407 34.499607 M 10.002045 34.499607 L 11.998343 34.499607 M 12.998981 34.499607 L 17.001533 34.499607 M 18.997831 34.499607 L 21.999745 34.499607 M 24.001021 34.499607 L 27.998594 34.499607 M 28.999232 34.499607 L 29.99987 34.499607 M 33.001785 34.499607 L 34.002423 34.499607 " stroke="#000000" stroke-width="1" stroke-opacity="1" stroke-miterlimit="4"/></g></g></g></svg>