<svg xmlns="http://www.w3.org/2000/svg" xmlns:xlink="http://www.w3.org/1999/xlink" width="40" zoomAndPan="magnify" viewBox="0 0 30 30.000001" height="40" preserveAspectRatio="xMidYMid meet" version="1.0"><defs><clipPath id="bfb2cfc3bc"><path d="M 0.484375 0 L 29.515625 0 L 29.515625 29.03125 L 0.484375 29.03125 Z M 0.484375 0 " clip-rule="nonzero"/></clipPath><clipPath id="5039b024c8"><path d="M 0.484375 0 L 29.515625 0 L 29.515625 29.03125 L 0.484375 29.03125 Z M 0.484375 0 " clip-rule="nonzero"/></clipPath><clipPath id="6ffda818ee"><rect x="0" width="30" y="0" height="30"/></clipPath></defs><g clip-path="url(#bfb2cfc3bc)"><path fill="#ffffff" d="M 0.484375 0 L 29.515625 0 L 29.515625 29.03125 L 0.484375 29.03125 Z M 0.484375 0 " fill-opacity="1" fill-rule="nonzero"/><path fill="#ffffff" d="M 0.484375 0 L 29.515625 0 L 29.515625 29.03125 L 0.484375 29.03125 Z M 0.484375 0 " fill-opacity="1" fill-rule="nonzero"/><g transform="matrix(1, 0, 0, 1, 0.000000000000000056, 0.000000000000005692)"><g clip-path="url(#6ffda818ee)"><g clip-path="url(#5039b024c8)"><path fill="#ffffff" d="M 0.484375 0 L 29.515625 0 L 29.515625 29.03125 L 0.484375 29.03125 Z M 0.484375 0 " fill-opacity="1" fill-rule="nonzero"/></g><path stroke-linecap="butt" transform="matrix(0.645161, 0, 0, 0.645161, 0.48387, 0.00000193548)" fill="none" stroke-linejoin="miter" d="M 1.998829 2.500583 L 8.998047 2.500583 M 11.002149 2.500583 L 12.001172 2.500583 M 13.000196 2.500583 L 13.999219 2.500583 M 15.997266 2.500583 L 19.000391 2.500583 M 19.999414 2.500583 L 23.002539 2.500583 M 25.000586 2.500583 L 25.999609 2.500583 M 30.001757 2.500583 L 31.999804 2.500583 M 32.998828 2.500583 L 35.002929 2.500583 M 36.001953 2.500583 L 43.001171 2.500583 M 1.998829 3.499606 L 2.997852 3.499606 M 7.999024 3.499606 L 8.998047 3.499606 M 13.000196 3.499606 L 14.998242 3.499606 M 17.002344 3.499606 L 19.000391 3.499606 M 19.999414 3.499606 L 20.998438 3.499606 M 21.997461 3.499606 L 23.002539 3.499606 M 24.001562 3.499606 L 25.000586 3.499606 M 25.999609 3.499606 L 26.998633 3.499606 M 29.002734 3.499606 L 30.001757 3.499606 M 31.999804 3.499606 L 32.998828 3.499606 M 36.001953 3.499606 L 37.000976 3.499606 M 42.002148 3.499606 L 43.001171 3.499606 M 1.998829 4.49863 L 2.997852 4.49863 M 4.00293 4.49863 L 7.000001 4.49863 M 7.999024 4.49863 L 8.998047 4.49863 M 9.997071 4.49863 L 11.002149 4.49863 M 12.001172 4.49863 L 13.000196 4.49863 M 13.999219 4.49863 L 14.998242 4.49863 M 17.002344 4.49863 L 18.001367 4.49863 M 25.999609 4.49863 L 26.998633 4.49863 M 27.997656 4.49863 L 29.002734 4.49863 M 30.001757 4.49863 L 31.000781 4.49863 M 31.999804 4.49863 L 32.998828 4.49863 M 33.997851 4.49863 L 35.002929 4.49863 M 36.001953 4.49863 L 37.000976 4.49863 M 37.999999 4.49863 L 40.99707 4.49863 M 42.002148 4.49863 L 43.001171 4.49863 M 1.998829 5.497653 L 2.997852 5.497653 M 4.00293 5.497653 L 7.000001 5.497653 M 7.999024 5.497653 L 8.998047 5.497653 M 9.997071 5.497653 L 13.000196 5.497653 M 17.002344 5.497653 L 19.000391 5.497653 M 19.999414 5.497653 L 20.998438 5.497653 M 23.002539 5.497653 L 25.000586 5.497653 M 31.000781 5.497653 L 31.999804 5.497653 M 36.001953 5.497653 L 37.000976 5.497653 M 37.999999 5.497653 L 40.99707 5.497653 M 42.002148 5.497653 L 43.001171 5.497653 M 1.998829 6.502731 L 2.997852 6.502731 M 4.00293 6.502731 L 7.000001 6.502731 M 7.999024 6.502731 L 8.998047 6.502731 M 9.997071 6.502731 L 11.002149 6.502731 M 12.001172 6.502731 L 13.000196 6.502731 M 14.998242 6.502731 L 15.997266 6.502731 M 19.000391 6.502731 L 19.999414 6.502731 M 20.998438 6.502731 L 24.001562 6.502731 M 25.000586 6.502731 L 26.998633 6.502731 M 27.997656 6.502731 L 29.002734 6.502731 M 30.001757 6.502731 L 31.000781 6.502731 M 31.999804 6.502731 L 35.002929 6.502731 M 36.001953 6.502731 L 37.000976 6.502731 M 37.999999 6.502731 L 40.99707 6.502731 M 42.002148 6.502731 L 43.001171 6.502731 M 1.998829 7.501755 L 2.997852 7.501755 M 7.999024 7.501755 L 8.998047 7.501755 M 9.997071 7.501755 L 11.002149 7.501755 M 12.001172 7.501755 L 13.000196 7.501755 M 14.998242 7.501755 L 18.001367 7.501755 M 19.000391 7.501755 L 19.999414 7.501755 M 23.002539 7.501755 L 25.000586 7.501755 M 25.999609 7.501755 L 31.000781 7.501755 M 31.999804 7.501755 L 32.998828 7.501755 M 33.997851 7.501755 L 35.002929 7.501755 M 36.001953 7.501755 L 37.000976 7.501755 M 42.002148 7.501755 L 43.001171 7.501755 M 1.998829 8.500778 L 8.998047 8.500778 M 9.997071 8.500778 L 11.002149 8.500778 M 12.001172 8.500778 L 13.000196 8.500778 M 13.999219 8.500778 L 14.998242 8.500778 M 15.997266 8.500778 L 17.002344 8.500778 M 18.001367 8.500778 L 19.000391 8.500778 M 19.999414 8.500778 L 20.998438 8.500778 M 21.997461 8.500778 L 23.002539 8.500778 M 24.001562 8.500778 L 25.000586 8.500778 M 25.999609 8.500778 L 26.998633 8.500778 M 27.997656 8.500778 L 29.002734 8.500778 M 30.001757 8.500778 L 31.000781 8.500778 M 31.999804 8.500778 L 32.998828 8.500778 M 33.997851 8.500778 L 35.002929 8.500778 M 36.001953 8.500778 L 43.001171 8.500778 M 9.997071 9.499801 L 12.001172 9.499801 M 13.000196 9.499801 L 13.999219 9.499801 M 15.997266 9.499801 L 18.001367 9.499801 M 20.998438 9.499801 L 25.000586 9.499801 M 27.997656 9.499801 L 30.001757 9.499801 M 31.999804 9.499801 L 35.002929 9.499801 M 1.998829 10.498825 L 2.997852 10.498825 M 4.00293 10.498825 L 8.998047 10.498825 M 12.001172 10.498825 L 13.000196 10.498825 M 14.998242 10.498825 L 15.997266 10.498825 M 17.002344 10.498825 L 18.001367 10.498825 M 19.000391 10.498825 L 19.999414 10.498825 M 20.998438 10.498825 L 21.997461 10.498825 M 25.999609 10.498825 L 29.002734 10.498825 M 31.000781 10.498825 L 31.999804 10.498825 M 32.998828 10.498825 L 35.002929 10.498825 M 36.001953 10.498825 L 40.99707 10.498825 M 2.997852 11.497848 L 4.00293 11.497848 M 5.001954 11.497848 L 6.000977 11.497848 M 7.000001 11.497848 L 7.999024 11.497848 M 8.998047 11.497848 L 9.997071 11.497848 M 13.999219 11.497848 L 18.001367 11.497848 M 20.998438 11.497848 L 21.997461 11.497848 M 25.000586 11.497848 L 25.999609 11.497848 M 26.998633 11.497848 L 27.997656 11.497848 M 30.001757 11.497848 L 31.000781 11.497848 M 31.999804 11.497848 L 37.000976 11.497848 M 37.999999 11.497848 L 38.999023 11.497848 M 39.998046 11.497848 L 43.001171 11.497848 M 5.001954 12.502926 L 9.997071 12.502926 M 11.002149 12.502926 L 12.001172 12.502926 M 14.998242 12.502926 L 15.997266 12.502926 M 17.002344 12.502926 L 19.000391 12.502926 M 21.997461 12.502926 L 25.000586 12.502926 M 25.999609 12.502926 L 26.998633 12.502926 M 27.997656 12.502926 L 30.001757 12.502926 M 33.997851 12.502926 L 35.002929 12.502926 M 1.998829 13.50195 L 2.997852 13.50195 M 5.001954 13.50195 L 7.999024 13.50195 M 9.997071 13.50195 L 11.002149 13.50195 M 12.001172 13.50195 L 13.000196 13.50195 M 13.999219 13.50195 L 15.997266 13.50195 M 19.999414 13.50195 L 20.998438 13.50195 M 21.997461 13.50195 L 25.000586 13.50195 M 30.001757 13.50195 L 31.000781 13.50195 M 31.999804 13.50195 L 35.002929 13.50195 M 37.999999 13.50195 L 39.998046 13.50195 M 1.998829 14.500973 L 2.997852 14.500973 M 4.00293 14.500973 L 7.000001 14.500973 M 7.999024 14.500973 L 8.998047 14.500973 M 9.997071 14.500973 L 13.000196 14.500973 M 13.999219 14.500973 L 14.998242 14.500973 M 15.997266 14.500973 L 19.999414 14.500973 M 20.998438 14.500973 L 21.997461 14.500973 M 24.001562 14.500973 L 25.999609 14.500973 M 26.998633 14.500973 L 29.002734 14.500973 M 31.000781 14.500973 L 31.999804 14.500973 M 32.998828 14.500973 L 33.997851 14.500973 M 37.000976 14.500973 L 37.999999 14.500973 M 38.999023 14.500973 L 43.001171 14.500973 M 4.00293 15.499996 L 5.001954 15.499996 M 7.000001 15.499996 L 7.999024 15.499996 M 9.997071 15.499996 L 12.001172 15.499996 M 13.000196 15.499996 L 15.997266 15.499996 M 17.002344 15.499996 L 19.999414 15.499996 M 21.997461 15.499996 L 24.001562 15.499996 M 25.999609 15.499996 L 26.998633 15.499996 M 27.997656 15.499996 L 31.000781 15.499996 M 31.999804 15.499996 L 38.999023 15.499996 M 42.002148 15.499996 L 43.001171 15.499996 M 2.997852 16.49902 L 6.000977 16.49902 M 7.999024 16.49902 L 11.002149 16.49902 M 13.000196 16.49902 L 14.998242 16.49902 M 15.997266 16.49902 L 17.002344 16.49902 M 19.999414 16.49902 L 21.997461 16.49902 M 31.000781 16.49902 L 32.998828 16.49902 M 33.997851 16.49902 L 36.001953 16.49902 M 37.000976 16.49902 L 38.999023 16.49902 M 39.998046 16.49902 L 40.99707 16.49902 M 4.00293 17.498043 L 7.999024 17.498043 M 12.001172 17.498043 L 13.000196 17.498043 M 13.999219 17.498043 L 14.998242 17.498043 M 15.997266 17.498043 L 18.001367 17.498043 M 20.998438 17.498043 L 25.000586 17.498043 M 25.999609 17.498043 L 26.998633 17.498043 M 27.997656 17.498043 L 29.002734 17.498043 M 30.001757 17.498043 L 31.000781 17.498043 M 31.999804 17.498043 L 33.997851 17.498043 M 36.001953 17.498043 L 37.000976 17.498043 M 37.999999 17.498043 L 39.998046 17.498043 M 1.998829 18.497067 L 4.00293 18.497067 M 6.000977 18.497067 L 9.997071 18.497067 M 11.002149 18.497067 L 13.000196 18.497067 M 13.999219 18.497067 L 14.998242 18.497067 M 15.997266 18.497067 L 17.002344 18.497067 M 18.001367 18.497067 L 19.999414 18.497067 M 20.998438 18.497067 L 21.997461 18.497067 M 24.001562 18.497067 L 25.000586 18.497067 M 26.998633 18.497067 L 29.002734 18.497067 M 31.000781 18.497067 L 31.999804 18.497067 M 35.002929 18.497067 L 36.001953 18.497067 M 37.000976 18.497067 L 37.999999 18.497067 M 39.998046 18.497067 L 40.99707 18.497067 M 2.997852 19.502145 L 4.00293 19.502145 M 5.001954 19.502145 L 6.000977 19.502145 M 8.998047 19.502145 L 12.001172 19.502145 M 13.000196 19.502145 L 13.999219 19.502145 M 14.998242 19.502145 L 15.997266 19.502145 M 17.002344 19.502145 L 24.001562 19.502145 M 25.000586 19.502145 L 25.999609 19.502145 M 26.998633 19.502145 L 29.002734 19.502145 M 31.999804 19.502145 L 35.002929 19.502145 M 36.001953 19.502145 L 38.999023 19.502145 M 42.002148 19.502145 L 43.001171 19.502145 M 1.998829 20.501168 L 2.997852 20.501168 M 5.001954 20.501168 L 7.000001 20.501168 M 7.999024 20.501168 L 9.997071 20.501168 M 11.002149 20.501168 L 12.001172 20.501168 M 17.002344 20.501168 L 19.999414 20.501168 M 23.002539 20.501168 L 24.001562 20.501168 M 25.999609 20.501168 L 30.001757 20.501168 M 31.999804 20.501168 L 32.998828 20.501168 M 35.002929 20.501168 L 36.001953 20.501168 M 37.999999 20.501168 L 40.99707 20.501168 M 1.998829 21.500192 L 2.997852 21.500192 M 7.000001 21.500192 L 7.999024 21.500192 M 11.002149 21.500192 L 13.000196 21.500192 M 13.999219 21.500192 L 14.998242 21.500192 M 15.997266 21.500192 L 17.002344 21.500192 M 18.001367 21.500192 L 20.998438 21.500192 M 23.002539 21.500192 L 25.999609 21.500192 M 26.998633 21.500192 L 27.997656 21.500192 M 29.002734 21.500192 L 31.000781 21.500192 M 32.998828 21.500192 L 36.001953 21.500192 M 37.999999 21.500192 L 39.998046 21.500192 M 42.002148 21.500192 L 43.001171 21.500192 M 4.00293 22.499215 L 5.001954 22.499215 M 7.000001 22.499215 L 11.002149 22.499215 M 12.001172 22.499215 L 13.000196 22.499215 M 15.997266 22.499215 L 17.002344 22.499215 M 18.001367 22.499215 L 19.000391 22.499215 M 23.002539 22.499215 L 24.001562 22.499215 M 25.999609 22.499215 L 26.998633 22.499215 M 27.997656 22.499215 L 30.001757 22.499215 M 31.000781 22.499215 L 31.999804 22.499215 M 32.998828 22.499215 L 33.997851 22.499215 M 39.998046 22.499215 L 40.99707 22.499215 M 42.002148 22.499215 L 43.001171 22.499215 M 4.00293 23.498238 L 5.001954 23.498238 M 11.002149 23.498238 L 12.001172 23.498238 M 13.000196 23.498238 L 13.999219 23.498238 M 14.998242 23.498238 L 15.997266 23.498238 M 18.001367 23.498238 L 19.000391 23.498238 M 19.999414 23.498238 L 21.997461 23.498238 M 24.001562 23.498238 L 25.999609 23.498238 M 26.998633 23.498238 L 27.997656 23.498238 M 30.001757 23.498238 L 31.999804 23.498238 M 32.998828 23.498238 L 33.997851 23.498238 M 36.001953 23.498238 L 39.998046 23.498238 M 40.99707 23.498238 L 43.001171 23.498238 M 1.998829 24.497262 L 5.001954 24.497262 M 6.000977 24.497262 L 11.002149 24.497262 M 13.000196 24.497262 L 14.998242 24.497262 M 15.997266 24.497262 L 17.002344 24.497262 M 18.001367 24.497262 L 20.998438 24.497262 M 21.997461 24.497262 L 23.002539 24.497262 M 24.001562 24.497262 L 25.000586 24.497262 M 26.998633 24.497262 L 31.000781 24.497262 M 33.997851 24.497262 L 35.002929 24.497262 M 36.001953 24.497262 L 37.999999 24.497262 M 2.997852 25.50234 L 5.001954 25.50234 M 6.000977 25.50234 L 7.000001 25.50234 M 8.998047 25.50234 L 12.001172 25.50234 M 13.000196 25.50234 L 15.997266 25.50234 M 17.002344 25.50234 L 18.001367 25.50234 M 21.997461 25.50234 L 24.001562 25.50234 M 25.999609 25.50234 L 26.998633 25.50234 M 27.997656 25.50234 L 30.001757 25.50234 M 31.999804 25.50234 L 33.997851 25.50234 M 35.002929 25.50234 L 38.999023 25.50234 M 40.99707 25.50234 L 42.002148 25.50234 M 4.00293 26.501363 L 7.000001 26.501363 M 7.999024 26.501363 L 9.997071 26.501363 M 13.000196 26.501363 L 17.002344 26.501363 M 19.000391 26.501363 L 19.999414 26.501363 M 20.998438 26.501363 L 21.997461 26.501363 M 24.001562 26.501363 L 30.001757 26.501363 M 31.000781 26.501363 L 31.999804 26.501363 M 38.999023 26.501363 L 40.99707 26.501363 M 42.002148 26.501363 L 43.001171 26.501363 M 2.997852 27.500387 L 4.00293 27.500387 M 5.001954 27.500387 L 7.999024 27.500387 M 8.998047 27.500387 L 11.002149 27.500387 M 13.000196 27.500387 L 13.999219 27.500387 M 17.002344 27.500387 L 19.000391 27.500387 M 20.998438 27.500387 L 24.001562 27.500387 M 25.000586 27.500387 L 25.999609 27.500387 M 31.999804 27.500387 L 33.997851 27.500387 M 35.002929 27.500387 L 39.998046 27.500387 M 40.99707 27.500387 L 43.001171 27.500387 M 1.998829 28.49941 L 2.997852 28.49941 M 5.001954 28.49941 L 7.000001 28.49941 M 7.999024 28.49941 L 9.997071 28.49941 M 14.998242 28.49941 L 15.997266 28.49941 M 17.002344 28.49941 L 19.000391 28.49941 M 21.997461 28.49941 L 23.002539 28.49941 M 26.998633 28.49941 L 27.997656 28.49941 M 29.002734 28.49941 L 31.000781 28.49941 M 33.997851 28.49941 L 36.001953 28.49941 M 37.000976 28.49941 L 38.999023 28.49941 M 1.998829 29.498433 L 6.000977 29.498433 M 9.997071 29.498433 L 12.001172 29.498433 M 13.000196 29.498433 L 15.997266 29.498433 M 17.002344 29.498433 L 18.001367 29.498433 M 20.998438 29.498433 L 25.999609 29.498433 M 27.997656 29.498433 L 30.001757 29.498433 M 32.998828 29.498433 L 39.998046 29.498433 M 40.99707 29.498433 L 43.001171 29.498433 M 1.998829 30.497457 L 2.997852 30.497457 M 4.00293 30.497457 L 7.000001 30.497457 M 7.999024 30.497457 L 8.998047 30.497457 M 12.001172 30.497457 L 13.999219 30.497457 M 14.998242 30.497457 L 15.997266 30.497457 M 19.000391 30.497457 L 19.999414 30.497457 M 20.998438 30.497457 L 23.002539 30.497457 M 24.001562 30.497457 L 25.000586 30.497457 M 25.999609 30.497457 L 27.997656 30.497457 M 31.000781 30.497457 L 31.999804 30.497457 M 32.998828 30.497457 L 35.002929 30.497457 M 38.999023 30.497457 L 40.99707 30.497457 M 42.002148 30.497457 L 43.001171 30.497457 M 1.998829 31.502535 L 7.999024 31.502535 M 8.998047 31.502535 L 9.997071 31.502535 M 13.000196 31.502535 L 13.999219 31.502535 M 17.002344 31.502535 L 18.001367 31.502535 M 19.999414 31.502535 L 20.998438 31.502535 M 23.002539 31.502535 L 24.001562 31.502535 M 27.997656 31.502535 L 30.001757 31.502535 M 31.000781 31.502535 L 31.999804 31.502535 M 32.998828 31.502535 L 35.002929 31.502535 M 37.000976 31.502535 L 39.998046 31.502535 M 40.99707 31.502535 L 43.001171 31.502535 M 1.998829 32.501558 L 2.997852 32.501558 M 4.00293 32.501558 L 5.001954 32.501558 M 6.000977 32.501558 L 9.997071 32.501558 M 12.001172 32.501558 L 13.000196 32.501558 M 13.999219 32.501558 L 17.002344 32.501558 M 18.001367 32.501558 L 19.999414 32.501558 M 21.997461 32.501558 L 24.001562 32.501558 M 25.000586 32.501558 L 26.998633 32.501558 M 29.002734 32.501558 L 31.999804 32.501558 M 33.997851 32.501558 L 37.999999 32.501558 M 38.999023 32.501558 L 39.998046 32.501558 M 1.998829 33.500582 L 2.997852 33.500582 M 4.00293 33.500582 L 6.000977 33.500582 M 8.998047 33.500582 L 11.002149 33.500582 M 13.999219 33.500582 L 18.001367 33.500582 M 23.002539 33.500582 L 25.999609 33.500582 M 29.002734 33.500582 L 31.000781 33.500582 M 32.998828 33.500582 L 37.999999 33.500582 M 42.002148 33.500582 L 43.001171 33.500582 M 1.998829 34.499605 L 2.997852 34.499605 M 5.001954 34.499605 L 9.997071 34.499605 M 11.002149 34.499605 L 12.001172 34.499605 M 13.000196 34.499605 L 15.997266 34.499605 M 18.001367 34.499605 L 19.999414 34.499605 M 21.997461 34.499605 L 23.002539 34.499605 M 24.001562 34.499605 L 30.001757 34.499605 M 31.000781 34.499605 L 31.999804 34.499605 M 32.998828 34.499605 L 38.999023 34.499605 M 39.998046 34.499605 L 43.001171 34.499605 M 9.997071 35.498629 L 11.002149 35.498629 M 13.999219 35.498629 L 14.998242 35.498629 M 17.002344 35.498629 L 19.000391 35.498629 M 19.999414 35.498629 L 23.002539 35.498629 M 25.000586 35.498629 L 26.998633 35.498629 M 27.997656 35.498629 L 29.002734 35.498629 M 30.001757 35.498629 L 31.000781 35.498629 M 31.999804 35.498629 L 32.998828 35.498629 M 33.997851 35.498629 L 35.002929 35.498629 M 37.999999 35.498629 L 38.999023 35.498629 M 39.998046 35.498629 L 43.001171 35.498629 M 1.998829 36.497652 L 8.998047 36.497652 M 11.002149 36.497652 L 13.000196 36.497652 M 13.999219 36.497652 L 15.997266 36.497652 M 17.002344 36.497652 L 19.000391 36.497652 M 19.999414 36.497652 L 20.998438 36.497652 M 21.997461 36.497652 L 23.002539 36.497652 M 24.001562 36.497652 L 25.000586 36.497652 M 25.999609 36.497652 L 26.998633 36.497652 M 29.002734 36.497652 L 35.002929 36.497652 M 36.001953 36.497652 L 37.000976 36.497652 M 37.999999 36.497652 L 38.999023 36.497652 M 1.998829 37.50273 L 2.997852 37.50273 M 7.999024 37.50273 L 8.998047 37.50273 M 9.997071 37.50273 L 12.001172 37.50273 M 13.000196 37.50273 L 13.999219 37.50273 M 15.997266 37.50273 L 18.001367 37.50273 M 21.997461 37.50273 L 23.002539 37.50273 M 25.999609 37.50273 L 26.998633 37.50273 M 27.997656 37.50273 L 30.001757 37.50273 M 31.999804 37.50273 L 35.002929 37.50273 M 37.999999 37.50273 L 39.998046 37.50273 M 40.99707 37.50273 L 42.002148 37.50273 M 1.998829 38.501753 L 2.997852 38.501753 M 4.00293 38.501753 L 7.000001 38.501753 M 7.999024 38.501753 L 8.998047 38.501753 M 9.997071 38.501753 L 11.002149 38.501753 M 12.001172 38.501753 L 13.000196 38.501753 M 15.997266 38.501753 L 17.002344 38.501753 M 18.001367 38.501753 L 19.000391 38.501753 M 19.999414 38.501753 L 21.997461 38.501753 M 23.002539 38.501753 L 25.000586 38.501753 M 25.999609 38.501753 L 26.998633 38.501753 M 31.000781 38.501753 L 31.999804 38.501753 M 33.997851 38.501753 L 40.99707 38.501753 M 1.998829 39.500777 L 2.997852 39.500777 M 4.00293 39.500777 L 7.000001 39.500777 M 7.999024 39.500777 L 8.998047 39.500777 M 9.997071 39.500777 L 14.998242 39.500777 M 15.997266 39.500777 L 17.002344 39.500777 M 18.001367 39.500777 L 19.000391 39.500777 M 20.998438 39.500777 L 24.001562 39.500777 M 25.000586 39.500777 L 25.999609 39.500777 M 26.998633 39.500777 L 29.002734 39.500777 M 30.001757 39.500777 L 31.000781 39.500777 M 31.999804 39.500777 L 33.997851 39.500777 M 35.002929 39.500777 L 36.001953 39.500777 M 37.000976 39.500777 L 37.999999 39.500777 M 38.999023 39.500777 L 40.99707 39.500777 M 1.998829 40.4998 L 2.997852 40.4998 M 4.00293 40.4998 L 7.000001 40.4998 M 7.999024 40.4998 L 8.998047 40.4998 M 9.997071 40.4998 L 11.002149 40.4998 M 12.001172 40.4998 L 13.999219 40.4998 M 14.998242 40.4998 L 15.997266 40.4998 M 17.002344 40.4998 L 18.001367 40.4998 M 19.000391 40.4998 L 19.999414 40.4998 M 21.997461 40.4998 L 23.002539 40.4998 M 26.998633 40.4998 L 30.001757 40.4998 M 31.999804 40.4998 L 32.998828 40.4998 M 35.002929 40.4998 L 39.998046 40.4998 M 1.998829 41.498824 L 2.997852 41.498824 M 7.999024 41.498824 L 8.998047 41.498824 M 12.001172 41.498824 L 19.000391 41.498824 M 20.998438 41.498824 L 25.999609 41.498824 M 27.997656 41.498824 L 31.000781 41.498824 M 32.998828 41.498824 L 36.001953 41.498824 M 37.999999 41.498824 L 39.998046 41.498824 M 40.99707 41.498824 L 42.002148 41.498824 M 1.998829 42.497847 L 8.998047 42.497847 M 9.997071 42.497847 L 11.002149 42.497847 M 12.001172 42.497847 L 18.001367 42.497847 M 20.998438 42.497847 L 21.997461 42.497847 M 24.001562 42.497847 L 31.999804 42.497847 M 32.998828 42.497847 L 33.997851 42.497847 M 35.002929 42.497847 L 36.001953 42.497847 M 37.000976 42.497847 L 40.99707 42.497847 " stroke="#000000" stroke-width="1" stroke-opacity="1" stroke-miterlimit="4"/></g></g></g></svg>