<svg xmlns="http://www.w3.org/2000/svg" xmlns:xlink="http://www.w3.org/1999/xlink" width="100" zoomAndPan="magnify" viewBox="0 0 75 74.999997" height="100" preserveAspectRatio="xMidYMid meet" version="1.0"><path fill="#221c35" d="M 74.953125 23.945312 L 69.964844 5.3125 L 69.5 3.59375 L 69.496094 3.578125 C 69.492188 3.5625 69.488281 3.546875 69.484375 3.53125 L 69.015625 1.792969 C 68.863281 1.226562 68.285156 0.890625 67.71875 1.042969 L 58.71875 3.453125 C 58.449219 3.527344 58.214844 3.703125 58.074219 3.949219 C 57.933594 4.191406 57.894531 4.480469 57.96875 4.753906 L 58.871094 8.128906 C 58.078125 8.125 57.335938 8.03125 56.742188 7.726562 L 44.828125 0.847656 C 43.421875 0.0390625 41.78125 -0.175781 40.210938 0.242188 L 16.75 6.53125 C 15.476562 6.871094 14.40625 7.695312 13.746094 8.84375 C 13.082031 9.992188 12.902344 11.324219 13.246094 12.597656 C 13.585938 13.875 14.40625 14.941406 15.554688 15.605469 C 16.703125 16.265625 18.039062 16.445312 19.3125 16.101562 L 19.625 16.019531 C 14.804688 21.285156 12.261719 28.53125 12.261719 37.0625 L 12.261719 51.042969 L 11.898438 51.140625 L 11.5625 49.886719 L 11.558594 49.871094 C 11.554688 49.855469 11.550781 49.839844 11.546875 49.824219 L 11.078125 48.085938 C 10.925781 47.519531 10.34375 47.1875 9.777344 47.335938 L 0.78125 49.746094 C 0.507812 49.820312 0.277344 49.996094 0.136719 50.242188 C -0.00390625 50.484375 -0.0429688 50.773438 0.0273438 51.046875 L 5.019531 69.675781 L 5.484375 71.414062 C 5.488281 71.425781 5.492188 71.4375 5.496094 71.445312 L 5.964844 73.195312 C 6.035156 73.46875 6.214844 73.699219 6.457031 73.839844 C 6.621094 73.933594 6.804688 73.984375 6.988281 73.984375 C 7.082031 73.984375 7.171875 73.972656 7.261719 73.949219 L 16.261719 71.539062 C 16.828125 71.386719 17.164062 70.804688 17.011719 70.238281 L 16.109375 66.863281 C 16.90625 66.863281 17.648438 66.957031 18.242188 67.261719 L 30.160156 74.144531 C 31.089844 74.679688 32.128906 74.953125 33.179688 74.953125 C 33.710938 74.953125 34.246094 74.882812 34.777344 74.742188 L 58.234375 68.460938 C 59.695312 68.070312 60.824219 67.058594 61.425781 65.789062 L 67.386719 65.789062 C 67.972656 65.789062 68.445312 65.316406 68.445312 64.730469 L 68.445312 55.585938 C 68.445312 55 67.972656 54.527344 67.386719 54.527344 L 63.375 54.527344 C 64.121094 53.582031 64.566406 52.394531 64.566406 51.101562 L 64.566406 37.0625 C 64.566406 32.289062 63.769531 27.921875 62.226562 24.074219 L 63.085938 23.84375 L 63.425781 25.121094 C 63.429688 25.140625 63.4375 25.164062 63.445312 25.183594 L 63.902344 26.902344 C 63.976562 27.175781 64.152344 27.40625 64.398438 27.546875 C 64.558594 27.640625 64.742188 27.691406 64.929688 27.691406 C 65.019531 27.691406 65.113281 27.675781 65.203125 27.652344 L 74.203125 25.242188 C 74.765625 25.09375 75.101562 24.511719 74.953125 23.945312 Z M 14.382812 37.0625 C 14.382812 26.488281 18.402344 19.1875 23.992188 14.847656 L 35.472656 11.773438 C 35.414062 11.859375 35.359375 11.949219 35.308594 12.039062 C 34.710938 13.074219 34.554688 14.28125 34.867188 15.4375 C 35.109375 16.339844 35.613281 17.121094 36.308594 17.707031 C 31.335938 18.6875 27.570312 23.082031 27.570312 28.339844 C 27.570312 32.414062 29.832031 35.96875 33.160156 37.824219 C 27.738281 39.429688 23.347656 43.457031 21.242188 48.648438 C 21.160156 48.664062 21.078125 48.683594 20.996094 48.707031 L 14.382812 50.476562 Z M 47.136719 28.339844 C 47.136719 33.152344 43.222656 37.0625 38.414062 37.0625 C 33.605469 37.0625 29.691406 33.152344 29.691406 28.339844 C 29.691406 23.53125 33.605469 19.621094 38.414062 19.621094 C 38.832031 19.621094 39.242188 19.652344 39.644531 19.707031 L 45.265625 22.953125 C 46.433594 24.4375 47.136719 26.308594 47.136719 28.339844 Z M 54.78125 54.527344 L 34.042969 54.527344 L 25.085938 49.355469 C 24.621094 49.058594 24.089844 48.839844 23.53125 48.703125 C 26.136719 43.089844 31.828125 39.183594 38.414062 39.183594 C 47.101562 39.183594 54.234375 45.976562 54.78125 54.527344 Z M 7.738281 71.625 L 7.546875 70.910156 C 7.546875 70.898438 7.542969 70.890625 7.539062 70.878906 L 7.53125 70.851562 L 2.351562 51.523438 L 9.304688 49.660156 L 9.492188 50.355469 L 9.496094 50.371094 C 9.5 50.382812 9.503906 50.398438 9.507812 50.414062 L 9.976562 52.15625 L 14.6875 69.761719 Z M 57.6875 66.410156 L 34.226562 72.695312 C 33.199219 72.96875 32.128906 72.828125 31.21875 72.304688 L 19.28125 65.410156 C 19.265625 65.402344 19.253906 65.394531 19.238281 65.386719 C 18.257812 64.878906 17.15625 64.738281 16.0625 64.738281 C 15.886719 64.738281 15.714844 64.742188 15.542969 64.75 L 12.449219 53.191406 L 21.546875 50.753906 C 22.300781 50.554688 23.289062 50.714844 23.949219 51.148438 C 23.964844 51.160156 23.984375 51.167969 24 51.179688 L 36.976562 58.671875 C 37.515625 58.984375 37.90625 59.492188 38.070312 60.105469 C 38.234375 60.714844 38.152344 61.351562 37.839844 61.890625 C 37.207031 62.980469 35.847656 63.339844 34.726562 62.722656 C 34.726562 62.722656 34.726562 62.71875 34.722656 62.71875 L 24.921875 57.097656 C 24.410156 56.808594 23.761719 56.984375 23.472656 57.492188 C 23.179688 58 23.355469 58.648438 23.863281 58.941406 L 33.597656 64.519531 C 33.609375 64.527344 33.621094 64.535156 33.632812 64.542969 C 33.636719 64.542969 33.636719 64.542969 33.636719 64.546875 L 35.1875 65.433594 C 36.359375 66.101562 37.128906 66.050781 39.011719 65.546875 L 56.222656 60.9375 C 57.730469 60.53125 59.285156 61.429688 59.691406 62.9375 C 60.09375 64.449219 59.191406 66.007812 57.6875 66.410156 Z M 66.324219 56.648438 L 66.324219 63.667969 L 61.90625 63.667969 C 61.90625 63.246094 61.851562 62.816406 61.738281 62.386719 C 61.03125 59.75 58.308594 58.179688 55.671875 58.886719 L 39.511719 63.214844 C 39.570312 63.132812 39.625 63.042969 39.675781 62.953125 C 40.910156 60.8125 40.175781 58.066406 38.035156 56.832031 L 37.714844 56.648438 Z M 62.441406 37.0625 L 62.441406 51.101562 C 62.441406 52.992188 60.90625 54.527344 59.019531 54.527344 L 56.90625 54.527344 C 56.457031 46.601562 51.003906 39.996094 43.667969 37.824219 C 46.996094 35.96875 49.257812 32.414062 49.257812 28.339844 C 49.257812 27.15625 49.0625 26.011719 48.707031 24.941406 L 49.898438 25.628906 C 50.710938 26.160156 51.738281 26.441406 52.738281 26.441406 C 53.164062 26.441406 53.585938 26.390625 53.984375 26.285156 L 60.171875 24.625 C 61.609375 28.113281 62.441406 32.246094 62.441406 37.0625 Z M 53.433594 24.234375 C 52.679688 24.4375 51.695312 24.277344 51.039062 23.84375 C 51.023438 23.832031 51.003906 23.820312 50.984375 23.808594 L 38.007812 16.316406 C 37.46875 16.003906 37.078125 15.496094 36.914062 14.886719 C 36.75 14.277344 36.832031 13.640625 37.148438 13.097656 C 37.566406 12.367188 38.316406 11.964844 39.105469 11.964844 C 39.503906 11.964844 39.914062 12.070312 40.296875 12.289062 C 40.304688 12.292969 40.316406 12.296875 40.324219 12.304688 L 50.0625 17.886719 C 50.226562 17.984375 50.410156 18.027344 50.585938 18.027344 C 50.957031 18.027344 51.3125 17.835938 51.507812 17.496094 C 51.800781 16.988281 51.625 16.339844 51.117188 16.046875 L 41.316406 10.425781 C 41.308594 10.421875 41.296875 10.417969 41.289062 10.414062 L 39.792969 9.558594 C 38.628906 8.886719 37.855469 8.9375 35.972656 9.445312 L 18.765625 14.054688 C 18.035156 14.25 17.273438 14.144531 16.617188 13.765625 C 15.960938 13.386719 15.492188 12.777344 15.292969 12.046875 C 15.101562 11.324219 15.203125 10.5625 15.582031 9.902344 C 15.960938 9.246094 16.570312 8.773438 17.300781 8.578125 L 40.757812 2.292969 C 41.78125 2.019531 42.851562 2.15625 43.765625 2.6875 L 55.703125 9.574219 C 55.71875 9.582031 55.730469 9.589844 55.742188 9.597656 C 56.878906 10.191406 58.175781 10.28125 59.4375 10.238281 L 62.535156 21.796875 Z M 65.679688 25.328125 L 65.488281 24.613281 C 65.484375 24.589844 65.476562 24.570312 65.46875 24.550781 L 65.46875 24.542969 L 60.292969 5.226562 L 67.242188 3.367188 L 67.429688 4.058594 L 67.433594 4.074219 C 67.4375 4.089844 67.441406 4.105469 67.445312 4.121094 L 67.914062 5.863281 L 72.628906 23.46875 Z M 65.679688 25.328125 " fill-opacity="1" fill-rule="nonzero"/></svg>