<?xml version="1.0" encoding="UTF-8"?>
<svg id="Layer_1" data-name="Layer 1" xmlns="http://www.w3.org/2000/svg" viewBox="0 0 100 100">
  <defs>
    <style>
      .cls-1 {
        fill: #1d1d1b;
      }

      .cls-2 {
        fill: #fff2d9;
      }

      .cls-3 {
        fill: #f6c007;
      }
    </style>
  </defs>
  <g>
    <path class="cls-1" d="M45.86,80.41h-14.83v-5.74c0-1.35-.5-2.66-1.4-3.66l-6.58-7.33c-1.87-2.04-2.6-4.48-2.47-8.17v-11.99c.18-1.72,1.32-2.97,2.84-3.17,1.31-.17,3.15.52,4.07,2.99l1.6,8.4c.49-.62,1.16-1.07,1.92-1.25,1.18-.29,2.38.09,3.36,1.09l5.77,6.12c3.02,3.2,5.72,6.46,5.72,11.1v11.62ZM32.02,79.41h12.83v-10.62c0-4.28-2.58-7.37-5.45-10.42l-5.7-6.04c-.78-.79-1.63-1.08-2.46-.88-.83.2-1.54.89-1.85,1.76.06.16.13.32.22.46l5.98,9.42c.15.23.08.54-.15.69-.23.15-.54.08-.69-.15l-5.98-9.42c-.22-.35-.38-.73-.45-1.14l-1.8-9.46c-.7-1.84-2.01-2.39-2.99-2.27-1.07.14-1.84,1.01-1.97,2.23v11.96c-.12,3.42.54,5.65,2.21,7.48l6.59,7.33c1.07,1.19,1.66,2.73,1.66,4.33v4.74Z"/>
    <path class="cls-1" d="M69.71,80.41h-13.87v-11.62c0-4.63,2.52-7.89,5.32-11.09l5.36-6.12c.9-.98,2-1.38,3.11-1.12.7.17,1.34.6,1.82,1.21l1.46-8.25c.87-2.53,2.55-3.24,3.8-3.09,1.46.17,2.55,1.43,2.71,3.12v12.06c.13,3.66-.56,6.1-2.29,8.14l-6.12,7.33c-.84,1.01-1.31,2.31-1.31,3.68v5.74ZM56.84,79.41h11.87v-4.74c0-1.6.55-3.13,1.54-4.32l6.12-7.33c1.56-1.83,2.18-4.07,2.06-7.48v-12.03c-.12-1.19-.84-2.06-1.83-2.18-.88-.1-2.07.45-2.72,2.34l-1.66,9.38c-.07.4-.21.78-.42,1.13l-5.56,9.42c-.14.24-.45.32-.68.18-.24-.14-.32-.45-.18-.68l5.56-9.42c.09-.15.16-.31.21-.48-.29-.9-.97-1.59-1.75-1.78-.75-.18-1.49.11-2.14.82l-5.35,6.1c-2.67,3.05-5.07,6.15-5.07,10.43v10.62Z"/>
  </g>
  <g>
    <path class="cls-2" d="M66.37,35.62v-8.74c0-.59-.42-1.09-1-1.21-2.14-.41-4.25-.96-6.3-1.65-2.93-.98-5.77-2.25-8.46-3.77-.19-.11-.4-.16-.61-.16s-.42.05-.61.16c-2.69,1.52-5.53,2.79-8.46,3.77-2.05.69-4.17,1.24-6.3,1.65-.58.11-1,.62-1,1.21v8.74c0,4.67,1.31,9.24,3.78,13.21.45.73.95,1.42,1.48,2.09.43-.56.91-1.1,1.5-1.61,2.64-2.23,6.17-3.24,9.61-3.23,3.45-.01,6.97,1,9.61,3.23.59.5,1.07,1.04,1.5,1.6.52-.67,1.02-1.36,1.47-2.09,2.47-3.97,3.78-8.53,3.78-13.21ZM50,43.14c-4.3,0-7.78-3.48-7.78-7.78s3.48-7.78,7.78-7.78,7.78,3.48,7.78,7.78-3.48,7.78-7.78,7.78Z"/>
    <path class="cls-2" d="M50,59.01c.05,0,.11-.01.16-.02h-.32c.05,0,.1.02.16.02Z"/>
    <path class="cls-3" d="M59.62,49.31c-2.64-2.23-6.17-3.24-9.61-3.23-3.45-.01-6.97,1-9.61,3.23-.59.5-1.07,1.04-1.5,1.61,2.32,3,5.3,5.45,8.73,7.14l1.55.76c.21.1.45.16.69.18h.32c.24-.02.47-.07.68-.18l1.55-.76c3.43-1.69,6.4-4.14,8.73-7.14-.43-.56-.91-1.1-1.5-1.6Z"/>
    <circle class="cls-3" cx="50" cy="35.35" r="7.78"/>
  </g>
</svg>