<?xml version="1.0" encoding="UTF-8"?>
<svg id="Layer_1" data-name="Layer 1" xmlns="http://www.w3.org/2000/svg" viewBox="0 0 100 100">
  <defs>
    <style>
      .cls-1 {
        fill: #d4d1d7;
      }

      .cls-2 {
        fill: #1d1d1b;
      }

      .cls-3 {
        fill: #2a1a39;
      }
    </style>
  </defs>
  <g>
    <g>
      <path class="cls-2" d="M49.8,78.04c-.73,0-1.46-.03-2.19-.09-7.29-.58-13.93-3.97-18.69-9.55-4.76-5.58-7.06-12.67-6.48-19.96.33-4.17,1.57-8.11,3.68-11.7.14-.24.45-.32.68-.18.24.14.32.45.18.68-2.03,3.45-3.23,7.25-3.55,11.27-.56,7.02,1.66,13.86,6.24,19.23,4.58,5.38,10.98,8.65,18.01,9.21,5.17.41,10.3-.7,14.83-3.2.24-.13.55-.05.68.2s.05.55-.2.68c-4.06,2.25-8.58,3.41-13.2,3.41Z"/>
      <polygon class="cls-2" points="28.62 41.89 27.65 42.14 26.43 37.36 21.75 38.93 21.43 37.98 27.13 36.07 28.62 41.89"/>
    </g>
    <g>
      <path class="cls-2" d="M74.25,61.97c-.07,0-.14-.01-.2-.04-.25-.11-.36-.41-.25-.66,1.64-3.65,2.42-7.55,2.3-11.58-.21-7.04-3.16-13.59-8.31-18.44-5.15-4.84-11.86-7.41-18.9-7.18-5.18.16-10.16,1.82-14.39,4.8-.23.16-.54.11-.7-.12-.16-.23-.1-.54.12-.7,4.39-3.1,9.56-4.82,14.94-4.99,7.32-.2,14.28,2.43,19.62,7.46,5.34,5.03,8.4,11.82,8.62,19.13.13,4.19-.68,8.23-2.38,12.02-.08.19-.27.29-.46.29Z"/>
      <polygon class="cls-2" points="71.67 56.83 72.61 56.48 74.34 61.09 78.82 59.02 79.24 59.93 73.79 62.45 71.67 56.83"/>
    </g>
  </g>
  <g>
    <path class="cls-1" d="M78.05,72.98h0s-9.63-9.64-9.63-9.64l-1.18,1.18-1.67-1.67.18-.18c6.33-7.93,5.83-19.55-1.51-26.89-3.82-3.82-8.9-5.92-14.29-5.92s-10.48,2.1-14.3,5.92-5.92,8.89-5.92,14.3,2.1,10.48,5.92,14.29c3.94,3.94,9.12,5.91,14.29,5.91,4.46,0,8.92-1.47,12.59-4.4l.18-.18,1.67,1.67-1.18,1.18,9.64,9.64c1.44,1.44,3.78,1.44,5.22,0,1.44-1.45,1.44-3.78,0-5.22ZM40.06,59.96c-2.64-2.64-4.09-6.14-4.09-9.87s1.45-7.23,4.09-9.87c2.64-2.64,6.14-4.09,9.87-4.09s7.23,1.45,9.87,4.09c5.44,5.44,5.44,14.3,0,19.74-5.44,5.44-14.3,5.44-19.74,0Z"/>
    <path class="cls-2" d="M49.93,64.55c-3.87,0-7.5-1.5-10.22-4.23h0c-2.73-2.73-4.24-6.36-4.24-10.22s1.51-7.49,4.24-10.22,6.36-4.24,10.22-4.24,7.49,1.5,10.22,4.24c2.73,2.73,4.23,6.36,4.23,10.23s-1.5,7.5-4.23,10.22c-2.73,2.73-6.36,4.23-10.22,4.23ZM49.93,36.63c-3.59,0-6.97,1.4-9.52,3.95-2.54,2.54-3.95,5.92-3.95,9.52s1.4,6.97,3.95,9.52h0c2.54,2.54,5.92,3.94,9.52,3.94s6.98-1.4,9.52-3.94c2.54-2.54,3.94-5.92,3.94-9.51s-1.4-6.98-3.94-9.52c-2.54-2.54-5.92-3.95-9.52-3.95Z"/>
  </g>
  <path class="cls-3" d="M47.03,56.57l-5.07-5.07,1.49-1.49,3.58,3.58,8.85-8.85,1.49,1.49-10.34,10.34Z"/>
</svg>