<?xml version="1.0" encoding="UTF-8"?>
<svg id="Layer_1" data-name="Layer 1" xmlns="http://www.w3.org/2000/svg" viewBox="0 0 100 100">
  <defs>
    <style>
      .cls-1 {
        fill: #d4d1d7;
      }

      .cls-2 {
        fill: #1d1d1b;
      }
    </style>
  </defs>
  <g>
    <path class="cls-1" d="M50,18.73c-17.27,0-31.27,14-31.27,31.27s14,31.27,31.27,31.27,31.27-14,31.27-31.27-14-31.27-31.27-31.27ZM57.28,57.29c-4.53,4.53-7.28,17.79-7.28,17.79,0,0-2.75-13.25-7.28-17.79-4.53-4.53-17.79-7.28-17.79-7.28,0,0,13.25-2.76,17.79-7.29,4.53-4.53,7.28-17.79,7.28-17.79h0s2.76,13.25,7.28,17.79c4.53,4.53,17.79,7.29,17.79,7.29,0,0-13.25,2.75-17.79,7.28Z"/>
    <path class="cls-2" d="M50,75.57h0c-.24,0-.44-.17-.49-.4-.03-.13-2.78-13.16-7.15-17.53-4.37-4.37-17.4-7.12-17.53-7.15-.23-.05-.4-.25-.4-.49s.17-.44.4-.49c.13-.03,13.16-2.78,17.53-7.15,4.37-4.37,7.12-17.4,7.15-17.53.05-.25.29-.41.54-.4.23.02.41.2.44.42.13.61,2.86,13.22,7.14,17.51,4.37,4.37,17.4,7.13,17.53,7.15.23.05.4.25.4.49s-.17.44-.4.49c-.13.03-13.16,2.77-17.53,7.15-4.37,4.37-7.12,17.4-7.15,17.53-.05.23-.25.4-.49.4ZM27.14,50c3.97.99,12.4,3.41,15.93,6.93,3.52,3.52,5.95,11.96,6.93,15.93.99-3.97,3.41-12.4,6.93-15.93,3.52-3.52,11.96-5.95,15.93-6.93-3.97-.99-12.4-3.41-15.93-6.93-3.52-3.52-5.95-11.96-6.93-15.93-.99,3.97-3.41,12.4-6.93,15.93-3.52,3.52-11.96,5.95-15.93,6.94Z"/>
  </g>
  <g>
    <path class="cls-2" d="M64.62,37.52c-.13,0-.26-.05-.35-.15-.2-.2-.2-.51,0-.71l12.09-12.09c.2-.2.51-.2.71,0s.2.51,0,.71l-12.09,12.09c-.1.1-.23.15-.35.15Z"/>
    <path class="cls-2" d="M73.11,37.53h-8.49c-.25,0-.46-.19-.5-.44v-8.86c0-.28.22-.5.5-.5s.5.22.5.5v8.29h7.99c.28,0,.5.22.5.5s-.22.5-.5.5Z"/>
  </g>
  <g>
    <path class="cls-2" d="M37.02,35.88c-.13,0-.26-.05-.35-.15l-12.09-12.09c-.2-.2-.2-.51,0-.71s.51-.2.71,0l12.09,12.09c.2.2.2.51,0,.71-.1.1-.23.15-.35.15Z"/>
    <path class="cls-2" d="M37.02,35.88h-8.79c-.28,0-.5-.22-.5-.5s.22-.5.5-.5h8.29v-7.99c0-.28.22-.5.5-.5s.5.22.5.5v8.49c0,.24-.17.45-.41.49-.03,0-.07.01-.1.01Z"/>
  </g>
  <g>
    <path class="cls-2" d="M23.29,75.57c-.13,0-.26-.05-.35-.15-.2-.2-.2-.51,0-.71l12.09-12.09c.2-.2.51-.2.71,0s.2.51,0,.71l-12.09,12.09c-.1.1-.23.15-.35.15Z"/>
    <path class="cls-2" d="M35.38,72.27c-.28,0-.5-.22-.5-.5v-8.29h-7.99c-.28,0-.5-.22-.5-.5s.22-.5.5-.5h8.49c.25,0,.46.19.5.44v8.86c0,.28-.22.5-.5.5Z"/>
  </g>
  <g>
    <path class="cls-2" d="M75.07,77.21c-.13,0-.26-.05-.35-.15l-12.09-12.09c-.2-.2-.2-.51,0-.71s.51-.2.71,0l12.09,12.09c.2.2.2.51,0,.71-.1.1-.23.15-.35.15Z"/>
    <path class="cls-2" d="M62.97,73.61c-.28,0-.5-.22-.5-.5v-8.49c0-.25.19-.46.44-.5h8.86c.28,0,.5.22.5.5s-.22.5-.5.5h-8.29v7.99c0,.28-.22.5-.5.5Z"/>
  </g>
</svg>