<?xml version="1.0" encoding="UTF-8"?>
<svg id="Layer_1" data-name="Layer 1" xmlns="http://www.w3.org/2000/svg" viewBox="0 0 100 100">
  <defs>
    <style>
      .cls-1 {
        fill: #1d1d1b;
      }

      .cls-2 {
        fill: #e94a34;
      }

      .cls-3 {
        fill: #ed6e5d;
      }

      .cls-4 {
        fill: #fbdbd6;
      }
    </style>
  </defs>
  <path class="cls-1" d="M43.77,79.93c-.25,0-.47-.19-.5-.45l-.06-.66c-.16-1.8-.33-3.66-1.2-5.22-.53-.97-1.59-1.57-2.62-1.49l-.75.05c-1.82.13-3.69.27-5.55-.08-1.42-.26-2.67-1.17-3.35-2.44-.54-1.01-.79-2.26-.7-3.6.02-.34.06-.68.11-1.02.04-.27.08-.54.09-.82-.08-.1-.17-.19-.26-.28-.45-.5-.97-1.06-1.12-1.84-.15-.51-.08-1.1.2-1.71-.41-.45-.83-1.06-.85-1.83-.06-.74.23-1.42.49-2.02.06-.15.13-.29.18-.44-.22-.1-.45-.19-.68-.29-.65-.26-1.32-.53-1.86-1.08-1.03-.97-1.24-2.64-.47-3.88.42-.69.95-1.3,1.46-1.88.32-.37.65-.74.95-1.13.17-.23.35-.45.52-.67.74-.93,1.43-1.81,1.68-2.89.11-.38,0-.76-.11-1.2-.06-.21-.11-.43-.15-.64-.37-2.01-.04-4.05.29-5.81.98-4.78,3.94-9.22,8.11-12.2,3.48-2.58,7.93-4.06,12.86-4.28,2.95-.16,5.98.2,9,1.06,5.1,1.54,9.46,4.73,12.28,8.96,4.23,6.18,4.95,14.67,1.85,21.62-.79,1.88-1.98,3.55-3.13,5.17-.23.33-.47.66-.7.99-1.66,2.37-2.47,5.3-2.3,8.25.28,4.41,1.96,8.76,4.74,12.25.17.22.14.53-.08.7-.22.17-.53.14-.7-.08-2.9-3.65-4.66-8.19-4.95-12.81-.19-3.18.69-6.33,2.48-8.88.23-.33.47-.67.7-1,1.12-1.57,2.28-3.2,3.03-4.99,2.97-6.65,2.28-14.76-1.76-20.67-2.69-4.05-6.86-7.08-11.73-8.56-2.9-.83-5.82-1.18-8.66-1.02-4.74.21-9,1.62-12.32,4.09-3.98,2.83-6.79,7.05-7.72,11.58-.32,1.66-.63,3.59-.29,5.44.03.19.08.38.13.56.14.51.29,1.09.11,1.71-.3,1.27-1.09,2.28-1.87,3.25-.17.22-.34.44-.51.65-.31.41-.65.8-.99,1.19-.51.58-.98,1.12-1.36,1.74-.51.83-.37,2,.32,2.65.41.41.96.63,1.54.87.39.16.8.32,1.18.55.2.12.29.35.22.57-.09.32-.22.63-.36.94-.23.54-.45,1.05-.41,1.57.01.46.27.91.81,1.43.17.16.2.41.08.61-.2.34-.41.85-.27,1.32.11.55.48.96.88,1.4.14.16.28.31.42.47.08.09.12.21.11.33-.01.37-.06.74-.11,1.11-.04.31-.09.63-.1.94-.08,1.17.12,2.22.58,3.07.53.99,1.54,1.73,2.65,1.93,1.73.33,3.54.19,5.29.07l.75-.05c1.43-.11,2.85.7,3.56,2.01.97,1.74,1.15,3.71,1.32,5.62l.06.66c.03.27-.18.52-.45.54-.02,0-.03,0-.05,0Z"/>
  <g>
    <path class="cls-4" d="M46.9,46.88s0-.09,0-.13c-3.4-1.95-5.69-5.58-5.76-9.76-3.41,1.98-5.7,5.67-5.7,9.89,0,6.32,5.13,11.45,11.45,11.45,2.09,0,4.04-.57,5.73-1.54-3.42-1.98-5.73-5.67-5.73-9.91Z"/>
    <path class="cls-4" d="M64.04,36.95c-.05,4.17-2.33,7.8-5.69,9.76,0,.06,0,.11,0,.17,0,4.24-2.31,7.93-5.73,9.91,1.69.98,3.64,1.54,5.73,1.54,6.32,0,11.45-5.13,11.45-11.45,0-4.25-2.32-7.96-5.77-9.93Z"/>
    <path class="cls-3" d="M58.36,46.88c0-.06,0-.11,0-.17-1.69.99-3.65,1.56-5.75,1.56s-4.01-.56-5.69-1.52c0,.05,0,.09,0,.13,0,4.24,2.31,7.93,5.73,9.91,3.42-1.98,5.73-5.67,5.73-9.91Z"/>
    <path class="cls-4" d="M52.63,36.97c1.69-.98,3.64-1.54,5.73-1.54s4.01.56,5.69,1.52c0-.04,0-.09,0-.13,0-6.32-5.13-11.45-11.45-11.45s-11.45,5.13-11.45,11.45c0,.06,0,.11,0,.17,1.69-.99,3.65-1.56,5.75-1.56s4.04.57,5.73,1.54Z"/>
    <path class="cls-3" d="M46.91,46.74c.05-4.18,2.34-7.81,5.72-9.77-1.69-.98-3.64-1.54-5.73-1.54s-4.06.57-5.75,1.56c.06,4.18,2.36,7.81,5.76,9.76Z"/>
    <path class="cls-3" d="M52.63,36.97c3.37,1.95,5.66,5.57,5.72,9.73,3.37-1.96,5.65-5.59,5.69-9.76-1.68-.96-3.61-1.52-5.69-1.52s-4.04.57-5.73,1.54Z"/>
    <path class="cls-2" d="M52.63,36.97c-3.38,1.96-5.67,5.59-5.72,9.77,1.68.96,3.61,1.52,5.69,1.52s4.06-.57,5.75-1.56c-.06-4.16-2.34-7.78-5.72-9.73Z"/>
  </g>
</svg>