<?xml version="1.0" encoding="UTF-8"?>
<svg id="Layer_1" data-name="Layer 1" xmlns="http://www.w3.org/2000/svg" viewBox="0 0 100 100">
  <defs>
    <style>
      .cls-1 {
        fill: none;
      }

      .cls-2 {
        fill: #fbb800;
      }

      .cls-3 {
        fill: #1d1d1b;
      }

      .cls-4 {
        fill: #fff2d9;
      }

      .cls-5 {
        fill: #fff;
      }

      .cls-6 {
        fill: #f6c007;
      }
    </style>
  </defs>
  <g>
    <g>
      <path class="cls-1" d="M60.8,66.01c.34-.03.67-.13,1-.25l-15.85,1.66,14.85-1.42Z"/>
      <path class="cls-4" d="M48.41,58.44c3.23.3,6.46.59,9.69.89,5.69-2.94,9.59-8.87,9.59-15.72,0-9.77-7.92-17.69-17.69-17.69s-17.69,7.92-17.69,17.69c0,6.15,3.14,11.56,7.9,14.73,2.68-.33,5.43-.16,8.2.1Z"/>
      <path class="cls-5" d="M61.85,65.76s0-.01.02-.02c-.02,0-.05.02-.07.03h.06Z"/>
    </g>
    <path class="cls-3" d="M30.31,85.13l-10.9-15,.4-.29s12.13-8.82,12.26-8.91c5.06-3.68,10.64-3.51,16.38-2.99l11.04,1.01c1.74.2,3.01,1.06,3.58,2.42.41.99.39,2.17-.02,3.25l10.66-5.19c3.35-1.03,5.4.19,6.21,1.65.93,1.67.44,3.79-1.23,5.27l-13.29,9.66c-3.91,3.05-7.11,4.24-10.7,3.96l-12.99-.88c-1.84-.13-3.69.42-5.22,1.54l-6.18,4.49ZM20.8,70.35l9.72,13.38,5.37-3.9c1.73-1.25,3.82-1.86,5.88-1.73l12.99.88c3.33.26,6.32-.87,10.03-3.76l13.27-9.64c1.27-1.13,1.69-2.76.99-4-.63-1.12-2.27-2.03-4.98-1.21l-11.71,5.71c-.48.24-1,.38-1.52.43l-14.85,1.42c-.28.02-.52-.18-.54-.45-.03-.28.18-.52.45-.55l14.85-1.42c.27-.03.53-.08.79-.17.82-1.1,1.06-2.5.61-3.58-.42-1.01-1.4-1.66-2.77-1.81l-11.02-1.01c-5.55-.51-10.92-.68-15.7,2.8,0,0,0,0,0,0,0,0-.4.29-11.86,8.62Z"/>
  </g>
  <g>
    <path class="cls-6" d="M50,21.5c-.28,0-.5-.22-.5-.5v-5.44c0-.28.22-.5.5-.5s.5.22.5.5v5.44c0,.28-.22.5-.5.5Z"/>
    <path class="cls-6" d="M38.78,24.5c-.17,0-.34-.09-.43-.25l-2.72-4.71c-.14-.24-.06-.54.18-.68.24-.14.54-.06.68.18l2.72,4.71c.14.24.06.54-.18.68-.08.05-.16.07-.25.07Z"/>
    <path class="cls-6" d="M30.57,32.71c-.08,0-.17-.02-.25-.07l-4.71-2.72c-.24-.14-.32-.44-.18-.68.14-.24.44-.32.68-.18l4.71,2.72c.24.14.32.44.18.68-.09.16-.26.25-.43.25Z"/>
    <path class="cls-6" d="M27.56,43.92h-5.44c-.28,0-.5-.22-.5-.5s.22-.5.5-.5h5.44c.28,0,.5.22.5.5s-.22.5-.5.5Z"/>
    <path class="cls-6" d="M25.85,57.85c-.17,0-.34-.09-.43-.25-.14-.24-.06-.54.18-.68l4.71-2.72c.24-.14.54-.06.68.18.14.24.06.54-.18.68l-4.71,2.72c-.08.05-.16.07-.25.07Z"/>
    <path class="cls-6" d="M74.15,57.85c-.08,0-.17-.02-.25-.07l-4.71-2.72c-.24-.14-.32-.44-.18-.68s.44-.32.68-.18l4.71,2.72c.24.14.32.44.18.68-.09.16-.26.25-.43.25Z"/>
    <path class="cls-6" d="M77.88,43.92h-5.44c-.28,0-.5-.22-.5-.5s.22-.5.5-.5h5.44c.28,0,.5.22.5.5s-.22.5-.5.5Z"/>
    <path class="cls-6" d="M69.43,32.71c-.17,0-.34-.09-.43-.25-.14-.24-.06-.54.18-.68l4.71-2.72c.24-.14.54-.06.68.18.14.24.06.54-.18.68l-4.71,2.72c-.08.05-.16.07-.25.07Z"/>
    <path class="cls-6" d="M61.22,24.5c-.08,0-.17-.02-.25-.07-.24-.14-.32-.44-.18-.68l2.72-4.71c.14-.24.44-.32.68-.18.24.14.32.44.18.68l-2.72,4.71c-.09.16-.26.25-.43.25Z"/>
    <path class="cls-2" d="M50.38,30l3.91,7.92c.06.12.18.21.32.23l8.74,1.27c.35.05.48.48.23.72l-6.33,6.16c-.1.1-.14.24-.12.37l1.49,8.7c.06.34-.3.61-.61.44l-7.82-4.11c-.12-.06-.27-.06-.39,0l-7.82,4.11c-.31.16-.67-.1-.61-.44l1.49-8.7c.02-.14-.02-.28-.12-.37l-6.33-6.16c-.25-.24-.11-.67.23-.72l8.74-1.27c.14-.02.26-.11.32-.23l3.91-7.92c.15-.31.6-.31.76,0Z"/>
  </g>
</svg>