<?xml version="1.0" encoding="UTF-8"?>
<svg id="Layer_1" data-name="Layer 1" xmlns="http://www.w3.org/2000/svg" viewBox="0 0 100 100">
  <defs>
    <style>
      .cls-1 {
        fill: #1d1d1b;
      }

      .cls-2 {
        fill: #e94a34;
      }

      .cls-3 {
        fill: #ed6e5d;
      }

      .cls-4 {
        fill: #fbdbd6;
      }
    </style>
  </defs>
  <path class="cls-1" d="M50,20.62c-.28,0-.5-.22-.5-.5v-5.93c0-.28.22-.5.5-.5s.5.22.5.5v5.93c0,.28-.22.5-.5.5Z"/>
  <path class="cls-1" d="M37.77,23.9c-.17,0-.34-.09-.43-.25l-2.96-5.13c-.14-.24-.06-.54.18-.68.24-.14.54-.06.68.18l2.96,5.13c.14.24.06.54-.18.68-.08.05-.16.07-.25.07Z"/>
  <path class="cls-1" d="M28.82,32.84c-.08,0-.17-.02-.25-.07l-5.14-2.96c-.24-.14-.32-.44-.18-.68s.44-.32.68-.18l5.14,2.96c.24.14.32.44.18.68-.09.16-.26.25-.43.25Z"/>
  <path class="cls-1" d="M71.18,32.84c-.17,0-.34-.09-.43-.25-.14-.24-.06-.54.18-.68l5.14-2.96c.24-.14.54-.06.68.18.14.24.06.54-.18.68l-5.14,2.96c-.08.05-.16.07-.25.07Z"/>
  <path class="cls-1" d="M62.23,23.9c-.08,0-.17-.02-.25-.07-.24-.14-.32-.44-.18-.68l2.96-5.13c.14-.24.44-.32.68-.18.24.14.32.44.18.68l-2.96,5.13c-.09.16-.26.25-.43.25Z"/>
  <path class="cls-1" d="M59.24,69.82c-.28,0-.5-.22-.5-.5v-.22c0-4.13,1.65-8.06,4.64-11.08,3.54-3.57,5.49-8.31,5.49-13.35s-2-9.91-5.64-13.5c-3.62-3.57-8.41-5.52-13.5-5.43-10.4.15-18.74,8.76-18.6,19.2.07,4.95,2.03,9.61,5.52,13.11,2.97,2.98,4.61,6.91,4.61,11.04v.22c0,.28-.22.5-.5.5s-.5-.22-.5-.5v-.22c0-3.87-1.53-7.54-4.32-10.34-3.67-3.69-5.74-8.59-5.81-13.81-.15-10.99,8.64-20.06,19.59-20.21,5.36-.09,10.4,1.96,14.22,5.72,3.83,3.78,5.94,8.82,5.94,14.21s-2.05,10.29-5.78,14.06c-2.8,2.83-4.35,6.51-4.35,10.37v.22c0,.28-.22.5-.5.5Z"/>
  <path class="cls-1" d="M57.67,50.61c-1.04,0-2.07-.32-2.93-.93l-4.66-3.32-4.66,3.32c-1.48,1.05-3.43,1.23-5.09.46-1.6-.74-2.64-2.22-2.78-3.94-.01-.15-.02-.3-.02-.45s0-.3.02-.45c.14-1.73,1.18-3.2,2.78-3.94,1.66-.77,3.61-.6,5.09.46l4.66,3.32,4.66-3.32c1.48-1.05,3.43-1.23,5.09-.46,1.6.74,2.64,2.22,2.78,3.94.01.15.02.3.02.45s0,.3-.02.45c-.14,1.72-1.18,3.2-2.78,3.94-.69.32-1.42.48-2.16.48ZM42.48,41.87c-.59,0-1.18.13-1.73.38-1.27.59-2.09,1.76-2.21,3.12,0,.12-.02.25-.02.37s0,.25.02.37c.11,1.36.94,2.53,2.21,3.12,1.34.62,2.9.48,4.09-.36h0l4.38-3.12-4.38-3.12c-.69-.5-1.52-.75-2.35-.75ZM50.94,45.74l4.38,3.12c1.19.85,2.75.99,4.09.36,1.27-.59,2.09-1.76,2.21-3.12.01-.12.02-.25.02-.37s0-.25-.02-.37c-.11-1.36-.93-2.53-2.21-3.12-1.33-.62-2.9-.48-4.09.36l-4.38,3.12Z"/>
  <path class="cls-1" d="M45.12,69.59c-.28,0-.5-.22-.5-.5v-19.82c0-.28.22-.5.5-.5s.5.22.5.5v19.82c0,.28-.22.5-.5.5Z"/>
  <path class="cls-1" d="M55.07,69.59c-.28,0-.5-.22-.5-.5v-19.82c0-.28.22-.5.5-.5s.5.22.5.5v19.82c0,.28-.22.5-.5.5Z"/>
  <rect class="cls-4" x="39.31" y="69.09" width="21.37" height="6.1" rx="2.48" ry="2.48"/>
  <path class="cls-2" d="M43.19,80.02c.18,3.22,3.19,5.78,6.88,5.78s6.72-2.58,6.88-5.81"/>
  <path class="cls-3" d="M41.45,75.19h17.11c.49,0,.88.4.88.88v.76c0,1.79-1.46,3.25-3.25,3.25h-12.37c-1.79,0-3.25-1.46-3.25-3.25v-.76c0-.49.4-.88.88-.88Z"/>
</svg>