<?xml version="1.0" encoding="UTF-8"?>
<svg id="Layer_1" data-name="Layer 1" xmlns="http://www.w3.org/2000/svg" viewBox="0 0 100 100">
  <defs>
    <style>
      .cls-1 {
        fill: #fbb800;
      }

      .cls-2 {
        fill: #1d1d1b;
      }

      .cls-3 {
        fill: #fff2d9;
      }
    </style>
  </defs>
  <path class="cls-2" d="M68.2,27.91H31.9c-.28,0-.5-.22-.5-.5s.22-.5.5-.5h36.3c.28,0,.5.22.5.5s-.22.5-.5.5Z"/>
  <path class="cls-2" d="M50.15,67.59c-.28,0-.5-.22-.5-.5V21.28c0-.28.22-.5.5-.5s.5.22.5.5v45.82c0,.28-.22.5-.5.5Z"/>
  <path class="cls-2" d="M22.98,47.5h0c-.28,0-.5-.23-.49-.51.02-1.19.3-1.74.81-2.74l.12-.24,6.63-15.93c.37-.73,1.07-1.16,1.85-1.16s1.48.43,1.83,1.13l6.77,16.2c.51,1,.79,1.55.81,2.74,0,.28-.21.5-.49.51-.26.02-.5-.21-.51-.49-.02-.96-.22-1.36-.7-2.31l-.12-.24-6.66-16c-.17-.32-.53-.55-.92-.55s-.76.22-.94.58l-6.77,16.2c-.49.95-.69,1.35-.7,2.31,0,.27-.23.49-.5.49Z"/>
  <path class="cls-2" d="M77.31,47.5c-.27,0-.49-.22-.5-.49-.02-.96-.22-1.36-.71-2.31l-.12-.24-6.66-16c-.17-.32-.53-.55-.93-.55s-.76.22-.94.58l-6.77,16.21c-.48.95-.69,1.35-.7,2.31,0,.28-.19.5-.51.49-.28,0-.5-.23-.49-.51.02-1.19.3-1.74.81-2.74l.12-.24,6.63-15.93c.37-.73,1.07-1.16,1.85-1.16s1.48.43,1.83,1.13l6.77,16.2c.51,1,.79,1.55.81,2.75,0,.28-.21.5-.49.51h0Z"/>
  <path class="cls-3" d="M44.48,67.3h11.34c2.49,0,4.51,2.02,4.51,4.51v.63h-20.36v-.63c0-2.49,2.02-4.51,4.51-4.51Z"/>
  <path class="cls-1" d="M41.56,72.44h17.17c3.18,0,5.76,2.58,5.76,5.76v.52h-28.69v-.52c0-3.18,2.58-5.76,5.76-5.76Z"/>
  <polygon class="cls-1" points="54.22 27.41 50.14 30.71 45.97 27.41 50.14 24.12 54.22 27.41"/>
  <path class="cls-2" d="M32.89,57.19h-1.99c-2.71,0-5.23-1.05-7.11-2.97-1.89-1.93-2.95-4.56-2.9-7.23,0-.27.23-.49.5-.49h20.99c.27,0,.5.22.5.49.05,2.67-1,5.31-2.9,7.23-1.88,1.92-4.4,2.97-7.11,2.97ZM21.9,47.5c.08,2.23,1.02,4.41,2.6,6.02,1.69,1.72,3.96,2.67,6.39,2.67h1.99c2.44,0,4.71-.95,6.39-2.67,1.59-1.62,2.52-3.79,2.6-6.02h-19.98Z"/>
  <path class="cls-2" d="M69.1,57.19h-1.99c-2.71,0-5.23-1.05-7.11-2.97-1.89-1.93-2.95-4.56-2.9-7.23,0-.27.23-.49.5-.49h20.99c.27,0,.5.22.5.49.05,2.67-1,5.31-2.9,7.23-1.88,1.91-4.4,2.97-7.11,2.97ZM58.11,47.5c.08,2.23,1.02,4.41,2.6,6.02,1.69,1.72,3.96,2.67,6.39,2.67h1.99c2.44,0,4.71-.95,6.39-2.67,1.59-1.62,2.52-3.79,2.6-6.02h-19.98Z"/>
</svg>