<?xml version="1.0" encoding="UTF-8"?>
<svg id="Layer_1" data-name="Layer 1" xmlns="http://www.w3.org/2000/svg" viewBox="0 0 100 100">
  <defs>
    <style>
      .cls-1 {
        fill: #d4d1d7;
      }

      .cls-2 {
        fill: #1d1d1b;
      }

      .cls-3 {
        fill: #554861;
      }

      .cls-4 {
        fill: #2a1a39;
      }
    </style>
  </defs>
  <path class="cls-4" d="M72,50.8h8.21c.83,0,1.51.68,1.51,1.51v27.76h-11.23v-27.76c0-.83.68-1.51,1.51-1.51Z"/>
  <path class="cls-3" d="M57.22,60.97h8.21c.83,0,1.51.68,1.51,1.51v17.59h-11.23v-17.59c0-.83.68-1.51,1.51-1.51Z"/>
  <path class="cls-1" d="M42.43,71.37h8.21c.83,0,1.51.68,1.51,1.51v7.19h-11.23v-7.19c0-.83.68-1.51,1.51-1.51Z"/>
  <g>
    <path class="cls-2" d="M41.12,33.24c-3.82,0-6.93-3.1-6.93-6.91s3.11-6.91,6.93-6.91,6.93,3.1,6.93,6.91-3.11,6.91-6.93,6.91ZM41.12,20.43c-3.27,0-5.93,2.65-5.93,5.91s2.66,5.91,5.93,5.91,5.93-2.65,5.93-5.91-2.66-5.91-5.93-5.91Z"/>
    <path class="cls-2" d="M26.58,80.57h-8.31c-.17,0-.34-.09-.43-.24-.09-.15-.1-.33-.02-.49,1.88-3.66,3.76-7.39,5.64-11.13,1.89-3.76,3.79-7.53,5.68-11.21.43-.83.43-1.83,0-2.66l-.45-.87c-.55,1.42-2.14,2.35-3.78,2.23-.9-.07-1.75-.5-2.31-1.19-.56-.69-.81-1.56-.7-2.45l1.07-8.47c.19-1.52.81-2.92,1.8-4.04,1.45-1.65,3.95-3.86,7.62-5.01,4.79-1.5,9.05-.44,11.77.71,1.02.43,1.93,1.01,2.8,1.57,1.34.86,2.61,1.68,4.21,1.94,2.92.48,5.25-.61,6.37-1.3,1.04-.64,2.31-.57,3.32.17,1.09.8,1.59,2.14,1.27,3.42-.33,1.29-1.4,1.8-2.34,2.25-.56.27-1.11.56-1.67.84-1.47.77-2.99,1.56-4.58,1.96-1.51.39-3.04.4-4.54.04l-4.71-1.14c-.2-.04-.39.06-.45.25l-1.34,4.32c-.34,1.08.16,2.22,1.19,2.71l.83.4c.95.45,1.9.91,2.85,1.35.21.1.44.2.66.29.87.38,1.77.76,2.46,1.5,1.48,1.57,1.17,3.92.96,5.48-.15,1.11-.36,3.32-.54,5.27-.42,4.47-.43,4.48-.62,4.66-.09.1-.22.15-.36.15h-6.81c-.14,0-.27-.06-.37-.16s-.14-.24-.13-.38l.73-8.5c.01-.17-.1-.33-.26-.38l-5.67-1.85c-1.7,3.01-3.42,6.39-5.09,9.66-1.74,3.41-3.54,6.94-5.32,10.06-.09.16-.25.25-.43.25ZM19.09,79.57h7.2c1.72-3.04,3.46-6.46,5.15-9.77,1.74-3.41,3.54-6.93,5.31-10.05.12-.21.36-.3.59-.23l6.06,1.97c.6.2.99.78.95,1.41l-.69,7.96h5.85c.09-.72.25-2.4.39-3.91.2-2.05.4-4.18.55-5.31.24-1.81.37-3.53-.69-4.66-.55-.58-1.32-.91-2.13-1.26-.23-.1-.46-.2-.68-.3-.96-.45-1.91-.9-2.86-1.36l-.83-.4c-1.45-.69-2.19-2.38-1.71-3.91l1.34-4.32c.21-.69.93-1.1,1.64-.93l4.71,1.14c1.34.32,2.71.31,4.05-.04,1.48-.38,2.95-1.14,4.37-1.88.57-.29,1.13-.59,1.68-.85.87-.42,1.61-.77,1.82-1.6.22-.88-.13-1.8-.89-2.37-.68-.5-1.51-.55-2.21-.12-1.25.76-3.82,1.96-7.05,1.44-1.81-.29-3.22-1.2-4.59-2.08-.84-.54-1.71-1.1-2.65-1.5-2.57-1.08-6.58-2.08-11.08-.68-3.45,1.08-5.8,3.16-7.16,4.71-.86.98-1.4,2.19-1.56,3.51l-1.07,8.47c-.08.62.09,1.22.48,1.69.4.49.97.78,1.61.83,1.23.11,2.44-.63,2.81-1.67l.35-.99c.07-.19.24-.32.44-.33.2-.02.39.09.48.27l.98,1.91c.57,1.12.57,2.46,0,3.58-1.89,3.68-3.78,7.44-5.67,11.2-1.76,3.49-3.51,6.99-5.27,10.41Z"/>
    <path class="cls-2" d="M28.47,53.64s-.03,0-.05,0c-.27-.03-.48-.27-.45-.55l.11-1.18c.26-2.7.47-4.83,1.36-8.45.07-.27.33-.44.6-.37.27.07.43.34.37.6-.87,3.55-1.06,5.55-1.33,8.31l-.12,1.18c-.03.26-.24.45-.5.45Z"/>
  </g>
</svg>