<?xml version="1.0" encoding="UTF-8"?>
<svg id="Layer_1" data-name="Layer 1" xmlns="http://www.w3.org/2000/svg" viewBox="0 0 100 100">
  <defs>
    <style>
      .cls-1 {
        fill: #468e99;
      }

      .cls-2 {
        fill: #1d1d1b;
      }

      .cls-3 {
        fill: #b5d2d6;
      }
    </style>
  </defs>
  <path class="cls-2" d="M50.05,87.82c-15.68,0-28.44-8.48-28.44-18.9,0-.28.22-.5.5-.5s.5.22.5.5c0,9.87,12.31,17.9,27.44,17.9s27.44-8.03,27.44-17.9c0-.28.22-.5.5-.5s.5.22.5.5c0,10.42-12.76,18.9-28.44,18.9Z"/>
  <path class="cls-1" d="M44.01,65.05c0-3.88-2.75-7.12-6.41-7.88-.25-.05-.52.05-.67.26l-3.72,5.14c-.26.36-.8.36-1.06,0l-3.72-5.14c-.15-.21-.41-.31-.67-.26-3.66.75-6.41,3.99-6.41,7.88v3.72c0,.2.16.36.36.36h17.46"/>
  <path class="cls-3" d="M60.39,69.13h17.92c.2,0,.36-.16.36-.36v-3.72c0-3.88-2.75-7.12-6.41-7.88-.25-.05-.51.05-.67.26l-3.72,5.14c-.26.36-.8.36-1.06,0l-3.73-5.14c-.15-.21-.41-.31-.67-.26-3.66.75-6.41,3.99-6.41,7.88"/>
  <circle class="cls-1" cx="32.67" cy="49.68" r="6.37"/>
  <circle class="cls-3" cx="67.33" cy="49.68" r="6.37"/>
  <path class="cls-2" d="M49.78,62.08c-4.37,0-7.92-3.55-7.92-7.92s3.55-7.92,7.92-7.92,7.92,3.55,7.92,7.92-3.55,7.92-7.92,7.92ZM49.78,47.24c-3.82,0-6.92,3.1-6.92,6.92s3.1,6.92,6.92,6.92,6.92-3.1,6.92-6.92-3.1-6.92-6.92-6.92Z"/>
  <path class="cls-2" d="M62.92,77.32c-.28,0-.5-.22-.5-.5,0-6.91-5.62-12.52-12.52-12.52s-12.52,5.62-12.52,12.52c0,.28-.22.5-.5.5s-.5-.22-.5-.5c0-7.46,6.07-13.52,13.52-13.52s13.52,6.07,13.52,13.52c0,.28-.22.5-.5.5Z"/>
  <path class="cls-2" d="M49.91,43.3c-.32,0-.61-.19-.74-.49-.39-.91-1.01-2.34-1.75-3.93-.62-1.34-1.66-2.5-3-3.33-4.22-2.1-6.84-6.33-6.84-11.04,0-6.8,5.53-12.33,12.33-12.33s12.33,5.53,12.33,12.33c0,4.72-2.63,8.96-6.86,11.05-1.3.81-2.35,1.97-2.98,3.32-.79,1.7-1.44,3.19-1.75,3.93-.13.3-.42.49-.74.49ZM44.77,34.61h.02l.12.08c1.52.94,2.7,2.24,3.41,3.78.64,1.38,1.19,2.63,1.58,3.54.35-.81.92-2.1,1.58-3.54.71-1.53,1.88-2.83,3.4-3.77,3.93-1.95,6.35-5.84,6.35-10.18,0-6.25-5.08-11.33-11.33-11.33s-11.33,5.08-11.33,11.33c0,4.29,2.37,8.15,6.19,10.1Z"/>
  <path class="cls-2" d="M55.77,23.22h-11.73c-.28,0-.5-.22-.5-.5s.22-.5.5-.5h11.73c.28,0,.5.22.5.5s-.22.5-.5.5Z"/>
  <path class="cls-2" d="M55.77,26.8h-11.73c-.28,0-.5-.22-.5-.5s.22-.5.5-.5h11.73c.28,0,.5.22.5.5s-.22.5-.5.5Z"/>
</svg>