<?xml version="1.0" encoding="UTF-8"?>
<svg id="Layer_1" data-name="Layer 1" xmlns="http://www.w3.org/2000/svg" viewBox="0 0 100 100">
  <defs>
    <style>
      .cls-1 {
        fill: #1d1d1b;
      }

      .cls-2 {
        fill: #e94a34;
      }

      .cls-3 {
        fill: #ed6e5d;
      }

      .cls-4 {
        fill: #fbdbd6;
      }
    </style>
  </defs>
  <g>
    <path class="cls-1" d="M50,77.72c-1.99,0-3.79-1-4.7-2.62-.33-.59-.93-.95-1.58-.95h-22.06c-1.41,0-2.56-1.15-2.56-2.57v-35.81c0-1.31,1.06-2.37,2.36-2.37h57.08c1.3,0,2.36,1.06,2.36,2.37v35.81c0,1.42-1.15,2.57-2.56,2.57h-22.06c-.64,0-1.25.36-1.57.95-.91,1.62-2.71,2.62-4.7,2.62ZM21.46,34.41c-.75,0-1.36.61-1.36,1.37v35.81c0,.86.7,1.57,1.56,1.57h22.06c1,0,1.94.56,2.45,1.46.73,1.3,2.2,2.11,3.83,2.11s3.1-.81,3.83-2.11c.5-.9,1.44-1.46,2.45-1.46h22.06c.86,0,1.56-.7,1.56-1.57v-35.81c0-.75-.61-1.37-1.36-1.37H21.46Z"/>
    <g>
      <path class="cls-4" d="M64.91,68.07c3.97-.16,7.44.12,10.06.69.47.1.91-.32.91-.89V30.32c0-.44-.27-.82-.65-.89-5.09-.93-12.26-1.29-20.13,1.55-.91.33-1.78.68-2.62,1.06-.8.36-1.64.54-2.49.56-.95.02-1.9-.18-2.8-.59-1.26-.57-2.62-1.11-4.07-1.57-7.36-2.35-13.9-1.87-18.37-1-.37.07-.65.45-.65.89v37.55c0,.56.43.99.91.89,4.42-.94,11.26-1.54,18.8,1.39,1.15.45,2.22.94,3.23,1.46.94.49,1.95.72,2.95.7.91-.02,1.81-.25,2.67-.69,1.01-.52,2.09-1.02,3.24-1.47.55-.21,1.09-.41,1.62-.58,0,0,4.69-1.39,7.39-1.5Z"/>
      <path class="cls-1" d="M50,72.8c-.28,0-.5-.22-.5-.5v-11.64c0-.28.22-.5.5-.5s.5.22.5.5v11.64c0,.28-.22.5-.5.5Z"/>
    </g>
  </g>
  <path class="cls-1" d="M50.18,47.67c-.07,0-.13-.01-.19-.04l-17.71-7.43c-.25-.11-.38-.4-.27-.65.11-.25.4-.38.65-.27l16.74,7.02-5.48-18.82c-.08-.27.08-.54.34-.62.27-.08.54.08.62.34l5.77,19.82c.05.19,0,.38-.15.51-.09.08-.21.13-.33.13Z"/>
  <path class="cls-1" d="M62.79,61.42c-.13,0-.27-.05-.37-.16l-12.6-13.75c-.1-.11-.15-.26-.13-.41.02-.15.11-.28.23-.36l17.34-10.73c.23-.15.54-.07.69.16.15.23.07.54-.16.69l-16.82,10.41,12.2,13.31c.19.2.17.52-.03.71-.1.09-.22.13-.34.13Z"/>
  <path class="cls-1" d="M33.44,61.16c-.15,0-.29-.06-.39-.19-.17-.22-.14-.53.08-.7l16.74-13.49c.21-.17.53-.14.7.08.17.22.14.53-.08.7l-16.74,13.49c-.09.07-.2.11-.31.11Z"/>
  <circle class="cls-3" cx="44.41" cy="27.34" r="4.56"/>
  <circle class="cls-3" cx="67.52" cy="36.44" r="4.56"/>
  <circle class="cls-2" cx="62.79" cy="60.92" r="4.56"/>
  <circle class="cls-2" cx="32.48" cy="39.74" r="4.56"/>
  <circle class="cls-3" cx="33.44" cy="60.66" r="4.56"/>
  <circle class="cls-2" cx="50.19" cy="47.17" r="6.3"/>
</svg>