<svg xmlns="http://www.w3.org/2000/svg" xmlns:xlink="http://www.w3.org/1999/xlink" width="100" zoomAndPan="magnify" viewBox="0 0 75 74.999997" height="100" preserveAspectRatio="xMidYMid meet" version="1.0"><defs><clipPath id="47ec95f758"><path d="M 18 32 L 59 32 L 59 74.789062 L 18 74.789062 Z M 18 32 " clip-rule="nonzero"/></clipPath><clipPath id="faf3adb1eb"><path d="M 3.308594 34 L 36 34 L 36 67 L 3.308594 67 Z M 3.308594 34 " clip-rule="nonzero"/></clipPath><clipPath id="d34c4c7ada"><path d="M 16 0.539062 L 49 0.539062 L 49 33 L 16 33 Z M 16 0.539062 " clip-rule="nonzero"/></clipPath><clipPath id="cc7170ebea"><path d="M 57 2 L 71.558594 2 L 71.558594 18 L 57 18 Z M 57 2 " clip-rule="nonzero"/></clipPath></defs><g clip-path="url(#47ec95f758)"><path fill="#221c35" d="M 56.441406 38.816406 C 54.953125 36.367188 52.6875 34.929688 50.03125 34.082031 C 45.066406 32.496094 39.992188 32.660156 34.902344 33.25 C 34.089844 33.34375 33.59375 34.132812 33.664062 34.988281 C 33.734375 35.785156 34.347656 36.355469 35.183594 36.375 C 35.46875 36.378906 35.757812 36.347656 36.042969 36.34375 C 38.835938 36.296875 41.625 36.148438 44.410156 36.234375 C 46.6875 36.304688 48.90625 36.855469 50.945312 37.945312 C 52.96875 39.027344 54.257812 40.667969 54.503906 42.976562 C 54.730469 45.128906 54.957031 47.296875 54.96875 49.457031 C 54.988281 54.996094 54.898438 60.535156 54.824219 66.074219 C 54.816406 66.636719 54.691406 67.226562 54.496094 67.753906 C 53.6875 69.933594 51.855469 71.203125 49.496094 71.207031 C 41.183594 71.21875 32.871094 71.210938 24.558594 71.210938 C 24.429688 71.210938 24.296875 71.207031 24.167969 71.195312 C 23.046875 71.109375 22.230469 70.257812 22.203125 69.144531 C 22.171875 68.011719 22.910156 67.082031 24.011719 66.945312 C 27.589844 66.515625 31.167969 66.101562 34.742188 65.6875 C 38.371094 65.261719 42 64.847656 45.628906 64.410156 C 46.570312 64.296875 47.140625 63.488281 47.011719 62.558594 C 46.902344 61.730469 46.15625 61.140625 45.273438 61.230469 C 43.507812 61.414062 41.742188 61.621094 39.980469 61.828125 C 36.144531 62.277344 32.3125 62.726562 28.476562 63.183594 C 26.664062 63.398438 24.828125 63.515625 23.046875 63.882812 C 20.484375 64.417969 18.703125 66.972656 18.96875 69.457031 C 19.28125 72.378906 21.5 74.433594 24.433594 74.449219 C 28.644531 74.46875 32.851562 74.453125 37.058594 74.453125 C 37.058594 74.453125 37.058594 74.449219 37.058594 74.449219 C 41.214844 74.449219 45.371094 74.46875 49.527344 74.441406 C 51.933594 74.425781 54.011719 73.554688 55.6875 71.804688 C 57.410156 70.003906 57.96875 67.8125 58.0625 65.363281 C 58.335938 58.125 58.460938 50.894531 57.8125 43.667969 C 57.660156 41.96875 57.347656 40.308594 56.441406 38.816406 Z M 56.441406 38.816406 " fill-opacity="1" fill-rule="nonzero"/></g><g clip-path="url(#faf3adb1eb)"><path fill="#221c35" d="M 24.675781 60.328125 C 27.992188 55.667969 31.167969 50.910156 34.386719 46.179688 C 36.296875 43.367188 35.609375 39.414062 32.898438 37.425781 C 30.042969 35.328125 26.0625 35.8125 23.945312 38.648438 C 20.601562 43.125 17.34375 47.667969 14.0625 52.191406 C 13.429688 53.0625 13.5625 53.984375 14.328125 54.539062 C 15.105469 55.101562 15.988281 54.933594 16.640625 54.066406 C 17.425781 53.023438 18.1875 51.964844 18.957031 50.910156 C 21.421875 47.53125 23.878906 44.152344 26.347656 40.777344 C 27.199219 39.613281 28.351562 39.109375 29.769531 39.4375 C 32.058594 39.96875 32.988281 42.492188 31.625 44.511719 C 28.621094 48.945312 25.554688 53.335938 22.578125 57.785156 C 20.28125 61.226562 17.117188 62.96875 13.003906 63.105469 C 10.132812 63.203125 7.378906 60.90625 7.207031 58.039062 C 6.9375 53.609375 6.710938 49.171875 6.585938 44.730469 C 6.480469 41.011719 9.3125 38.101562 13.027344 37.90625 C 14.902344 37.808594 16.78125 37.699219 18.660156 37.589844 C 19.703125 37.53125 20.75 37.496094 21.789062 37.402344 C 22.980469 37.289062 23.621094 36.425781 23.359375 35.363281 C 23.175781 34.605469 22.507812 34.136719 21.5625 34.1875 C 18.667969 34.335938 15.765625 34.441406 12.878906 34.707031 C 11.605469 34.828125 10.257812 35.089844 9.117188 35.644531 C 5.019531 37.632812 3.199219 41.035156 3.40625 45.558594 C 3.578125 49.578125 3.726562 53.597656 3.925781 57.617188 C 4.160156 62.292969 7.667969 66.078125 12.148438 66.277344 C 17.320312 66.5 21.636719 64.597656 24.675781 60.328125 Z M 24.675781 60.328125 " fill-opacity="1" fill-rule="nonzero"/></g><g clip-path="url(#d34c4c7ada)"><path fill="#221c35" d="M 32.539062 32.167969 C 41.277344 32.132812 48.363281 25.007812 48.339844 16.269531 C 48.316406 7.523438 41.167969 0.507812 32.320312 0.539062 C 23.644531 0.570312 16.652344 7.742188 16.683594 16.570312 C 16.714844 25.105469 23.929688 32.199219 32.539062 32.167969 Z M 32.457031 3.714844 C 39.480469 3.726562 45.089844 9.347656 45.089844 16.367188 C 45.089844 23.34375 39.480469 28.9375 32.484375 28.941406 C 25.5625 28.945312 19.921875 23.3125 19.917969 16.390625 C 19.914062 9.410156 25.558594 3.699219 32.457031 3.714844 Z M 32.457031 3.714844 " fill-opacity="1" fill-rule="nonzero"/></g><g clip-path="url(#cc7170ebea)"><path fill="#221c35" d="M 70.03125 5.238281 C 68.398438 3.523438 66.3125 2.808594 64.222656 2.609375 C 61.226562 2.652344 59.257812 3.984375 57.96875 6.386719 C 57.582031 7.109375 57.796875 7.675781 58.542969 7.960938 C 59.152344 8.191406 59.773438 8.390625 60.394531 8.578125 C 61.046875 8.769531 61.519531 8.59375 61.898438 7.960938 C 62.210938 7.4375 62.640625 6.941406 63.125 6.570312 C 63.976562 5.917969 65.238281 6.007812 66.207031 6.65625 C 67.015625 7.199219 67.304688 7.960938 67.140625 8.894531 C 66.941406 10.011719 66.414062 10.894531 65.277344 11.304688 C 64.765625 11.488281 64.261719 11.695312 63.75 11.890625 C 62.140625 12.507812 60.933594 13.546875 60.265625 15.167969 C 59.867188 16.140625 60.082031 16.65625 61.042969 16.992188 C 61.488281 17.148438 61.941406 17.265625 62.382812 17.425781 C 63.035156 17.65625 63.515625 17.46875 63.792969 16.839844 C 64.210938 15.890625 64.972656 15.335938 65.910156 14.988281 C 66.496094 14.773438 67.097656 14.597656 67.691406 14.40625 C 71.667969 13.109375 72.914062 8.253906 70.03125 5.238281 Z M 70.03125 5.238281 " fill-opacity="1" fill-rule="nonzero"/></g><path fill="#221c35" d="M 60.351562 18.652344 C 59.140625 18.609375 58.097656 19.613281 58.074219 20.84375 C 58.050781 22.105469 59.039062 23.113281 60.335938 23.152344 C 61.476562 23.183594 62.550781 22.164062 62.601562 21 C 62.652344 19.789062 61.609375 18.699219 60.351562 18.652344 Z M 60.351562 18.652344 " fill-opacity="1" fill-rule="nonzero"/></svg>