<svg xmlns="http://www.w3.org/2000/svg" xmlns:xlink="http://www.w3.org/1999/xlink" width="100" zoomAndPan="magnify" viewBox="0 0 75 74.999997" height="100" preserveAspectRatio="xMidYMid meet" version="1.0"><path fill="#221c35" d="M 68.023438 35.519531 C 66.386719 26.929688 60.605469 19.976562 51.628906 19.152344 C 49.773438 18.980469 49.054688 19.335938 47.351562 19.945312 L 44.125 21.117188 C 43.433594 21.375 42.542969 21.726562 41.84375 21.929688 C 41.835938 21.152344 41.757812 19.429688 41.835938 18.808594 L 41.84375 18.742188 C 50.53125 20.109375 56.753906 16.335938 60.382812 8.492188 C 60.949219 7.269531 63.054688 2.136719 62.175781 1.1875 C 61.292969 0.230469 55.996094 0 54.550781 0.0664062 C 46.449219 0.792969 42.3125 3.390625 39.097656 10.65625 C 37.898438 8.53125 36.289062 6.492188 34.210938 5.171875 C 31.550781 3.464844 29.03125 6.683594 30.410156 9.058594 C 30.773438 9.625 31.386719 9.960938 31.875 10.398438 C 34.988281 13.167969 36.40625 17.898438 36.203125 21.949219 C 30.628906 19.316406 27.421875 18.339844 21.445312 20.3125 C 13.335938 23.191406 9.773438 32.175781 9.449219 40.179688 C 8.929688 52.832031 19.484375 74.589844 33.886719 72.300781 C 38.902344 71.332031 36.941406 69.820312 42.3125 71.761719 C 51.246094 75 60.308594 66.054688 63.917969 58.519531 C 67.671875 51.460938 69.519531 43.464844 68.023438 35.519531 Z M 41.289062 10.964844 C 43.511719 4.941406 48.585938 2.730469 54.542969 2.230469 C 56.265625 2.125 58.382812 2.367188 60.066406 2.613281 C 59.992188 5.265625 57.339844 10.160156 55.507812 12.230469 C 52.789062 15.3125 49.378906 16.96875 45.214844 16.882812 C 43.933594 16.855469 42.621094 16.59375 41.453125 16.691406 C 42.867188 13.65625 45.855469 11.460938 48.824219 10.082031 C 49.535156 9.71875 52.1875 8.867188 52.503906 8.582031 C 53.25 7.910156 52.722656 6.710938 51.753906 6.730469 C 49.449219 6.769531 43.671875 10.515625 42.152344 12.085938 C 41.605469 12.648438 41.171875 13.328125 40.628906 13.886719 L 40.542969 13.847656 C 40.265625 13.367188 41.085938 11.511719 41.289062 10.964844 Z M 33.742188 9.222656 C 32.84375 8.292969 31.683594 8.167969 32.566406 6.789062 C 33.234375 6.847656 34.105469 7.691406 34.574219 8.140625 C 38.003906 11.519531 39.566406 16.203125 39.746094 20.933594 C 39.765625 21.566406 40.015625 22.523438 39.34375 22.847656 C 38.941406 22.992188 38.769531 22.839844 38.398438 22.667969 C 38.433594 17.621094 37.34375 12.925781 33.742188 9.222656 Z M 63.304688 55.121094 C 60.210938 62.109375 53.59375 70.910156 45.167969 70.25 C 40.109375 69.859375 41.566406 67.367188 35.226562 69.753906 C 32.402344 70.816406 29.527344 70.347656 26.847656 69.128906 C 17.980469 64.953125 12.015625 51.824219 11.601562 42.488281 C 11.164062 32.730469 15.386719 22.792969 25.910156 21.449219 C 28.570312 21.117188 29.441406 21.640625 31.867188 22.542969 L 35.667969 23.921875 C 38.886719 25.109375 38.398438 25.386719 41.710938 24.226562 L 46.949219 22.390625 C 47.945312 22.042969 49.554688 21.402344 50.539062 21.34375 C 51.9375 20.992188 55.28125 22.074219 56.648438 22.695312 C 60.566406 24.503906 63.398438 28.105469 64.875 32.089844 C 67.660156 39.578125 66.472656 47.949219 63.304688 55.121094 Z M 56.179688 32.644531 C 55.261719 33.085938 55.210938 33.652344 55.710938 34.484375 C 60.804688 43.101562 57.722656 56.652344 47.761719 60.167969 C 46.738281 60.53125 46.882812 62.234375 48.316406 62.121094 C 51.628906 61.421875 55.117188 58.03125 56.9375 55.273438 C 60.152344 50.371094 60.863281 44.96875 59.675781 39.300781 C 59.347656 37.75 58.191406 32.464844 56.179688 32.644531 Z M 56.179688 32.644531 " fill-opacity="1" fill-rule="nonzero"/></svg>