<svg xmlns="http://www.w3.org/2000/svg" xmlns:xlink="http://www.w3.org/1999/xlink" width="100" zoomAndPan="magnify" viewBox="0 0 75 74.999997" height="100" preserveAspectRatio="xMidYMid meet" version="1.0"><defs><clipPath id="3a4568d4ae"><path d="M 7.5 7.648438 L 67.5 7.648438 L 67.5 67.648438 L 7.5 67.648438 Z M 7.5 7.648438 " clip-rule="nonzero"/></clipPath></defs><g clip-path="url(#3a4568d4ae)"><path fill="#221c35" d="M 64.453125 7.648438 L 10.394531 7.648438 C 8.796875 7.648438 7.5 8.949219 7.5 10.542969 L 7.5 54.53125 C 7.5 56.125 8.796875 57.425781 10.394531 57.425781 L 28.195312 57.425781 L 25.933594 61.9375 L 22.363281 61.9375 C 20.832031 61.9375 19.582031 63.183594 19.582031 64.71875 C 19.582031 66.25 20.832031 67.496094 22.363281 67.496094 L 52.484375 67.496094 C 54.019531 67.496094 55.265625 66.25 55.265625 64.71875 C 55.265625 63.183594 54.015625 61.9375 52.484375 61.9375 L 48.914062 61.9375 L 46.65625 57.425781 L 64.453125 57.425781 C 66.050781 57.425781 67.347656 56.125 67.347656 54.53125 L 67.347656 10.542969 C 67.347656 8.949219 66.050781 7.648438 64.453125 7.648438 Z M 65.859375 10.542969 L 65.859375 28.539062 L 62.488281 28.539062 L 62.488281 27.355469 C 62.488281 24.648438 60.285156 22.445312 57.578125 22.445312 L 54.414062 22.445312 C 51.703125 22.445312 49.5 24.648438 49.5 27.355469 L 49.5 28.539062 L 46.132812 28.539062 L 46.132812 9.140625 L 64.453125 9.140625 C 65.226562 9.140625 65.859375 9.769531 65.859375 10.542969 Z M 62.488281 49.425781 L 62.488281 48.242188 C 62.488281 45.535156 60.285156 43.332031 57.578125 43.332031 L 54.414062 43.332031 C 51.703125 43.332031 49.5 45.535156 49.5 48.242188 L 49.5 49.425781 L 46.132812 49.425781 L 46.132812 30.027344 L 65.859375 30.027344 L 65.859375 49.425781 Z M 61 49.425781 L 50.988281 49.425781 L 50.988281 48.242188 C 50.988281 46.355469 52.523438 44.824219 54.410156 44.824219 L 57.578125 44.824219 C 59.464844 44.824219 60.996094 46.355469 60.996094 48.242188 L 60.996094 49.425781 Z M 50.992188 28.539062 L 50.992188 27.355469 C 50.992188 25.46875 52.527344 23.933594 54.414062 23.933594 L 57.578125 23.933594 C 59.464844 23.933594 61 25.46875 61 27.355469 L 61 28.539062 C 61 28.539062 50.988281 28.539062 50.988281 28.539062 Z M 10.394531 9.140625 L 44.644531 9.140625 L 44.644531 49.425781 L 41.769531 49.425781 C 41.464844 43.015625 36.152344 37.894531 29.664062 37.894531 L 23.964844 37.894531 C 17.480469 37.894531 12.167969 43.015625 11.863281 49.425781 L 8.988281 49.425781 L 8.988281 10.542969 C 8.988281 9.769531 9.621094 9.140625 10.394531 9.140625 Z M 40.277344 49.425781 L 13.355469 49.425781 C 13.660156 43.835938 18.300781 39.382812 23.964844 39.382812 L 29.664062 39.382812 C 35.328125 39.382812 39.972656 43.835938 40.277344 49.425781 Z M 53.773438 64.71875 C 53.773438 65.429688 53.195312 66.007812 52.484375 66.007812 L 22.363281 66.007812 C 21.652344 66.007812 21.074219 65.429688 21.074219 64.71875 C 21.074219 64.007812 21.652344 63.425781 22.363281 63.425781 L 52.484375 63.425781 C 53.195312 63.425781 53.773438 64.007812 53.773438 64.71875 Z M 47.246094 61.9375 L 27.601562 61.9375 L 29.859375 57.421875 L 44.988281 57.421875 Z M 64.453125 55.933594 L 10.394531 55.933594 C 9.621094 55.933594 8.988281 55.304688 8.988281 54.53125 L 8.988281 50.917969 L 65.859375 50.917969 L 65.859375 54.53125 C 65.859375 55.304688 65.226562 55.933594 64.453125 55.933594 Z M 15.214844 31.503906 L 17.304688 31.503906 C 17.757812 31.503906 18.167969 31.320312 18.472656 31.03125 C 19.445312 33.121094 21.183594 34.804688 23.402344 35.6875 L 23.402344 35.878906 C 23.402344 36.832031 24.179688 37.609375 25.132812 37.609375 L 27.730469 37.609375 C 28.605469 37.609375 29.328125 36.953125 29.441406 36.109375 C 36.445312 35.953125 38.054688 33.566406 38.117188 31.503906 L 38.417969 31.503906 C 39.347656 31.503906 40.105469 30.746094 40.105469 29.816406 L 40.105469 25.660156 C 40.105469 24.734375 39.347656 23.976562 38.417969 23.976562 L 37.917969 23.976562 C 36.921875 18.703125 32.300781 14.945312 26.679688 14.945312 C 21.0625 14.945312 16.734375 18.78125 15.722656 23.976562 L 15.214844 23.976562 C 14.285156 23.976562 13.527344 24.734375 13.527344 25.660156 L 13.527344 29.816406 C 13.527344 30.746094 14.285156 31.503906 15.214844 31.503906 Z M 19.097656 27.136719 C 19.097656 22.882812 22.5625 19.421875 26.816406 19.421875 C 31.070312 19.421875 34.535156 22.882812 34.535156 27.136719 C 34.535156 30.460938 32.460938 33.335938 29.398438 34.414062 C 29.199219 33.675781 28.527344 33.132812 27.730469 33.132812 L 25.132812 33.132812 C 24.4375 33.132812 23.839844 33.546875 23.5625 34.136719 C 20.863281 32.886719 19.101562 30.171875 19.101562 27.140625 Z M 27.96875 35.878906 C 27.96875 36.007812 27.859375 36.117188 27.730469 36.117188 L 25.132812 36.117188 C 25 36.117188 24.890625 36.007812 24.890625 35.878906 L 24.890625 34.863281 C 24.890625 34.730469 25.003906 34.621094 25.132812 34.621094 L 27.730469 34.621094 C 27.859375 34.621094 27.96875 34.734375 27.96875 34.863281 Z M 32.550781 34.335938 C 33.078125 33.917969 33.5625 33.441406 33.984375 32.914062 C 34.453125 32.335938 34.84375 31.699219 35.15625 31.027344 C 35.460938 31.320312 35.871094 31.503906 36.328125 31.503906 L 36.625 31.503906 C 36.535156 33.171875 34.660156 33.96875 32.550781 34.335938 Z M 38.613281 25.660156 L 38.613281 29.816406 C 38.613281 29.921875 38.523438 30.011719 38.417969 30.011719 L 36.328125 30.011719 C 36.21875 30.011719 36.132812 29.921875 36.132812 29.816406 L 36.132812 25.660156 C 36.132812 25.554688 36.21875 25.464844 36.328125 25.464844 L 38.417969 25.464844 C 38.523438 25.464844 38.613281 25.554688 38.613281 25.660156 Z M 26.679688 16.433594 C 31.472656 16.433594 35.425781 19.558594 36.398438 23.976562 L 36.328125 23.976562 C 36.039062 23.976562 35.769531 24.050781 35.53125 24.175781 C 34.296875 20.550781 30.855469 17.933594 26.816406 17.933594 C 22.777344 17.933594 19.335938 20.550781 18.101562 24.175781 C 17.863281 24.050781 17.59375 23.976562 17.304688 23.976562 L 17.242188 23.976562 C 18.230469 19.625 22.144531 16.433594 26.679688 16.433594 Z M 15.019531 25.660156 C 15.019531 25.554688 15.109375 25.464844 15.214844 25.464844 L 17.304688 25.464844 C 17.414062 25.464844 17.5 25.554688 17.5 25.660156 L 17.5 29.816406 C 17.5 29.921875 17.414062 30.011719 17.304688 30.011719 L 15.214844 30.011719 C 15.109375 30.011719 15.019531 29.921875 15.019531 29.816406 Z M 55.996094 21.789062 C 58.046875 21.789062 59.710938 20.121094 59.710938 18.070312 C 59.710938 16.019531 58.046875 14.351562 55.996094 14.351562 C 53.945312 14.351562 52.277344 16.019531 52.277344 18.070312 C 52.277344 20.121094 53.945312 21.789062 55.996094 21.789062 Z M 55.996094 15.84375 C 57.222656 15.84375 58.222656 16.84375 58.222656 18.070312 C 58.222656 19.296875 57.222656 20.296875 55.996094 20.296875 C 54.765625 20.296875 53.769531 19.296875 53.769531 18.070312 C 53.769531 16.84375 54.765625 15.84375 55.996094 15.84375 Z M 55.996094 35.242188 C 53.945312 35.242188 52.277344 36.910156 52.277344 38.957031 C 52.277344 41.007812 53.945312 42.675781 55.996094 42.675781 C 58.046875 42.675781 59.710938 41.007812 59.710938 38.957031 C 59.710938 36.910156 58.046875 35.242188 55.996094 35.242188 Z M 55.996094 41.1875 C 54.765625 41.1875 53.769531 40.1875 53.769531 38.960938 C 53.769531 37.730469 54.765625 36.730469 55.996094 36.730469 C 57.222656 36.730469 58.222656 37.730469 58.222656 38.960938 C 58.222656 40.1875 57.222656 41.1875 55.996094 41.1875 Z M 55.996094 41.1875 " fill-opacity="1" fill-rule="nonzero"/></g></svg>